<svg xmlns="http://www.w3.org/2000/svg" xmlns:xlink="http://www.w3.org/1999/xlink" viewBox="0 0 153.674 51.082"><defs><style>.cls-1{fill:#fff;}.cls-2{fill:none;}.cls-3{fill:#76777a;}.cls-4{fill:url(#linear-gradient);}.cls-5{fill:url(#linear-gradient-2);}.cls-6{fill:url(#linear-gradient-3);}.cls-7{fill:url(#linear-gradient-4);}.cls-8{fill:url(#linear-gradient-5);}.cls-9{fill:#003b71;}</style><linearGradient id="linear-gradient" x1="24.374" y1="21.914" x2="14.855" y2="16.529" gradientUnits="userSpaceOnUse"><stop offset="0" stop-color="#fff"/><stop offset="0.2" stop-color="#e8ec8f"/><stop offset="0.76" stop-color="#abcd05"/><stop offset="1" stop-color="#8fc31f"/></linearGradient><linearGradient id="linear-gradient-2" x1="23.581" y1="18.372" x2="14.703" y2="12.435" gradientUnits="userSpaceOnUse"><stop offset="0" stop-color="#e6eb91"/><stop offset="0.016" stop-color="#e2e98a"/><stop offset="0.088" stop-color="#d3e16f"/><stop offset="0.151" stop-color="#cadd5f"/><stop offset="0.2" stop-color="#c7db59"/><stop offset="0.4" stop-color="#a3c911"/><stop offset="0.746" stop-color="#7dbb24"/><stop offset="1" stop-color="#66b230"/></linearGradient><linearGradient id="linear-gradient-3" x1="24.791" y1="16.563" x2="15.913" y2="10.625" xlink:href="#linear-gradient-2"/><linearGradient id="linear-gradient-4" x1="20.408" y1="23.116" x2="11.53" y2="17.179" xlink:href="#linear-gradient-2"/><linearGradient id="linear-gradient-5" x1="19.315" y1="24.751" x2="10.436" y2="18.813" xlink:href="#linear-gradient-2"/></defs><g id="Layer_2" data-name="Layer 2"><g id="레이어_1" data-name="레이어 1"><path class="cls-1" d="M43.452,21.726A21.726,21.726,0,1,1,21.727,0,21.725,21.725,0,0,1,43.452,21.726Z"/><path class="cls-2" d="M42.513,21.726A20.787,20.787,0,1,1,21.727.939,20.787,20.787,0,0,1,42.513,21.726Z"/><path class="cls-2" d="M37.909,21.726A16.183,16.183,0,1,1,21.727,5.544,16.182,16.182,0,0,1,37.909,21.726Z"/><path class="cls-2" d="M34.943,21.513A13.137,13.137,0,1,1,21.806,8.375,13.136,13.136,0,0,1,34.943,21.513Z"/><path class="cls-3" d="M35,33.752l-.376.395c.045.042.8.766.8.766l-.427.449-.8-.766c-.038.041-.363.38-.4.422l.8.766-.57.6c.041.038.333.318.374.356l2.783-2.913-.374-.358-.977,1.024-.8-.767C35.013,33.737,35,33.752,35,33.752Z"/><path class="cls-3" d="M36.137,33.325c-.048-.044-1.607-1.533-1.655-1.578l-.026.028s-2.339,2.448-2.384,2.5c.04.039.333.317.372.356.047-.047,2.01-2.1,2.01-2.1l1.28,1.222Z"/><path class="cls-3" d="M7.541,34.518a1.137,1.137,0,1,0,1.515.132A1.081,1.081,0,0,0,7.541,34.518Zm.375.391a.6.6,0,1,1,.01.806A.575.575,0,0,1,7.916,34.909Z"/><path class="cls-3" d="M11.284,34.088l-.359-.382-.469.436s-.412-.443-.454-.486l-.363.339c.041.041.455.485.455.485l-.615.573c.037.041.345.372.384.412.046-.041,1.4-1.307,1.446-1.349Z"/><path class="cls-3" d="M9.568,32.234l-2.127.086c0,.056.033.509.037.563L9,32.8s-.179,1.372-.189,1.434c.054.006.5.068.559.076.008-.064.231-2,.24-2.076Z"/><path class="cls-3" d="M26.456,40.97l.559-.1L26.387,37.2l-.038.006-.519.089c.008.062.193,1.13.193,1.13l-.329.057s-.182-1.068-.194-1.131l-.561.1.4,2.335c-.445.075-1.77.3-1.77.3l-.306-1.8,1.307-.224-.078-.466-.01,0-1.854.316c.115.662.463,2.705.472,2.757l2.324-.4.145.849.562-.095c-.01-.063-.349-2.056-.349-2.056l.327-.056S26.446,40.909,26.456,40.97Z"/><path class="cls-3" d="M15.094,38.124l-.174-.093.694-1.3-.032-.017s-2.916-1.556-2.971-1.587l-.238.447c.055.031,2.5,1.335,2.5,1.335l-.456.853-2.725-1.454-.237.446,1.07.57s-.286.535-.313.588l.51.273.314-.587.454.242s-.284.536-.313.587l.511.274L14,38.114l.886.473.238-.447Zm-3.073-.674-.506-.268-.625,1.171,3.067,1.638.237-.447-2.563-1.367Z"/><path class="cls-3" d="M17.512,39.723l-.036,0-.528-.083-.206,1.312,3.458.547.077-.5c-.061-.008-2.894-.457-2.894-.457S17.5,39.784,17.512,39.723Zm3.138-1.268s.093-.586.1-.644l-.037-.005-.526-.084-.242,1.524-.571-.09.229-1.457-.036,0-2.364-.375-.078.5,1.834.289s-.1.658-.151.956l-.567-.089s.075-.477.085-.534a.285.285,0,0,1-.037,0l-.535-.085c-.009.057-.086.532-.086.532l-.869-.137-.08.5,3.147.5-.092.584.563.089c.01-.061.232-1.467.232-1.467l.577.091.078-.5Z"/><path class="cls-3" d="M30.86,34.993l-.461.255c.03.053,1.032,1.866,1.065,1.921l.492-.272-.514-.928.5-.277c-.025-.047-.214-.386-.24-.433l-.5.276-.311-.562Z"/><path class="cls-3" d="M32.043,37.145l-3.075,1.7c.027.048.217.392.245.438l2.613-1.444s.34.618.371.67c.048-.028.444-.247.493-.274-.028-.053-.583-1.055-.614-1.108Z"/><path class="cls-3" d="M29.921,35.589l-.915.507h0l-.167-.3-.5.277.166.3-.93.516.232.418.335-.185a1.061,1.061,0,0,0,.125.585,1.148,1.148,0,0,0,2-1.11,1.044,1.044,0,0,0-.428-.416l.311-.174Zm-.384,2.022a.521.521,0,1,1,.227-.72A.534.534,0,0,1,29.537,37.611Z"/><path class="cls-3" d="M41.083,23.252l-.429-.27a.8.8,0,0,0,.469-.662.519.519,0,0,0-.492-.608c-.4,0-.546.356-.716.765-.184.44-.466.9-1.026.932-.678.041-1.134-.558-1.1-1.38a1.562,1.562,0,0,1,.588-1.184l.51.234a1.2,1.2,0,0,0-.762,1.1.623.623,0,0,0,.633.677c.4,0,.543-.344.708-.743.183-.444.393-.95,1.032-.952.623-.005,1,.489.962,1.258A1.3,1.3,0,0,1,41.083,23.252Z"/><path class="cls-3" d="M3.653,28.818l.505.055a.8.8,0,0,0-.133.8.52.52,0,0,0,.709.332c.36-.178.336-.56.309-1a1.26,1.26,0,0,1,.513-1.287c.592-.333,1.266,0,1.595.761A1.572,1.572,0,0,1,7.14,29.8l-.561.012a1.2,1.2,0,0,0,.205-1.321.623.623,0,0,0-.865-.33c-.36.178-.339.546-.313.977.03.481.061,1.027-.51,1.308s-1.115,0-1.415-.708A1.3,1.3,0,0,1,3.653,28.818Z"/><path class="cls-3" d="M3.122,16.153l-.036.036a2.4,2.4,0,0,0-.6,1.215,1.753,1.753,0,0,0,1.378,2.271,1.688,1.688,0,0,0,2.145-1.463,4.2,4.2,0,0,0,.053-1.375l-.007-.043-1.339-.28-.115.546,1.131.234a1.661,1.661,0,0,1,0,.718,1.318,1.318,0,0,1-1.768,1.066,1.291,1.291,0,0,1-1.177-1.59,1.548,1.548,0,0,1,.69-1l.024-.014Z"/><path class="cls-3" d="M6.515,9.171,6.2,9.618l.793,1.657-1.831-.184-.4.568,2.385.139c.028.021,1.191.838,1.191.838l.32-.455-1.227-.862Z"/><path class="cls-3" d="M39.092,31.075l.221-.5-1.1-1.471,1.832-.177.281-.635-2.364.328-1.334-.589-.225.509,1.371.606Z"/><path class="cls-3" d="M5.411,14.042l-.738-2.159-.251.508.7,2.028c-.094-.045-1.365-.671-1.365-.671l-.245.5,3.128,1.542.246-.5-1.515-.745,2.142-.524.314-.635Z"/><path class="cls-3" d="M15.864,4.671,16.9,2.638l-.54.174-.969,1.912c-.033-.1-.467-1.448-.467-1.448l-.531.173,1.077,3.317L16,6.6l-.523-1.608,1.868,1.171.673-.218Z"/><polygon class="cls-3" points="18.773 5.775 19.188 5.734 19.848 2.978 20.972 5.558 21.449 5.512 22.264 1.925 21.784 1.974 21.123 4.809 19.968 2.152 19.65 2.183 18.998 5.014 17.905 2.356 17.316 2.412 18.773 5.775"/><path class="cls-3" d="M24.191,2.187l-.245-.029L22.033,5.483l.475.061L23.213,4.3l1.068.13.368,1.38.652.078Zm-.276.764c.06.2.239.993.279,1.132l-.849-.1Z"/><rect class="cls-3" x="34.821" y="11.426" width="3.485" height="0.555" transform="translate(-0.287 22.471) rotate(-34.037)"/><rect class="cls-3" x="39.126" y="22.834" width="0.554" height="3.486" transform="matrix(0.159, -0.987, 0.987, 0.159, 8.857, 59.557)"/><path class="cls-3" d="M32.643,7.742c-.487.71-1,.825-1.547.45-.616-.423-.636-.848-.12-1.6l1.1-1.6-.455-.313L30.494,6.321A1.546,1.546,0,0,0,30.133,7.5a1.635,1.635,0,0,0,.733.953A1.32,1.32,0,0,0,32.9,8.067l1.174-1.711-.325-.225Z"/><path class="cls-3" d="M10.113,8.316c.6.616.615,1.14.142,1.6-.535.523-.955.461-1.592-.19L7.3,8.339l-.395.387,1.4,1.425a1.554,1.554,0,0,0,1.087.582,1.644,1.644,0,0,0,1.078-.536,1.32,1.32,0,0,0,.013-2.072L9.03,6.643l-.285.279Z"/><path class="cls-3" d="M4.255,24.761c.837-.2,1.294.059,1.447.705.172.727-.1,1.055-.984,1.265l-1.894.449.128.539,1.941-.462a1.543,1.543,0,0,0,1.059-.633,1.639,1.639,0,0,0,.114-1.2A1.335,1.335,0,0,0,4.28,24.346l-2.017.479.091.388Z"/><polygon class="cls-3" points="36.059 14.218 36.205 14.498 39.975 14.209 39.745 13.759 36.775 14.047 38.74 11.804 38.456 11.251 36.059 14.218"/><path class="cls-3" d="M37.4,16.355l1.216-.383.367,1.153.337-.107-.365-1.153,1.1-.347.4,1.257.286-.09L40.175,14.9,36.85,15.95l.571,1.814.387-.121Z"/><path class="cls-3" d="M41.009,25.772l-.28-.08-.293,1.042c-.115-.031-3.078-.865-3.078-.865l-.149.532,3.076.866-.28,1,.281.078Z"/><path class="cls-3" d="M37.575,18.31l.068.549,1.682-.221-1.486,1.7.076.587,1.486-1.7a1.048,1.048,0,0,0,1.06.951c.571-.074.816-.469.713-1.238l-.142-1.091Zm2.077.285c.1-.014,1.052-.138,1.154-.153l.068.525a.533.533,0,0,1-.485.682c-.327.029-.594-.107-.673-.6Z"/><path class="cls-3" d="M12.547,4.289,12.21,4.5l1.328,2.1c-1.228-.318-3.362-.808-3.362-.808l-.238.151L11.8,8.887l.337-.214-1.4-2.207,3.469.894.2-.126Z"/><path class="cls-3" d="M2.042,20.523l.009.4,2.48-.05c-.907.883-2.431,2.456-2.431,2.456l0,.283,3.486-.07-.008-.4s-1.45.03-2.611.052l2.562-2.5-.005-.238Z"/><path class="cls-3" d="M29.44,3.59l-.378-.128-.794,2.35c-.524-1.152-1.487-3.12-1.487-3.12L26.513,2.6,25.4,5.9l.379.129s.465-1.376.834-2.476L28.1,6.817l.227.076Z"/><path class="cls-3" d="M37.162,9.477l-.273-.293-1.818,1.688c.089-1.263.182-3.452.182-3.452l-.194-.208L32.5,9.583l.273.292S33.84,8.889,34.69,8.1l-.247,3.574.162.176Z"/><path class="cls-4" d="M22.983,17.369a5.143,5.143,0,0,1,7.088-4.776A11.6,11.6,0,0,0,13.306,28.55a18.839,18.839,0,0,1,4-3.955,10.719,10.719,0,0,1,4.543-1.96,10.1,10.1,0,0,1,4.643.6,34.65,34.65,0,0,1-2.481-2.765A5.139,5.139,0,0,1,22.983,17.369Z"/><path class="cls-5" d="M22.618,21.14,17.181,10.669a11.55,11.55,0,0,0-2.813,1.91l8.214,8.548Z"/><path class="cls-6" d="M22.647,21.152l.719-11.568a11.661,11.661,0,0,0-2.825.062l2.1,11.5Z"/><path class="cls-7" d="M22.582,21.127l-11.2-4.161a11.661,11.661,0,0,0-.717,3.077l11.946,1.115Z"/><path class="cls-8" d="M10.735,22.787a11.71,11.71,0,0,0,.609,2.381l11.235-3.981Z"/><path class="cls-9" d="M13.091,31.384a11.235,11.235,0,0,1-1.431-1.506A13.148,13.148,0,0,1,31.348,12.472a.52.52,0,0,1,.022.75c-.268.227-.51.109-1.053-.049a5.6,5.6,0,0,0-2.359-.2,3.78,3.78,0,0,0-3.165,4.264c.2,2.144,1.851,3.694,3.012,4.718,4.079,3.591,2.714,7.441,2.382,8.287a8.038,8.038,0,0,1-7.765,4.9A11.494,11.494,0,0,1,16.356,33.3c-.087-.039-.173-.155-.066-.348A12.346,12.346,0,0,1,17.5,30.873a7.45,7.45,0,0,0,5.125,2.6,5.187,5.187,0,0,0,5.413-3.431c.765-2.222-.048-4.485-2.2-6.528-1.854-1.762-3.509-3.391-3.607-6.185a5.471,5.471,0,0,1,5.887-5.562,10.617,10.617,0,0,0-9.251-1.189,10.921,10.921,0,0,0-4.844,3.24.214.214,0,0,0,0,.29c.082.117,1.867,2.606,1.867,2.606l-3.218-.74a.19.19,0,0,0-.2.077,11.036,11.036,0,0,0,.834,11.51,11.651,11.651,0,0,1,8.563-4.929c.378-.025.331.11.082.2-5.086,1.869-7.094,5.6-8.392,8.475A.277.277,0,0,1,13.091,31.384Z"/><path class="cls-3" d="M18.333,27.88s.319-.142.408-.192v2.206h.4V27.3l-.064-.043-.02.011c-.29.143-.589.279-.84.382Z"/><path class="cls-3" d="M20.452,28.6c.324,0,.481.166.481.508a.53.53,0,0,1-.555.577.64.64,0,0,1-.468-.233l-.049-.059-.1.344.031.015a1.264,1.264,0,0,0,.576.134.885.885,0,0,0,.982-.825.589.589,0,0,0-.545-.6.657.657,0,0,0,.427-.61c0-.365-.287-.588-.747-.59a.766.766,0,0,0-.589.254l.17.3.029-.083a.409.409,0,0,1,.377-.268.363.363,0,0,1,.355.415c0,.238-.067.523-.38.523l-.207-.017,0,.245A.871.871,0,0,1,20.452,28.6Z"/><path class="cls-3" d="M21.9,29.368l.1.42a.875.875,0,0,0,.4.1c.665,0,1.13-.625,1.13-1.52,0-1-.607-1.1-.868-1.1a.81.81,0,0,0-.861.832.712.712,0,0,0,.758.775.681.681,0,0,0,.56-.268c-.028.558-.246,1.066-.7,1.069A.6.6,0,0,1,21.9,29.368Zm.724-.72c-.279,0-.415-.182-.415-.556s.182-.633.452-.633.451.215.451.537S22.946,28.648,22.624,28.648Z"/><path class="cls-3" d="M25.118,28.392a.6.6,0,0,0,.373-.549c0-.269-.2-.583-.746-.583a.671.671,0,0,0-.733.627.561.561,0,0,0,.375.525.73.73,0,0,0-.506.708.775.775,0,0,0,.864.764.829.829,0,0,0,.865-.847A.637.637,0,0,0,25.118,28.392Zm-.724-.5c0-.1.025-.432.355-.432s.358.3.358.432c0,.1-.025.433-.358.433S24.394,27.992,24.394,27.891Zm.351,1.792c-.273,0-.459-.233-.459-.58s.186-.58.459-.58.458.233.458.58S25.024,29.683,24.745,29.683Z"/><path class="cls-9" d="M75.028,13.078a6.291,6.291,0,0,0-2.415-2.036,8.085,8.085,0,0,0-3.551-.711,10.072,10.072,0,0,0-3.977.8A11.059,11.059,0,0,0,61.7,13.385a12.941,12.941,0,0,0-2.509,3.433,13.609,13.609,0,0,0-1.35,4.309,11.906,11.906,0,0,0,.119,4.332,9.068,9.068,0,0,0,1.515,3.41,7.316,7.316,0,0,0,2.7,2.249,8.076,8.076,0,0,0,3.622.8,9.179,9.179,0,0,0,4.167-.947,9.787,9.787,0,0,0,3.267-2.652l5.493,4.593a15.713,15.713,0,0,1-6.014,4.4A18.05,18.05,0,0,1,65.8,38.741a19.3,19.3,0,0,1-7.079-1.231,13.632,13.632,0,0,1-5.232-3.527A13.452,13.452,0,0,1,50.5,28.419a17.893,17.893,0,0,1-.331-7.292,20.754,20.754,0,0,1,2.391-7.292A19.464,19.464,0,0,1,63.333,4.744a22.248,22.248,0,0,1,7.434-1.231,16.876,16.876,0,0,1,2.912.261,14.519,14.519,0,0,1,2.912.828,11.57,11.57,0,0,1,2.675,1.515,8.5,8.5,0,0,1,2.107,2.32Z"/><path class="cls-9" d="M86.676,4.365h7.387L89.375,37.889H81.989Z"/><path class="cls-9" d="M101.07,4.365h22.775l-.947,6.819H107.509l-.9,6.25h14.536l-.947,6.818H105.663l-.947,6.818h16.241l-.947,6.819H96.382Z"/><path class="cls-9" d="M130.9,4.365h22.775l-.946,6.819H137.339l-.9,6.25h14.537l-.947,6.818H135.492l-.947,6.818h16.241l-.947,6.819H126.212Z"/><path class="cls-9" d="M7.047,48.411a.86.86,0,0,0-.324-.267.891.891,0,0,0-.339-.067,1.257,1.257,0,0,0-.489.094,1.314,1.314,0,0,0-.4.257,1.412,1.412,0,0,0-.291.384,1.526,1.526,0,0,0-.136.973.977.977,0,0,0,.179.4.9.9,0,0,0,.329.262,1.068,1.068,0,0,0,.462.095.943.943,0,0,0,.41-.1,1.383,1.383,0,0,0,.406-.313l.448.353a1.685,1.685,0,0,1-.625.458,1.883,1.883,0,0,1-.72.143,1.848,1.848,0,0,1-.7-.126,1.341,1.341,0,0,1-.513-.358,1.37,1.37,0,0,1-.29-.556,1.763,1.763,0,0,1-.032-.72,2.163,2.163,0,0,1,.237-.737A1.982,1.982,0,0,1,5.1,48.02a1.953,1.953,0,0,1,.615-.36,2.137,2.137,0,0,1,.737-.126,1.511,1.511,0,0,1,.618.121,1.24,1.24,0,0,1,.488.413Z"/><path class="cls-9" d="M8.583,47.619H10.82l-.076.544H9.108l-.114.83h1.549l-.076.544H8.917l-.128.915H10.51L10.434,51H8.111Z"/><path class="cls-9" d="M11.974,47.619h.8l1.283,2.509h.01l.353-2.509h.6L14.544,51h-.762l-1.307-2.59h-.01L12.1,51h-.6Z"/><path class="cls-9" d="M16.863,48.163H15.828l.076-.544h2.671l-.076.544H17.463L17.068,51h-.6Z"/><path class="cls-9" d="M19.462,47.619H21.7l-.077.544H19.986l-.114.83h1.55l-.076.544H19.8l-.128.915h1.722L21.312,51H18.99Z"/><path class="cls-9" d="M22.856,47.619h1.173a2.264,2.264,0,0,1,.465.046,1.027,1.027,0,0,1,.382.155.671.671,0,0,1,.24.3.889.889,0,0,1,.036.472,1.127,1.127,0,0,1-.1.339,1.027,1.027,0,0,1-.191.277,1,1,0,0,1-.275.2,1.261,1.261,0,0,1-.348.1L24.931,51h-.725l-.582-1.43h-.439l-.2,1.43h-.6Zm.865,1.431c.086,0,.173,0,.26-.012a.864.864,0,0,0,.243-.057.463.463,0,0,0,.3-.4.389.389,0,0,0-.031-.239.33.33,0,0,0-.143-.136.655.655,0,0,0-.212-.059,1.886,1.886,0,0,0-.234-.015h-.52l-.129.916Z"/><path class="cls-9" d="M28.223,47.619H30.4l-.076.544H28.748l-.124.887h1.488l-.077.544H28.547l-.2,1.4h-.6Z"/><path class="cls-9" d="M31.018,49.322a2.184,2.184,0,0,1,.236-.737,2,2,0,0,1,.449-.565,1.931,1.931,0,0,1,.615-.36,2.133,2.133,0,0,1,.737-.126,1.863,1.863,0,0,1,.708.116,1.3,1.3,0,0,1,.517.356,1.353,1.353,0,0,1,.291.562,1.875,1.875,0,0,1,.029.735,2.14,2.14,0,0,1-.234.72,1.968,1.968,0,0,1-.448.558,2.058,2.058,0,0,1-.62.365,2.173,2.173,0,0,1-.744.136,1.848,1.848,0,0,1-.7-.126,1.341,1.341,0,0,1-.513-.358,1.383,1.383,0,0,1-.291-.556A1.764,1.764,0,0,1,31.018,49.322Zm.634-.038a1.411,1.411,0,0,0,.013.5.976.976,0,0,0,.178.4.9.9,0,0,0,.329.262,1.076,1.076,0,0,0,.463.095,1.271,1.271,0,0,0,.491-.095,1.342,1.342,0,0,0,.406-.262,1.435,1.435,0,0,0,.291-.4,1.615,1.615,0,0,0,.152-.5,1.3,1.3,0,0,0-.017-.472.97.97,0,0,0-.178-.384.877.877,0,0,0-.332-.257,1.088,1.088,0,0,0-.465-.094,1.257,1.257,0,0,0-.489.094,1.319,1.319,0,0,0-.4.257,1.424,1.424,0,0,0-.439.856Z"/><path class="cls-9" d="M35.891,47.619h1.173a2.264,2.264,0,0,1,.465.046,1.034,1.034,0,0,1,.382.155.663.663,0,0,1,.239.3.87.87,0,0,1,.036.472,1.125,1.125,0,0,1-.1.339,1.008,1.008,0,0,1-.192.277.99.99,0,0,1-.274.2,1.261,1.261,0,0,1-.348.1L37.965,51H37.24l-.581-1.43H36.22L36.02,51h-.6Zm.864,1.431q.129,0,.261-.012a.864.864,0,0,0,.243-.057.505.505,0,0,0,.193-.138.5.5,0,0,0,.105-.26.4.4,0,0,0-.031-.239.33.33,0,0,0-.143-.136.654.654,0,0,0-.213-.059,1.858,1.858,0,0,0-.233-.015h-.52l-.129.916Z"/><path class="cls-9" d="M41.243,47.619h.6L41.372,51h-.6Z"/><path class="cls-9" d="M43.061,47.619h.8l1.283,2.509h.009l.353-2.509h.6L45.631,51h-.763l-1.307-2.59h-.009L43.189,51h-.6Z"/><path class="cls-9" d="M47.334,47.619h.8l1.283,2.509h.01l.353-2.509h.6L49.9,51h-.762l-1.308-2.59h-.009L47.462,51h-.6Z"/><path class="cls-9" d="M51.187,49.322a2.185,2.185,0,0,1,.237-.737,1.982,1.982,0,0,1,.448-.565,1.953,1.953,0,0,1,.615-.36,2.137,2.137,0,0,1,.737-.126,1.86,1.86,0,0,1,.708.116,1.3,1.3,0,0,1,.518.356,1.365,1.365,0,0,1,.291.562,1.875,1.875,0,0,1,.029.735,2.162,2.162,0,0,1-.234.72,1.971,1.971,0,0,1-.449.558,2.058,2.058,0,0,1-.62.365,2.173,2.173,0,0,1-.744.136,1.848,1.848,0,0,1-.7-.126,1.348,1.348,0,0,1-.513-.358,1.37,1.37,0,0,1-.29-.556A1.763,1.763,0,0,1,51.187,49.322Zm.635-.038a1.389,1.389,0,0,0,.012.5.977.977,0,0,0,.179.4.9.9,0,0,0,.329.262,1.068,1.068,0,0,0,.462.095,1.271,1.271,0,0,0,.491-.095,1.342,1.342,0,0,0,.406-.262,1.4,1.4,0,0,0,.291-.4,1.643,1.643,0,0,0,.153-.5,1.342,1.342,0,0,0-.017-.472.958.958,0,0,0-.179-.384.882.882,0,0,0-.331-.257,1.1,1.1,0,0,0-.466-.094,1.252,1.252,0,0,0-.488.094,1.307,1.307,0,0,0-.4.257,1.424,1.424,0,0,0-.439.856Z"/><path class="cls-9" d="M55.666,47.619h.691l.563,2.552,1.307-2.552h.648L57.04,51h-.52Z"/><path class="cls-9" d="M60.545,47.619h.52L62.047,51h-.686l-.21-.772H59.686l-.41.772H58.6Zm.468,2.089-.325-1.373-.725,1.373Z"/><path class="cls-9" d="M63.55,48.163H62.515l.076-.544h2.671l-.076.544H64.15L63.755,51h-.6Z"/><path class="cls-9" d="M66.134,47.619h.6L66.263,51h-.6Z"/><path class="cls-9" d="M67.561,47.619h.691l.563,2.552,1.307-2.552h.648L68.935,51h-.52Z"/><path class="cls-9" d="M71.61,47.619h2.237l-.077.544H72.134l-.114.83h1.55l-.076.544H71.943l-.128.915h1.722L73.46,51H71.138Z"/><path class="cls-9" d="M76.89,47.619h2.236l-.076.544H77.414l-.114.83h1.55l-.077.544h-1.55l-.128.915h1.721L78.74,51H76.417Z"/><path class="cls-9" d="M80.281,47.619h.8l1.283,2.509h.01l.353-2.509h.6L82.851,51h-.763l-1.307-2.59h-.009L80.409,51h-.6Z"/><path class="cls-9" d="M87.115,50.748a3.221,3.221,0,0,1-1.446.334,1.851,1.851,0,0,1-.7-.126,1.345,1.345,0,0,1-.512-.358,1.383,1.383,0,0,1-.291-.556,1.764,1.764,0,0,1-.031-.72,2.162,2.162,0,0,1,.236-.737,2,2,0,0,1,.448-.565,1.947,1.947,0,0,1,.616-.36,2.131,2.131,0,0,1,.736-.126,2.57,2.57,0,0,1,.711.093,1.252,1.252,0,0,1,.558.331l-.5.448a.91.91,0,0,0-.358-.243,1.3,1.3,0,0,0-.477-.086,1.257,1.257,0,0,0-.489.094,1.319,1.319,0,0,0-.4.257,1.412,1.412,0,0,0-.291.384,1.526,1.526,0,0,0-.136.973.977.977,0,0,0,.179.4.9.9,0,0,0,.329.262,1.071,1.071,0,0,0,.462.095,2.158,2.158,0,0,0,.439-.043,1.344,1.344,0,0,0,.377-.133l.115-.8h-.692l.076-.544h1.293Z"/><path class="cls-9" d="M88.727,47.619h.6L88.855,51h-.6Z"/><path class="cls-9" d="M90.544,47.619h.8l1.283,2.509h.009l.353-2.509h.6L93.115,51h-.763l-1.307-2.59h-.009L90.673,51h-.6Z"/><path class="cls-9" d="M94.817,47.619h2.237l-.076.544H95.342l-.114.83h1.549l-.076.544h-1.55l-.129.915h1.722L96.668,51H94.345Z"/><path class="cls-9" d="M98.208,47.619h2.237l-.076.544H98.733l-.114.83h1.549l-.076.544h-1.55l-.128.915h1.721l-.076.544H97.736Z"/><path class="cls-9" d="M101.6,47.619h1.173a2.264,2.264,0,0,1,.465.046,1.034,1.034,0,0,1,.382.155.669.669,0,0,1,.239.3.87.87,0,0,1,.036.472,1.125,1.125,0,0,1-.1.339,1.008,1.008,0,0,1-.192.277.99.99,0,0,1-.274.2,1.261,1.261,0,0,1-.348.1L103.677,51h-.725l-.581-1.43h-.439l-.2,1.43h-.6Zm.864,1.431q.129,0,.261-.012a.864.864,0,0,0,.243-.057.505.505,0,0,0,.193-.138.5.5,0,0,0,.105-.26.4.4,0,0,0-.031-.239.33.33,0,0,0-.143-.136.654.654,0,0,0-.213-.059,1.858,1.858,0,0,0-.233-.015h-.52L102,49.05Z"/><path class="cls-9" d="M105.066,47.619h.6L105.2,51h-.6Z"/><path class="cls-9" d="M106.884,47.619h.8l1.283,2.509h.01l.353-2.509h.6L109.454,51h-.763l-1.307-2.59h-.009L107.012,51h-.6Z"/><path class="cls-9" d="M113.718,50.748a3.217,3.217,0,0,1-1.445.334,1.848,1.848,0,0,1-.7-.126,1.341,1.341,0,0,1-.513-.358,1.37,1.37,0,0,1-.29-.556,1.746,1.746,0,0,1-.032-.72,2.163,2.163,0,0,1,.237-.737,1.982,1.982,0,0,1,.448-.565,1.953,1.953,0,0,1,.615-.36,2.137,2.137,0,0,1,.737-.126,2.568,2.568,0,0,1,.71.093,1.241,1.241,0,0,1,.558.331l-.5.448a.9.9,0,0,0-.358-.243,1.3,1.3,0,0,0-.477-.086,1.257,1.257,0,0,0-.489.094,1.3,1.3,0,0,0-.4.257,1.412,1.412,0,0,0-.291.384,1.526,1.526,0,0,0-.136.973.989.989,0,0,0,.178.4.9.9,0,0,0,.33.262,1.068,1.068,0,0,0,.462.095,2.158,2.158,0,0,0,.439-.043,1.344,1.344,0,0,0,.377-.133l.114-.8h-.691l.076-.544h1.292Z"/><path class="cls-9" d="M117.233,47.619h2.237l-.076.544h-1.636l-.114.83h1.549l-.076.544h-1.55l-.129.915h1.722l-.076.544h-2.323Z"/><path class="cls-9" d="M120.624,47.619h1.331a1.912,1.912,0,0,1,.629.1,1.31,1.31,0,0,1,.5.312,1.28,1.28,0,0,1,.307.528,1.677,1.677,0,0,1,.039.746,1.811,1.811,0,0,1-.272.751,2.023,2.023,0,0,1-.5.524,2.113,2.113,0,0,1-.618.311,2.162,2.162,0,0,1-.637.1h-1.259Zm.654,2.833a2.216,2.216,0,0,0,.539-.064,1.491,1.491,0,0,0,.462-.2,1.2,1.2,0,0,0,.344-.353,1.31,1.31,0,0,0,.181-.527,1.279,1.279,0,0,0-.021-.525.757.757,0,0,0-.215-.355.926.926,0,0,0-.372-.2,1.785,1.785,0,0,0-.5-.065h-.548l-.319,2.289Z"/><path class="cls-9" d="M127.125,49.756a1.55,1.55,0,0,1-.182.551,1.463,1.463,0,0,1-.345.417,1.533,1.533,0,0,1-.468.265,1.621,1.621,0,0,1-.55.093,1.425,1.425,0,0,1-.527-.093,1.035,1.035,0,0,1-.394-.265.993.993,0,0,1-.226-.417,1.315,1.315,0,0,1-.027-.551l.3-2.137h.6l-.3,2.118a.871.871,0,0,0,0,.26.618.618,0,0,0,.091.25.537.537,0,0,0,.207.189.737.737,0,0,0,.351.074.872.872,0,0,0,.372-.074.793.793,0,0,0,.259-.189.879.879,0,0,0,.16-.25,1.132,1.132,0,0,0,.077-.26l.3-2.118h.6Z"/><path class="cls-9" d="M130.85,48.411a.862.862,0,0,0-.325-.267.891.891,0,0,0-.339-.067,1.255,1.255,0,0,0-.488.094,1.319,1.319,0,0,0-.4.257,1.49,1.49,0,0,0-.427,1.357.977.977,0,0,0,.179.4.9.9,0,0,0,.329.262,1.071,1.071,0,0,0,.462.095.951.951,0,0,0,.411-.1,1.393,1.393,0,0,0,.405-.313l.449.353a1.7,1.7,0,0,1-.625.458,1.888,1.888,0,0,1-.721.143,1.851,1.851,0,0,1-.7-.126,1.356,1.356,0,0,1-.513-.358,1.382,1.382,0,0,1-.29-.556,1.764,1.764,0,0,1-.031-.72,2.162,2.162,0,0,1,.236-.737,2,2,0,0,1,.448-.565,1.953,1.953,0,0,1,.615-.36,2.141,2.141,0,0,1,.737-.126,1.511,1.511,0,0,1,.618.121,1.236,1.236,0,0,1,.489.413Z"/><path class="cls-9" d="M133.478,47.619H134L134.98,51h-.687l-.21-.772h-1.464l-.41.772h-.672Zm.467,2.089-.324-1.373-.725,1.373Z"/><path class="cls-9" d="M136.482,48.163h-1.035l.076-.544h2.671l-.076.544h-1.035l-.4,2.833h-.6Z"/><path class="cls-9" d="M139.067,47.619h.6L139.2,51h-.6Z"/><path class="cls-9" d="M140.465,49.322a2.184,2.184,0,0,1,.236-.737,2,2,0,0,1,.448-.565,1.947,1.947,0,0,1,.616-.36,2.131,2.131,0,0,1,.736-.126,1.86,1.86,0,0,1,.708.116,1.3,1.3,0,0,1,.518.356,1.353,1.353,0,0,1,.291.562,1.875,1.875,0,0,1,.029.735,2.14,2.14,0,0,1-.234.72,1.985,1.985,0,0,1-.448.558,2.058,2.058,0,0,1-.62.365,2.175,2.175,0,0,1-.745.136,1.851,1.851,0,0,1-.7-.126,1.345,1.345,0,0,1-.512-.358,1.383,1.383,0,0,1-.291-.556A1.764,1.764,0,0,1,140.465,49.322Zm.634-.038a1.436,1.436,0,0,0,.012.5.991.991,0,0,0,.179.4.9.9,0,0,0,.329.262,1.072,1.072,0,0,0,.463.095,1.278,1.278,0,0,0,.491-.095,1.325,1.325,0,0,0,.405-.262,1.418,1.418,0,0,0,.292-.4,1.642,1.642,0,0,0,.152-.5,1.342,1.342,0,0,0-.017-.472.97.97,0,0,0-.178-.384.877.877,0,0,0-.332-.257,1.091,1.091,0,0,0-.465-.094,1.257,1.257,0,0,0-.489.094,1.319,1.319,0,0,0-.4.257,1.412,1.412,0,0,0-.291.384A1.43,1.43,0,0,0,141.1,49.284Z"/><path class="cls-9" d="M145.334,47.619h.8l1.283,2.509h.009l.353-2.509h.6L147.905,51h-.763l-1.307-2.59h-.009L145.463,51h-.6Z"/></g></g></svg>