<?xml version="1.0" encoding="utf-8"?>
<!-- Generator: Adobe Illustrator 24.2.1, SVG Export Plug-In . SVG Version: 6.00 Build 0)  -->
<svg version="1.1" id="레이어_1" xmlns="http://www.w3.org/2000/svg" xmlns:xlink="http://www.w3.org/1999/xlink" x="0px"
	 y="0px" viewBox="0 0 210 297" style="enable-background:new 0 0 210 297;" xml:space="preserve">
<style type="text/css">
	.st0{fill:#FFFFFF;}
	.st1{fill:none;}
	.st2{fill:#76777A;}
	.st3{fill:url(#SVGID_1_);}
	.st4{fill:url(#SVGID_2_);}
	.st5{fill:url(#SVGID_3_);}
	.st6{fill:url(#SVGID_4_);}
	.st7{fill:url(#SVGID_5_);}
	.st8{fill:#003B71;}
</style>
<g>
	<g>
		<path class="st0" d="M71.97,145.12c0,12-9.73,21.73-21.72,21.73c-12,0-21.73-9.73-21.73-21.73c0-12,9.73-21.73,21.73-21.73
			C62.24,123.39,71.97,133.12,71.97,145.12z"/>
		<path class="st1" d="M71.03,145.12c0,11.48-9.31,20.79-20.79,20.79c-11.48,0-20.79-9.31-20.79-20.79
			c0-11.48,9.31-20.79,20.79-20.79C61.72,124.33,71.03,133.64,71.03,145.12z"/>
		<path class="st1" d="M66.43,145.12c0,8.94-7.25,16.18-16.18,16.18c-8.94,0-16.18-7.25-16.18-16.18c0-8.94,7.24-16.18,16.18-16.18
			C59.18,128.94,66.43,136.18,66.43,145.12z"/>
		<path class="st1" d="M63.46,144.91c0,7.26-5.88,13.14-13.14,13.14c-7.26,0-13.14-5.88-13.14-13.14c0-7.26,5.88-13.14,13.14-13.14
			C57.58,131.77,63.46,137.65,63.46,144.91z"/>
		<g>
			<g>
				<path class="st2" d="M63.51,157.15c0,0-0.34,0.35-0.38,0.4c0.05,0.04,0.8,0.77,0.8,0.77l-0.43,0.45c0,0-0.76-0.72-0.8-0.77
					c-0.04,0.04-0.36,0.38-0.4,0.42c0.04,0.04,0.8,0.77,0.8,0.77s-0.53,0.55-0.57,0.6c0.04,0.04,0.33,0.32,0.37,0.36
					c0.04-0.05,2.74-2.87,2.78-2.91c-0.04-0.04-0.33-0.32-0.37-0.36c-0.04,0.05-0.98,1.02-0.98,1.02s-0.76-0.72-0.8-0.77
					C63.53,157.13,63.51,157.15,63.51,157.15z"/>
				<path class="st2" d="M64.65,156.72c-0.05-0.04-1.61-1.53-1.65-1.58c-0.01,0.01-0.03,0.03-0.03,0.03s-2.34,2.45-2.38,2.5
					c0.04,0.04,0.33,0.32,0.37,0.36c0.05-0.05,2.01-2.1,2.01-2.1s1.23,1.18,1.28,1.22L64.65,156.72z"/>
			</g>
			<path class="st2" d="M36.06,157.91c-0.41,0.38-0.4,1.06,0.03,1.52c0.43,0.46,1.1,0.52,1.51,0.13c0.41-0.38,0.4-1.06-0.03-1.52
				C37.15,157.59,36.47,157.53,36.06,157.91z M36.43,158.3c0.22-0.2,0.58-0.17,0.8,0.07c0.22,0.24,0.23,0.6,0.01,0.81
				c-0.22,0.2-0.58,0.17-0.81-0.07C36.22,158.87,36.22,158.51,36.43,158.3z"/>
			<path class="st2" d="M39.8,157.48c0,0-0.32-0.34-0.36-0.38c-0.04,0.04-0.47,0.44-0.47,0.44s-0.41-0.44-0.45-0.49
				c-0.04,0.04-0.32,0.3-0.36,0.34c0.04,0.04,0.45,0.49,0.45,0.49s-0.57,0.53-0.61,0.57c0.04,0.04,0.35,0.37,0.38,0.41
				c0.05-0.04,1.4-1.31,1.45-1.35C39.81,157.5,39.8,157.48,39.8,157.48z"/>
			<path class="st2" d="M38.09,155.63c0,0-2.06,0.08-2.13,0.09c0,0.06,0.03,0.51,0.04,0.56c0.06,0,1.52-0.09,1.52-0.09
				s-0.18,1.37-0.19,1.43c0.05,0.01,0.5,0.07,0.56,0.08c0.01-0.06,0.23-2,0.24-2.08C38.11,155.63,38.09,155.63,38.09,155.63z"/>
			<path class="st2" d="M54.97,164.36l0.56-0.1l-0.63-3.68c-0.02,0-0.04,0.01-0.04,0.01s-0.46,0.08-0.52,0.09
				c0.01,0.06,0.19,1.13,0.19,1.13l-0.33,0.06c0,0-0.18-1.07-0.19-1.13l-0.56,0.1l0.4,2.34c-0.44,0.07-1.77,0.3-1.77,0.3l-0.31-1.8
				c0,0,1.25-0.21,1.31-0.22l-0.08-0.47c0,0,0,0-0.01,0l-1.85,0.32c0.12,0.66,0.46,2.71,0.47,2.76l2.32-0.4l0.15,0.85l0.56-0.1
				c-0.01-0.06-0.35-2.06-0.35-2.06l0.33-0.06C54.62,162.31,54.96,164.3,54.97,164.36z"/>
			<path class="st2" d="M43.61,161.52c0,0-0.06-0.03-0.17-0.09l0.69-1.3c-0.02-0.01-0.03-0.02-0.03-0.02s-2.92-1.56-2.97-1.59
				l-0.24,0.45c0.05,0.03,2.5,1.33,2.5,1.33s-0.28,0.52-0.46,0.85l-2.73-1.45l-0.24,0.45c0.05,0.03,1.07,0.57,1.07,0.57
				s-0.29,0.54-0.31,0.59l0.51,0.27c0.03-0.05,0.31-0.59,0.31-0.59l0.45,0.24c0,0-0.28,0.54-0.31,0.59l0.51,0.27
				c0.03-0.05,0.32-0.59,0.32-0.59s0.83,0.44,0.89,0.47l0.24-0.45C43.63,161.53,43.61,161.52,43.61,161.52z M40.54,160.84
				l-0.51-0.27l-0.62,1.17l3.07,1.64l0.24-0.45c-0.06-0.03-2.56-1.37-2.56-1.37S40.51,160.9,40.54,160.84z"/>
			<path class="st2" d="M46.03,163.12c-0.02,0-0.04-0.01-0.04-0.01s-0.47-0.07-0.53-0.08l-0.21,1.31l3.46,0.55l0.08-0.5
				c-0.06-0.01-2.89-0.46-2.89-0.46S46.02,163.18,46.03,163.12z M49.17,161.85c0,0,0.09-0.59,0.1-0.64c-0.02,0-0.04,0-0.04,0
				s-0.47-0.07-0.53-0.08l-0.24,1.52l-0.57-0.09l0.23-1.46c-0.02,0-0.04-0.01-0.04-0.01s-2.3-0.36-2.36-0.37l-0.08,0.5
				c0.06,0.01,1.83,0.29,1.83,0.29s-0.1,0.66-0.15,0.96c-0.32-0.05-0.57-0.09-0.57-0.09s0.07-0.48,0.08-0.53c-0.02,0-0.04,0-0.04,0
				s-0.48-0.08-0.54-0.09c-0.01,0.06-0.09,0.53-0.09,0.53s-0.81-0.13-0.87-0.14l-0.08,0.5l3.15,0.5l-0.09,0.58l0.56,0.09
				c0.01-0.06,0.23-1.47,0.23-1.47s0.52,0.08,0.58,0.09l0.08-0.5C49.69,161.93,49.17,161.85,49.17,161.85z"/>
			<path class="st2" d="M59.38,158.39c0,0-0.41,0.23-0.46,0.25c0.03,0.05,1.03,1.87,1.06,1.92c0.05-0.03,0.44-0.25,0.49-0.27
				c-0.03-0.05-0.51-0.93-0.51-0.93s0.45-0.25,0.5-0.28c-0.02-0.05-0.21-0.39-0.24-0.43c-0.05,0.03-0.5,0.28-0.5,0.28
				s-0.28-0.51-0.31-0.56C59.39,158.38,59.38,158.39,59.38,158.39z"/>
			<path class="st2" d="M60.56,160.54c0,0-3.02,1.67-3.07,1.7c0.03,0.05,0.22,0.39,0.24,0.44c0.05-0.03,2.61-1.44,2.61-1.44
				s0.34,0.62,0.37,0.67c0.05-0.03,0.44-0.25,0.49-0.27c-0.03-0.05-0.58-1.06-0.61-1.11C60.58,160.53,60.56,160.54,60.56,160.54z"/>
			<path class="st2" d="M58.44,158.98l-0.92,0.51c0,0,0,0,0,0l-0.17-0.3l-0.5,0.28l0.17,0.3l-0.93,0.52l0.23,0.42l0.34-0.19
				c-0.01,0.2,0.02,0.4,0.12,0.58c0.29,0.52,0.98,0.7,1.53,0.39c0.55-0.31,0.77-0.98,0.48-1.5c-0.1-0.18-0.25-0.32-0.43-0.42
				l0.31-0.17L58.44,158.98z M58.06,161.01c-0.26,0.15-0.59,0.06-0.73-0.19c-0.14-0.25-0.04-0.57,0.23-0.72
				c0.26-0.15,0.59-0.06,0.73,0.19C58.42,160.54,58.32,160.86,58.06,161.01z"/>
		</g>
		<g>
			<path class="st2" d="M69.6,146.65l-0.43-0.27c0.45-0.21,0.47-0.66,0.47-0.66c0.02-0.35-0.19-0.61-0.49-0.61
				c-0.4,0-0.55,0.36-0.72,0.76c-0.18,0.44-0.47,0.9-1.03,0.93c-0.68,0.04-1.13-0.56-1.1-1.38c0.03-0.8,0.59-1.18,0.59-1.18
				l0.51,0.23c0,0-0.72,0.24-0.76,1.1c-0.02,0.38,0.26,0.68,0.63,0.68c0.4,0,0.54-0.34,0.71-0.74c0.18-0.44,0.39-0.95,1.03-0.95
				c0.62,0,1,0.49,0.96,1.26C69.98,145.81,69.97,146.3,69.6,146.65z"/>
			<path class="st2" d="M32.17,152.21l0.51,0.06c-0.32,0.39-0.13,0.8-0.13,0.8c0.14,0.33,0.44,0.47,0.71,0.33
				c0.36-0.18,0.34-0.56,0.31-1c-0.03-0.48,0.02-1.01,0.51-1.29c0.59-0.33,1.27,0.01,1.59,0.76c0.32,0.74-0.01,1.32-0.01,1.32
				l-0.56,0.01c0,0,0.54-0.52,0.21-1.32c-0.15-0.35-0.53-0.5-0.87-0.33c-0.36,0.18-0.34,0.55-0.31,0.98
				c0.03,0.48,0.06,1.03-0.51,1.31c-0.56,0.28-1.12,0-1.41-0.71C32.2,153.13,31.99,152.68,32.17,152.21z"/>
			<path class="st2" d="M31.64,139.55l-0.04,0.04c-0.07,0.07-0.44,0.45-0.6,1.22c-0.24,1.17,0.3,2.05,1.38,2.27
				c1.1,0.23,1.9-0.32,2.14-1.46c0.09-0.45,0.11-0.91,0.05-1.37l-0.01-0.04l-1.34-0.28l-0.12,0.55l1.13,0.23
				c0.07,0.26,0.04,0.53,0,0.72c-0.19,0.89-0.81,1.27-1.77,1.07c-0.89-0.19-1.35-0.77-1.18-1.59c0.09-0.41,0.36-0.81,0.69-1
				l0.02-0.01L31.64,139.55z"/>
			<path class="st2" d="M35.03,132.57l-0.31,0.45l0.79,1.66l-1.83-0.18l-0.4,0.57l2.38,0.14c0.03,0.02,1.19,0.84,1.19,0.84
				l0.32-0.45c0,0-1.2-0.84-1.23-0.86L35.03,132.57z"/>
			<path class="st2" d="M67.61,154.47l0.22-0.5l-1.1-1.47l1.83-0.18l0.28-0.63l-2.36,0.33c-0.03-0.01-1.33-0.59-1.33-0.59
				l-0.22,0.51c0,0,1.34,0.59,1.37,0.61L67.61,154.47z"/>
			<path class="st2" d="M33.93,137.44l-0.74-2.16l-0.25,0.51l0.69,2.03c-0.09-0.05-1.36-0.67-1.36-0.67l-0.25,0.5l3.13,1.54
				l0.25-0.5l-1.52-0.75l2.14-0.52l0.31-0.63L33.93,137.44z"/>
			<path class="st2" d="M44.38,128.07l1.03-2.03l-0.54,0.17l-0.97,1.91c-0.03-0.1-0.47-1.45-0.47-1.45l-0.53,0.17l1.08,3.32
				l0.53-0.17l-0.52-1.61l1.87,1.17l0.67-0.22L44.38,128.07z"/>
			<polygon class="st2" points="47.29,129.17 47.71,129.13 48.37,126.37 49.49,128.95 49.97,128.91 50.78,125.32 50.3,125.37 
				49.64,128.2 48.49,125.55 48.17,125.58 47.52,128.41 46.42,125.75 45.83,125.81 			"/>
			<path class="st2" d="M52.71,125.58l-0.24-0.03l-1.91,3.32l0.48,0.06l0.71-1.25l1.07,0.13l0.37,1.38l0.65,0.08L52.71,125.58z
				 M52.43,126.35c0.06,0.2,0.24,0.99,0.28,1.13l-0.85-0.1L52.43,126.35z"/>
			
				<rect x="63.34" y="134.82" transform="matrix(0.8287 -0.5597 0.5597 0.8287 -64.4677 59.5726)" class="st2" width="3.49" height="0.55"/>
			
				<rect x="67.64" y="146.23" transform="matrix(0.1595 -0.9872 0.9872 0.1595 -88.9882 191.4261)" class="st2" width="0.55" height="3.49"/>
			<path class="st2" d="M61.16,131.14c-0.49,0.71-1,0.82-1.55,0.45c-0.62-0.42-0.64-0.85-0.12-1.6l1.1-1.6l-0.46-0.31l-1.13,1.65
				c-0.24,0.36-0.46,0.76-0.36,1.18c0.09,0.36,0.33,0.67,0.73,0.95c0.77,0.53,1.49,0.4,2.03-0.39l1.17-1.71l-0.33-0.23L61.16,131.14
				z"/>
			<path class="st2" d="M38.63,131.71c0.6,0.62,0.61,1.14,0.14,1.6c-0.54,0.52-0.95,0.46-1.59-0.19l-1.36-1.39l-0.4,0.39l1.4,1.42
				c0.3,0.3,0.66,0.6,1.09,0.58c0.37-0.02,0.73-0.19,1.08-0.54c0.67-0.66,0.68-1.39,0.01-2.07l-1.45-1.48l-0.28,0.28L38.63,131.71z"
				/>
			<path class="st2" d="M32.77,148.16c0.84-0.2,1.29,0.06,1.45,0.7c0.17,0.73-0.1,1.06-0.98,1.27l-1.89,0.45l0.13,0.54l1.94-0.46
				c0.42-0.1,0.85-0.26,1.06-0.63c0.18-0.32,0.23-0.73,0.11-1.2c-0.22-0.91-0.86-1.3-1.79-1.08l-2.02,0.48l0.09,0.39L32.77,148.16z"
				/>
			<polygon class="st2" points="64.58,137.61 64.72,137.89 68.49,137.6 68.26,137.15 65.29,137.44 67.26,135.2 66.97,134.65 			"/>
			<path class="st2" d="M65.92,139.75c0.1-0.03,1.12-0.35,1.22-0.38l0.37,1.15l0.34-0.11l-0.36-1.15c0.1-0.03,1-0.32,1.1-0.35
				l0.4,1.26l0.29-0.09l-0.56-1.78l-3.33,1.05l0.57,1.81l0.39-0.12L65.92,139.75z"/>
			<path class="st2" d="M69.53,149.17l-0.28-0.08l-0.29,1.04c-0.11-0.03-3.08-0.87-3.08-0.87l-0.15,0.53l3.08,0.87l-0.28,1
				l0.28,0.08L69.53,149.17z"/>
			<path class="st2" d="M66.09,141.7l0.07,0.55l1.68-0.22l-1.49,1.71l0.08,0.59l1.49-1.7c0.1,0.57,0.56,1.02,1.06,0.95
				c0.57-0.07,0.82-0.47,0.71-1.24l-0.14-1.09L66.09,141.7z M68.17,141.99c0.1-0.01,1.05-0.14,1.15-0.15l0.07,0.52
				c0.06,0.44-0.17,0.65-0.49,0.68c-0.33,0.03-0.59-0.11-0.67-0.6L68.17,141.99z"/>
			<path class="st2" d="M41.07,127.68l-0.34,0.21l1.33,2.1c-1.23-0.32-3.36-0.81-3.36-0.81l-0.24,0.15l1.86,2.95l0.34-0.21
				c0,0-0.77-1.23-1.4-2.21l3.47,0.89l0.2-0.13L41.07,127.68z"/>
			<path class="st2" d="M30.56,143.92l0.01,0.4l2.48-0.05c-0.91,0.88-2.43,2.46-2.43,2.46l0,0.28l3.49-0.07l-0.01-0.4
				c0,0-1.45,0.03-2.61,0.05l2.56-2.5l-0.01-0.24L30.56,143.92z"/>
			<path class="st2" d="M57.96,126.98l-0.38-0.13l-0.79,2.35c-0.52-1.15-1.49-3.12-1.49-3.12L55.03,126l-1.11,3.3l0.38,0.13
				c0,0,0.46-1.38,0.83-2.48l1.49,3.26l0.23,0.08L57.96,126.98z"/>
			<path class="st2" d="M65.68,132.87l-0.27-0.29l-1.82,1.69c0.09-1.26,0.18-3.45,0.18-3.45l-0.19-0.21l-2.56,2.37l0.27,0.29
				c0,0,1.06-0.99,1.91-1.78l-0.25,3.57l0.16,0.18L65.68,132.87z"/>
		</g>
		<g>
			<g>
				<linearGradient id="SVGID_1_" gradientUnits="userSpaceOnUse" x1="52.8918" y1="145.3087" x2="43.3722" y2="139.9238">
					<stop  offset="0" style="stop-color:#FFFFFF"/>
					<stop  offset="0.2" style="stop-color:#E8EC8F"/>
					<stop  offset="0.76" style="stop-color:#ABCD05"/>
					<stop  offset="1" style="stop-color:#8FC31F"/>
				</linearGradient>
				<path class="st3" d="M51.5,140.76c0-2.85,2.3-5.16,5.14-5.16c0.69,0,1.34,0.14,1.94,0.38c-4.55-4.2-11.64-4.09-16.06,0.33
					c-4.28,4.28-4.51,11.07-0.7,15.63c0.99-1.29,2.34-2.79,4-3.96c1.3-0.91,3.1-1.82,4.54-1.96c1.37-0.13,3.41,0,4.64,0.6
					c-0.97-0.99-1.98-2.1-2.48-2.76C51.88,143,51.5,141.93,51.5,140.76z"/>
				<linearGradient id="SVGID_2_" gradientUnits="userSpaceOnUse" x1="52.0982" y1="141.7664" x2="43.2209" y2="135.8291">
					<stop  offset="0" style="stop-color:#E6EB91"/>
					<stop  offset="0.0209" style="stop-color:#E1E888"/>
					<stop  offset="0.0907" style="stop-color:#D3E16E"/>
					<stop  offset="0.1527" style="stop-color:#CADD5E"/>
					<stop  offset="0.2" style="stop-color:#C7DB59"/>
					<stop  offset="0.4" style="stop-color:#A3C911"/>
					<stop  offset="0.7027" style="stop-color:#84BC26"/>
					<stop  offset="1" style="stop-color:#66B230"/>
				</linearGradient>
				<path class="st4" d="M51.14,144.53l-5.44-10.47c-1,0.48-1.95,1.12-2.81,1.91l8.21,8.55L51.14,144.53z"/>
				<linearGradient id="SVGID_3_" gradientUnits="userSpaceOnUse" x1="53.3089" y1="139.957" x2="44.4311" y2="134.0193">
					<stop  offset="0" style="stop-color:#E6EB91"/>
					<stop  offset="0.0209" style="stop-color:#E1E888"/>
					<stop  offset="0.0907" style="stop-color:#D3E16E"/>
					<stop  offset="0.1527" style="stop-color:#CADD5E"/>
					<stop  offset="0.2" style="stop-color:#C7DB59"/>
					<stop  offset="0.4" style="stop-color:#A3C911"/>
					<stop  offset="0.7027" style="stop-color:#84BC26"/>
					<stop  offset="1" style="stop-color:#66B230"/>
				</linearGradient>
				<path class="st5" d="M51.16,144.55l0.72-11.57c-0.94-0.09-1.89-0.07-2.83,0.06l2.1,11.5L51.16,144.55z"/>
				<linearGradient id="SVGID_4_" gradientUnits="userSpaceOnUse" x1="48.9254" y1="146.5105" x2="40.0481" y2="140.573">
					<stop  offset="0" style="stop-color:#E6EB91"/>
					<stop  offset="0.0209" style="stop-color:#E1E888"/>
					<stop  offset="0.0907" style="stop-color:#D3E16E"/>
					<stop  offset="0.1527" style="stop-color:#CADD5E"/>
					<stop  offset="0.2" style="stop-color:#C7DB59"/>
					<stop  offset="0.4" style="stop-color:#A3C911"/>
					<stop  offset="0.7027" style="stop-color:#84BC26"/>
					<stop  offset="1" style="stop-color:#66B230"/>
				</linearGradient>
				<path class="st6" d="M51.1,144.52l-11.2-4.16c-0.38,0.99-0.62,2.03-0.72,3.08l11.95,1.11L51.1,144.52z"/>
				<linearGradient id="SVGID_5_" gradientUnits="userSpaceOnUse" x1="47.8322" y1="148.1452" x2="38.954" y2="142.2072">
					<stop  offset="0" style="stop-color:#E6EB91"/>
					<stop  offset="0.0209" style="stop-color:#E1E888"/>
					<stop  offset="0.0907" style="stop-color:#D3E16E"/>
					<stop  offset="0.1527" style="stop-color:#CADD5E"/>
					<stop  offset="0.2" style="stop-color:#C7DB59"/>
					<stop  offset="0.4" style="stop-color:#A3C911"/>
					<stop  offset="0.7027" style="stop-color:#84BC26"/>
					<stop  offset="1" style="stop-color:#66B230"/>
				</linearGradient>
				<path class="st7" d="M39.25,146.18c0.12,0.81,0.32,1.61,0.61,2.38l11.24-3.98L39.25,146.18z"/>
				<path class="st8" d="M41.61,154.78c-0.34-0.29-0.91-0.84-1.43-1.51c-2.37-2.66-5.07-9.62-0.57-15.94
					c1.86-2.61,4.52-4.36,7.17-5.07c6.17-1.66,10.92,1.26,13.09,3.61c0.24,0.26,0.21,0.6,0.02,0.75c-0.27,0.23-0.51,0.11-1.05-0.05
					c-0.85-0.24-1.58-0.3-2.36-0.2c-1.81,0.23-3.39,1.91-3.17,4.26c0.2,2.14,1.85,3.69,3.01,4.72c4.08,3.59,2.71,7.44,2.38,8.29
					c-1.13,2.87-4.02,4.9-7.76,4.9c-1.56,0-3.81-0.4-6.07-1.84c-0.09-0.04-0.17-0.16-0.07-0.35c0.17-0.44,0.89-1.71,1.21-2.08
					c1.12,1.3,3.02,2.52,5.13,2.6c2.88,0.11,4.73-1.45,5.41-3.43c0.76-2.22-0.05-4.49-2.2-6.53c-1.85-1.76-3.51-3.39-3.61-6.18
					c-0.12-3.58,2.99-5.7,5.89-5.56c0.09,0-4-2.95-9.25-1.19c-2.57,0.86-4.11,2.38-4.84,3.24c-0.11,0.13-0.04,0.24,0,0.29
					c0.08,0.12,1.87,2.61,1.87,2.61l-3.22-0.74c0,0-0.14-0.03-0.2,0.08c-1.02,1.76-2.53,6.86,0.83,11.51c0,0,2.87-4.54,8.56-4.93
					c0.38-0.03,0.33,0.11,0.08,0.2c-5.09,1.87-7.09,5.6-8.39,8.48C41.99,154.88,41.78,154.93,41.61,154.78z"/>
			</g>
			<g>
				<path class="st2" d="M46.85,151.27c0,0,0.32-0.14,0.41-0.19l0,2.21h0.4v-2.59l-0.06-0.04l-0.02,0.01
					c-0.29,0.14-0.59,0.28-0.84,0.38L46.85,151.27z"/>
				<path class="st2" d="M48.97,151.99c0.32,0,0.48,0.17,0.48,0.51c0,0.35-0.22,0.58-0.56,0.58c-0.24,0-0.41-0.16-0.47-0.23
					l-0.05-0.06l-0.1,0.34l0.03,0.02c0.14,0.07,0.31,0.13,0.58,0.13c0.57,0,0.98-0.35,0.98-0.82c0-0.44-0.34-0.56-0.55-0.6
					c0.23-0.1,0.43-0.3,0.43-0.61c0-0.37-0.29-0.59-0.75-0.59c-0.39,0-0.59,0.25-0.59,0.25l0.17,0.3l0.03-0.08
					c0.05-0.13,0.19-0.27,0.38-0.27c0.16,0,0.36,0.11,0.36,0.42c0,0.24-0.07,0.52-0.38,0.52l-0.21-0.02l0,0.24
					C48.76,152.02,48.88,151.99,48.97,151.99z"/>
				<path class="st2" d="M50.42,152.76l0.1,0.42c0,0,0.17,0.1,0.4,0.1c0.66,0,1.13-0.63,1.13-1.52c0-1-0.61-1.1-0.87-1.1
					c-0.51,0-0.86,0.34-0.86,0.83c0,0.48,0.29,0.78,0.76,0.78c0.24,0,0.42-0.09,0.56-0.27c-0.03,0.56-0.25,1.07-0.7,1.07
					C50.57,153.06,50.42,152.76,50.42,152.76z M51.14,152.04c-0.28,0-0.42-0.18-0.42-0.56c0-0.38,0.18-0.63,0.45-0.63
					c0.27,0,0.45,0.22,0.45,0.54C51.63,151.71,51.46,152.04,51.14,152.04z"/>
				<path class="st2" d="M53.64,151.79c0.23-0.1,0.37-0.31,0.37-0.55c0-0.27-0.2-0.58-0.75-0.58c-0.42,0-0.73,0.27-0.73,0.63
					c0,0.27,0.18,0.45,0.38,0.52c-0.32,0.13-0.51,0.38-0.51,0.71c0,0.46,0.35,0.76,0.86,0.76c0.5,0,0.86-0.36,0.86-0.85
					C54.13,151.98,53.79,151.83,53.64,151.79z M52.91,151.29c0-0.1,0.03-0.43,0.36-0.43c0.33,0,0.36,0.3,0.36,0.43
					c0,0.1-0.03,0.43-0.36,0.43C52.94,151.72,52.91,151.39,52.91,151.29z M53.26,153.08c-0.27,0-0.46-0.23-0.46-0.58
					c0-0.35,0.19-0.58,0.46-0.58c0.28,0,0.46,0.23,0.46,0.58C53.72,152.85,53.54,153.08,53.26,153.08z"/>
			</g>
		</g>
	</g>
	<g>
		<path class="st8" d="M103.55,136.47c-0.63-0.88-1.44-1.56-2.42-2.04c-0.98-0.47-2.16-0.71-3.55-0.71c-1.39,0-2.71,0.27-3.98,0.81
			c-1.26,0.54-2.39,1.29-3.39,2.25c-0.99,0.96-1.83,2.11-2.51,3.43c-0.68,1.33-1.13,2.76-1.35,4.31c-0.22,1.58-0.18,3.02,0.12,4.33
			c0.3,1.31,0.8,2.45,1.52,3.41c0.71,0.96,1.61,1.71,2.7,2.25c1.09,0.54,2.3,0.81,3.62,0.81c1.52,0,2.9-0.32,4.17-0.95
			c1.26-0.63,2.35-1.52,3.27-2.65l5.49,4.59c-1.7,1.99-3.71,3.46-6.01,4.4c-2.3,0.95-4.61,1.42-6.91,1.42
			c-2.62,0-4.98-0.41-7.08-1.23c-2.1-0.82-3.84-2-5.23-3.53c-1.39-1.53-2.38-3.39-2.98-5.56c-0.6-2.18-0.71-4.61-0.33-7.29
			c0.38-2.68,1.18-5.11,2.39-7.29c1.21-2.18,2.73-4.03,4.55-5.56c1.81-1.53,3.89-2.71,6.23-3.53c2.34-0.82,4.81-1.23,7.43-1.23
			c0.95,0,1.92,0.09,2.91,0.26c0.99,0.17,1.97,0.45,2.91,0.83c0.95,0.38,1.84,0.88,2.68,1.52c0.84,0.63,1.54,1.4,2.11,2.32
			L103.55,136.47z"/>
		<path class="st8" d="M115.19,127.76h7.39l-4.69,33.52h-7.39L115.19,127.76z"/>
		<path class="st8" d="M129.59,127.76h22.77l-0.95,6.82h-15.39l-0.9,6.25h14.54l-0.95,6.82h-14.54l-0.95,6.82h16.24l-0.95,6.82
			H124.9L129.59,127.76z"/>
		<path class="st8" d="M159.42,127.76h22.77l-0.95,6.82h-15.39l-0.9,6.25h14.54l-0.95,6.82h-14.54l-0.95,6.82h16.24l-0.95,6.82
			h-23.63L159.42,127.76z"/>
	</g>
	<g>
		<path class="st8" d="M35.57,171.81c-0.11-0.13-0.22-0.22-0.32-0.27c-0.11-0.04-0.22-0.07-0.34-0.07c-0.17,0-0.34,0.03-0.49,0.09
			c-0.15,0.06-0.29,0.15-0.4,0.26c-0.12,0.11-0.21,0.24-0.29,0.38c-0.08,0.15-0.13,0.3-0.15,0.47c-0.03,0.18-0.02,0.35,0.01,0.5
			c0.03,0.15,0.09,0.28,0.18,0.4c0.09,0.11,0.2,0.2,0.33,0.26c0.13,0.06,0.29,0.1,0.46,0.1c0.14,0,0.27-0.03,0.41-0.1
			c0.14-0.07,0.27-0.17,0.41-0.31l0.45,0.35c-0.18,0.21-0.39,0.36-0.63,0.46c-0.23,0.1-0.47,0.14-0.72,0.14
			c-0.26,0-0.49-0.04-0.7-0.13c-0.21-0.08-0.38-0.2-0.51-0.36c-0.13-0.15-0.23-0.34-0.29-0.56c-0.06-0.22-0.07-0.46-0.03-0.72
			c0.04-0.27,0.12-0.52,0.24-0.74c0.12-0.22,0.27-0.41,0.45-0.56c0.18-0.16,0.38-0.28,0.62-0.36c0.23-0.08,0.48-0.13,0.74-0.13
			c0.23,0,0.43,0.04,0.62,0.12c0.18,0.08,0.35,0.22,0.49,0.41L35.57,171.81z"/>
		<path class="st8" d="M37.1,171.01h2.24l-0.08,0.54h-1.64l-0.11,0.83h1.55l-0.08,0.54h-1.55l-0.13,0.92h1.72l-0.08,0.54h-2.32
			L37.1,171.01z"/>
		<path class="st8" d="M40.49,171.01h0.8l1.28,2.51h0.01l0.35-2.51h0.6l-0.47,3.38H42.3l-1.31-2.59h-0.01l-0.36,2.59h-0.6
			L40.49,171.01z"/>
		<path class="st8" d="M45.38,171.56h-1.04l0.08-0.54h2.67l-0.08,0.54h-1.04l-0.4,2.83h-0.6L45.38,171.56z"/>
		<path class="st8" d="M47.98,171.01h2.24l-0.08,0.54H48.5l-0.11,0.83h1.55l-0.08,0.54h-1.55l-0.13,0.92h1.72l-0.08,0.54h-2.32
			L47.98,171.01z"/>
		<path class="st8" d="M51.37,171.01h1.17c0.16,0,0.32,0.02,0.46,0.05c0.15,0.03,0.28,0.08,0.38,0.16c0.11,0.07,0.19,0.17,0.24,0.3
			c0.05,0.12,0.06,0.28,0.04,0.47c-0.02,0.12-0.05,0.23-0.1,0.34c-0.05,0.1-0.11,0.2-0.19,0.28c-0.08,0.08-0.17,0.14-0.27,0.2
			c-0.1,0.05-0.22,0.09-0.35,0.1l0.69,1.49h-0.73l-0.58-1.43H51.7l-0.2,1.43h-0.6L51.37,171.01z M52.24,172.44
			c0.09,0,0.17,0,0.26-0.01c0.09-0.01,0.17-0.03,0.24-0.06c0.07-0.03,0.14-0.08,0.19-0.14c0.05-0.06,0.09-0.15,0.11-0.26
			c0.01-0.1,0-0.18-0.03-0.24c-0.03-0.06-0.08-0.11-0.14-0.14c-0.06-0.03-0.13-0.05-0.21-0.06c-0.08-0.01-0.16-0.01-0.23-0.01H51.9
			l-0.13,0.92H52.24z"/>
		<path class="st8" d="M56.74,171.01h2.18l-0.08,0.54h-1.58l-0.12,0.89h1.49l-0.08,0.54h-1.49l-0.2,1.4h-0.6L56.74,171.01z"/>
		<path class="st8" d="M59.54,172.72c0.04-0.27,0.12-0.52,0.24-0.74c0.12-0.22,0.27-0.41,0.45-0.56c0.18-0.16,0.38-0.28,0.62-0.36
			c0.23-0.08,0.48-0.13,0.74-0.13c0.26,0,0.5,0.04,0.71,0.12c0.21,0.08,0.38,0.2,0.52,0.36c0.14,0.16,0.23,0.34,0.29,0.56
			c0.06,0.22,0.07,0.46,0.03,0.73c-0.04,0.26-0.12,0.5-0.23,0.72c-0.12,0.22-0.27,0.4-0.45,0.56c-0.18,0.16-0.39,0.28-0.62,0.36
			c-0.23,0.09-0.48,0.13-0.74,0.14c-0.26,0-0.49-0.04-0.7-0.13c-0.21-0.08-0.38-0.2-0.51-0.36c-0.13-0.15-0.23-0.34-0.29-0.56
			C59.51,173.22,59.5,172.98,59.54,172.72z M60.17,172.68c-0.03,0.18-0.02,0.35,0.01,0.5c0.03,0.15,0.09,0.28,0.18,0.4
			c0.09,0.11,0.2,0.2,0.33,0.26c0.13,0.06,0.29,0.1,0.46,0.1c0.17,0,0.34-0.03,0.49-0.1c0.15-0.06,0.29-0.15,0.41-0.26
			c0.12-0.11,0.21-0.24,0.29-0.4c0.08-0.15,0.13-0.32,0.15-0.5c0.02-0.17,0.02-0.33-0.02-0.47c-0.03-0.15-0.09-0.27-0.18-0.38
			c-0.09-0.11-0.2-0.2-0.33-0.26c-0.14-0.06-0.29-0.09-0.47-0.09c-0.17,0-0.34,0.03-0.49,0.09c-0.15,0.06-0.29,0.15-0.4,0.26
			c-0.12,0.11-0.21,0.24-0.29,0.38C60.24,172.35,60.19,172.51,60.17,172.68z"/>
		<path class="st8" d="M64.41,171.01h1.17c0.16,0,0.32,0.02,0.46,0.05c0.15,0.03,0.28,0.08,0.38,0.16c0.11,0.07,0.19,0.17,0.24,0.3
			c0.05,0.12,0.06,0.28,0.04,0.47c-0.02,0.12-0.05,0.23-0.1,0.34c-0.05,0.1-0.11,0.2-0.19,0.28c-0.08,0.08-0.17,0.14-0.27,0.2
			c-0.11,0.05-0.22,0.09-0.35,0.1l0.69,1.49h-0.73l-0.58-1.43h-0.44l-0.2,1.43h-0.6L64.41,171.01z M65.27,172.44
			c0.09,0,0.17,0,0.26-0.01c0.09-0.01,0.17-0.03,0.24-0.06c0.07-0.03,0.14-0.08,0.19-0.14c0.05-0.06,0.09-0.15,0.1-0.26
			c0.01-0.1,0-0.18-0.03-0.24c-0.03-0.06-0.08-0.11-0.14-0.14c-0.06-0.03-0.13-0.05-0.21-0.06c-0.08-0.01-0.16-0.01-0.23-0.01h-0.52
			l-0.13,0.92H65.27z"/>
		<path class="st8" d="M69.76,171.01h0.6l-0.47,3.38h-0.6L69.76,171.01z"/>
		<path class="st8" d="M71.58,171.01h0.8l1.28,2.51h0.01l0.35-2.51h0.6l-0.47,3.38h-0.76l-1.31-2.59h-0.01l-0.36,2.59h-0.6
			L71.58,171.01z"/>
		<path class="st8" d="M75.85,171.01h0.8l1.28,2.51h0.01l0.35-2.51h0.6l-0.47,3.38h-0.76l-1.31-2.59h-0.01l-0.36,2.59h-0.6
			L75.85,171.01z"/>
		<path class="st8" d="M79.71,172.72c0.04-0.27,0.12-0.52,0.24-0.74c0.12-0.22,0.27-0.41,0.45-0.56c0.18-0.16,0.38-0.28,0.62-0.36
			c0.23-0.08,0.48-0.13,0.74-0.13c0.26,0,0.5,0.04,0.71,0.12c0.21,0.08,0.38,0.2,0.52,0.36c0.14,0.16,0.23,0.34,0.29,0.56
			c0.06,0.22,0.07,0.46,0.03,0.73c-0.04,0.26-0.12,0.5-0.23,0.72c-0.12,0.22-0.27,0.4-0.45,0.56c-0.18,0.16-0.39,0.28-0.62,0.36
			c-0.23,0.09-0.48,0.13-0.74,0.14c-0.26,0-0.49-0.04-0.7-0.13c-0.21-0.08-0.38-0.2-0.51-0.36c-0.13-0.15-0.23-0.34-0.29-0.56
			C79.68,173.22,79.67,172.98,79.71,172.72z M80.34,172.68c-0.03,0.18-0.02,0.35,0.01,0.5c0.03,0.15,0.09,0.28,0.18,0.4
			c0.09,0.11,0.2,0.2,0.33,0.26c0.13,0.06,0.29,0.1,0.46,0.1c0.17,0,0.34-0.03,0.49-0.1c0.15-0.06,0.29-0.15,0.41-0.26
			c0.12-0.11,0.21-0.24,0.29-0.4c0.08-0.15,0.13-0.32,0.15-0.5c0.02-0.17,0.02-0.33-0.02-0.47c-0.03-0.15-0.09-0.27-0.18-0.38
			c-0.09-0.11-0.2-0.2-0.33-0.26c-0.14-0.06-0.29-0.09-0.47-0.09c-0.17,0-0.34,0.03-0.49,0.09c-0.15,0.06-0.29,0.15-0.4,0.26
			c-0.12,0.11-0.21,0.24-0.29,0.38C80.41,172.35,80.36,172.51,80.34,172.68z"/>
		<path class="st8" d="M84.18,171.01h0.69l0.56,2.55l1.31-2.55h0.65l-1.84,3.38h-0.52L84.18,171.01z"/>
		<path class="st8" d="M89.06,171.01h0.52l0.98,3.38h-0.69l-0.21-0.77H88.2l-0.41,0.77h-0.67L89.06,171.01z M89.53,173.1l-0.32-1.37
			l-0.72,1.37H89.53z"/>
		<path class="st8" d="M92.07,171.56h-1.04l0.08-0.54h2.67l-0.08,0.54h-1.04l-0.4,2.83h-0.6L92.07,171.56z"/>
		<path class="st8" d="M94.65,171.01h0.6l-0.47,3.38h-0.6L94.65,171.01z"/>
		<path class="st8" d="M96.08,171.01h0.69l0.56,2.55l1.31-2.55h0.65l-1.84,3.38h-0.52L96.08,171.01z"/>
		<path class="st8" d="M100.13,171.01h2.24l-0.08,0.54h-1.64l-0.11,0.83h1.55l-0.08,0.54h-1.55l-0.13,0.92h1.72l-0.08,0.54h-2.32
			L100.13,171.01z"/>
		<path class="st8" d="M105.41,171.01h2.24l-0.08,0.54h-1.64l-0.11,0.83h1.55l-0.08,0.54h-1.55l-0.13,0.92h1.72l-0.08,0.54h-2.32
			L105.41,171.01z"/>
		<path class="st8" d="M108.8,171.01h0.8l1.28,2.51h0.01l0.35-2.51h0.6l-0.47,3.38h-0.76l-1.31-2.59h-0.01l-0.36,2.59h-0.6
			L108.8,171.01z"/>
		<path class="st8" d="M115.63,174.14c-0.45,0.22-0.93,0.33-1.45,0.33c-0.26,0-0.49-0.04-0.7-0.13c-0.21-0.08-0.38-0.2-0.51-0.36
			c-0.13-0.15-0.23-0.34-0.29-0.56c-0.06-0.22-0.07-0.46-0.03-0.72c0.04-0.27,0.12-0.52,0.24-0.74c0.12-0.22,0.27-0.41,0.45-0.56
			c0.18-0.16,0.38-0.28,0.62-0.36c0.23-0.08,0.48-0.13,0.74-0.13c0.26,0,0.49,0.03,0.71,0.09s0.4,0.17,0.56,0.33l-0.51,0.45
			c-0.09-0.1-0.21-0.19-0.36-0.24c-0.15-0.06-0.31-0.09-0.48-0.09c-0.17,0-0.34,0.03-0.49,0.09c-0.15,0.06-0.29,0.15-0.4,0.26
			c-0.12,0.11-0.21,0.24-0.29,0.38c-0.08,0.15-0.13,0.3-0.15,0.47c-0.03,0.18-0.02,0.35,0.01,0.5c0.03,0.15,0.09,0.28,0.18,0.4
			c0.09,0.11,0.2,0.2,0.33,0.26c0.13,0.06,0.29,0.1,0.46,0.1c0.15,0,0.3-0.01,0.44-0.04c0.14-0.03,0.27-0.07,0.38-0.13l0.11-0.8
			h-0.69l0.08-0.54h1.29L115.63,174.14z"/>
		<path class="st8" d="M117.24,171.01h0.6l-0.47,3.38h-0.6L117.24,171.01z"/>
		<path class="st8" d="M119.06,171.01h0.8l1.28,2.51h0.01l0.35-2.51h0.6l-0.47,3.38h-0.76l-1.31-2.59h-0.01l-0.36,2.59h-0.6
			L119.06,171.01z"/>
		<path class="st8" d="M123.34,171.01h2.24l-0.08,0.54h-1.64l-0.11,0.83h1.55l-0.08,0.54h-1.55l-0.13,0.92h1.72l-0.08,0.54h-2.32
			L123.34,171.01z"/>
		<path class="st8" d="M126.73,171.01h2.24l-0.08,0.54h-1.64l-0.11,0.83h1.55l-0.08,0.54h-1.55l-0.13,0.92h1.72l-0.08,0.54h-2.32
			L126.73,171.01z"/>
		<path class="st8" d="M130.12,171.01h1.17c0.16,0,0.32,0.02,0.46,0.05c0.15,0.03,0.28,0.08,0.38,0.16c0.11,0.07,0.19,0.17,0.24,0.3
			c0.05,0.12,0.06,0.28,0.04,0.47c-0.02,0.12-0.05,0.23-0.1,0.34c-0.05,0.1-0.11,0.2-0.19,0.28c-0.08,0.08-0.17,0.14-0.27,0.2
			c-0.1,0.05-0.22,0.09-0.35,0.1l0.69,1.49h-0.73l-0.58-1.43h-0.44l-0.2,1.43h-0.6L130.12,171.01z M130.98,172.44
			c0.09,0,0.17,0,0.26-0.01c0.09-0.01,0.17-0.03,0.24-0.06c0.07-0.03,0.14-0.08,0.19-0.14c0.05-0.06,0.09-0.15,0.1-0.26
			c0.01-0.1,0-0.18-0.03-0.24c-0.03-0.06-0.08-0.11-0.14-0.14c-0.06-0.03-0.13-0.05-0.21-0.06c-0.08-0.01-0.16-0.01-0.23-0.01h-0.52
			l-0.13,0.92H130.98z"/>
		<path class="st8" d="M133.58,171.01h0.6l-0.47,3.38h-0.6L133.58,171.01z"/>
		<path class="st8" d="M135.4,171.01h0.8l1.28,2.51h0.01l0.35-2.51h0.6l-0.47,3.38h-0.76l-1.31-2.59h-0.01l-0.36,2.59h-0.6
			L135.4,171.01z"/>
		<path class="st8" d="M142.24,174.14c-0.45,0.22-0.93,0.33-1.45,0.33c-0.26,0-0.49-0.04-0.7-0.13c-0.21-0.08-0.38-0.2-0.51-0.36
			c-0.13-0.15-0.23-0.34-0.29-0.56c-0.06-0.22-0.07-0.46-0.03-0.72c0.04-0.27,0.12-0.52,0.24-0.74c0.12-0.22,0.27-0.41,0.45-0.56
			c0.18-0.16,0.38-0.28,0.62-0.36c0.23-0.08,0.48-0.13,0.74-0.13c0.26,0,0.49,0.03,0.71,0.09c0.22,0.06,0.4,0.17,0.56,0.33
			l-0.51,0.45c-0.09-0.1-0.21-0.19-0.36-0.24c-0.15-0.06-0.31-0.09-0.48-0.09c-0.17,0-0.34,0.03-0.49,0.09
			c-0.15,0.06-0.29,0.15-0.4,0.26c-0.12,0.11-0.21,0.24-0.29,0.38c-0.08,0.15-0.13,0.3-0.15,0.47c-0.03,0.18-0.02,0.35,0.01,0.5
			c0.03,0.15,0.09,0.28,0.18,0.4c0.09,0.11,0.2,0.2,0.33,0.26c0.13,0.06,0.29,0.1,0.46,0.1c0.15,0,0.3-0.01,0.44-0.04
			c0.14-0.03,0.27-0.07,0.38-0.13l0.11-0.8h-0.69l0.08-0.54h1.29L142.24,174.14z"/>
		<path class="st8" d="M145.75,171.01h2.24l-0.08,0.54h-1.64l-0.11,0.83h1.55l-0.08,0.54h-1.55l-0.13,0.92h1.72l-0.08,0.54h-2.32
			L145.75,171.01z"/>
		<path class="st8" d="M149.14,171.01h1.33c0.22,0,0.43,0.03,0.63,0.1c0.2,0.07,0.36,0.17,0.5,0.31c0.14,0.14,0.24,0.32,0.31,0.53
			c0.07,0.21,0.08,0.46,0.04,0.75c-0.04,0.29-0.13,0.54-0.27,0.75c-0.14,0.21-0.31,0.39-0.5,0.52c-0.19,0.14-0.4,0.24-0.62,0.31
			c-0.22,0.07-0.43,0.1-0.64,0.1h-1.26L149.14,171.01z M149.8,173.85c0.19,0,0.37-0.02,0.54-0.06c0.17-0.04,0.33-0.11,0.46-0.2
			c0.14-0.09,0.25-0.21,0.34-0.35c0.09-0.15,0.15-0.32,0.18-0.53c0.03-0.2,0.02-0.38-0.02-0.52c-0.04-0.15-0.11-0.26-0.21-0.36
			c-0.1-0.09-0.22-0.16-0.37-0.2c-0.15-0.04-0.31-0.06-0.5-0.06h-0.55l-0.32,2.29H149.8z"/>
		<path class="st8" d="M155.64,173.15c-0.03,0.2-0.09,0.39-0.18,0.55c-0.09,0.16-0.21,0.3-0.35,0.42c-0.14,0.11-0.29,0.2-0.47,0.26
			c-0.17,0.06-0.36,0.09-0.55,0.09c-0.19,0-0.37-0.03-0.53-0.09c-0.16-0.06-0.29-0.15-0.39-0.26c-0.1-0.11-0.18-0.25-0.23-0.42
			c-0.05-0.16-0.06-0.35-0.03-0.55l0.3-2.14h0.6l-0.3,2.12c-0.01,0.08-0.01,0.17,0,0.26c0.01,0.09,0.04,0.17,0.09,0.25
			c0.05,0.08,0.12,0.14,0.21,0.19s0.21,0.07,0.35,0.07c0.14,0,0.27-0.02,0.37-0.07c0.1-0.05,0.19-0.11,0.26-0.19
			c0.07-0.08,0.12-0.16,0.16-0.25c0.04-0.09,0.06-0.18,0.08-0.26l0.3-2.12h0.6L155.64,173.15z"/>
		<path class="st8" d="M159.37,171.81c-0.11-0.13-0.22-0.22-0.32-0.27c-0.11-0.04-0.22-0.07-0.34-0.07c-0.17,0-0.34,0.03-0.49,0.09
			c-0.15,0.06-0.29,0.15-0.4,0.26c-0.12,0.11-0.21,0.24-0.29,0.38c-0.08,0.15-0.13,0.3-0.15,0.47c-0.03,0.18-0.02,0.35,0.01,0.5
			c0.03,0.15,0.09,0.28,0.18,0.4c0.09,0.11,0.2,0.2,0.33,0.26c0.13,0.06,0.29,0.1,0.46,0.1c0.14,0,0.27-0.03,0.41-0.1
			c0.14-0.07,0.27-0.17,0.41-0.31l0.45,0.35c-0.18,0.21-0.39,0.36-0.63,0.46c-0.23,0.1-0.47,0.14-0.72,0.14
			c-0.26,0-0.49-0.04-0.7-0.13c-0.21-0.08-0.38-0.2-0.51-0.36c-0.13-0.15-0.23-0.34-0.29-0.56c-0.06-0.22-0.07-0.46-0.03-0.72
			c0.04-0.27,0.12-0.52,0.24-0.74c0.12-0.22,0.27-0.41,0.45-0.56c0.18-0.16,0.38-0.28,0.62-0.36c0.23-0.08,0.48-0.13,0.74-0.13
			c0.23,0,0.43,0.04,0.62,0.12c0.18,0.08,0.35,0.22,0.49,0.41L159.37,171.81z"/>
		<path class="st8" d="M162,171.01h0.52l0.98,3.38h-0.69l-0.21-0.77h-1.46l-0.41,0.77h-0.67L162,171.01z M162.46,173.1l-0.32-1.37
			l-0.72,1.37H162.46z"/>
		<path class="st8" d="M165,171.56h-1.04l0.08-0.54h2.67l-0.08,0.54h-1.04l-0.4,2.83h-0.6L165,171.56z"/>
		<path class="st8" d="M167.58,171.01h0.6l-0.47,3.38h-0.6L167.58,171.01z"/>
		<path class="st8" d="M168.98,172.72c0.04-0.27,0.12-0.52,0.24-0.74c0.12-0.22,0.27-0.41,0.45-0.56c0.18-0.16,0.38-0.28,0.62-0.36
			c0.23-0.08,0.48-0.13,0.74-0.13c0.26,0,0.5,0.04,0.71,0.12c0.21,0.08,0.38,0.2,0.52,0.36c0.14,0.16,0.23,0.34,0.29,0.56
			c0.06,0.22,0.07,0.46,0.03,0.73c-0.04,0.26-0.12,0.5-0.23,0.72c-0.12,0.22-0.27,0.4-0.45,0.56c-0.18,0.16-0.39,0.28-0.62,0.36
			c-0.23,0.09-0.48,0.13-0.74,0.14c-0.26,0-0.49-0.04-0.7-0.13c-0.21-0.08-0.38-0.2-0.51-0.36c-0.13-0.15-0.23-0.34-0.29-0.56
			C168.95,173.22,168.94,172.98,168.98,172.72z M169.62,172.68c-0.03,0.18-0.02,0.35,0.01,0.5c0.03,0.15,0.09,0.28,0.18,0.4
			c0.09,0.11,0.2,0.2,0.33,0.26c0.13,0.06,0.29,0.1,0.46,0.1s0.34-0.03,0.49-0.1c0.15-0.06,0.29-0.15,0.41-0.26
			c0.12-0.11,0.21-0.24,0.29-0.4c0.08-0.15,0.13-0.32,0.15-0.5c0.02-0.17,0.02-0.33-0.02-0.47c-0.03-0.15-0.09-0.27-0.18-0.38
			c-0.09-0.11-0.2-0.2-0.33-0.26c-0.14-0.06-0.29-0.09-0.47-0.09s-0.34,0.03-0.49,0.09c-0.15,0.06-0.29,0.15-0.4,0.26
			c-0.12,0.11-0.21,0.24-0.29,0.38C169.69,172.35,169.64,172.51,169.62,172.68z"/>
		<path class="st8" d="M173.85,171.01h0.8l1.28,2.51h0.01l0.35-2.51h0.6l-0.47,3.38h-0.76l-1.31-2.59h-0.01l-0.36,2.59h-0.6
			L173.85,171.01z"/>
	</g>
</g>
</svg>
