<svg id="Layer_1" data-name="Layer 1" xmlns="http://www.w3.org/2000/svg" viewBox="0 0 423.118 198.72"><defs><style>.cls-1{fill:#8c3a2b;}</style></defs><rect class="cls-1" y="29.948" width="70.056" height="9.882"/><rect class="cls-1" x="120.939" y="29.948" width="27.821" height="9.882"/><rect class="cls-1" x="24.88" y="58.948" width="123.88" height="10.588"/><rect class="cls-1" y="50.066" width="10.409" height="111.176"/><rect class="cls-1" y="167.242" width="98.645" height="9.176"/><rect class="cls-1" x="79.939" width="33.176" height="9.478"/><rect class="cls-1" x="79.939" y="19.36" width="33.176" height="10.588"/><rect class="cls-1" x="79.939" y="39.831" width="33.176" height="10.235"/><rect class="cls-1" x="102.88" width="10.235" height="29.948"/><rect class="cls-1" x="79.939" y="19.36" width="9.529" height="30.706"/><rect class="cls-1" x="24.88" y="59.948" width="55.059" height="26.118"/><rect class="cls-1" x="24.88" y="110.772" width="73.765" height="25.412"/><rect class="cls-1" x="89.468" y="86.066" width="9.176" height="90.353"/><rect class="cls-1" x="79.939" y="86.066" width="18.706" height="10.235"/><rect class="cls-1" x="131.821" y="85.066" width="16.939" height="10.235"/><rect class="cls-1" x="131.821" y="167.242" width="16.939" height="9.176"/><rect class="cls-1" x="131.821" y="86.066" width="8.469" height="90.353"/><rect class="cls-1" y="186.301" width="149.76" height="12.419"/><path class="cls-1" d="M365.823,256.086a11.864,11.864,0,0,1-4.762-5.039,18.361,18.361,0,0,1,0-15.254,11.767,11.767,0,0,1,4.762-5.018,14.457,14.457,0,0,1,7.252-1.759,15.885,15.885,0,0,1,5.354.89,11.535,11.535,0,0,1,4.17,2.47l-1.66,3.714a13.424,13.424,0,0,0-3.775-2.233,11.529,11.529,0,0,0-4.01-.691,7.79,7.79,0,0,0-6.3,2.648q-2.232,2.648-2.232,7.587,0,4.978,2.213,7.646a7.75,7.75,0,0,0,6.323,2.668,11.506,11.506,0,0,0,4.01-.691,13.376,13.376,0,0,0,3.775-2.233l1.66,3.715a11.547,11.547,0,0,1-4.17,2.469,15.91,15.91,0,0,1-5.354.89A14.32,14.32,0,0,1,365.823,256.086Z" transform="translate(-184.858 -198.278)"/><path class="cls-1" d="M408.68,247.787H394.926a7.221,7.221,0,0,0,1.6,4.724,5.643,5.643,0,0,0,4.289,1.52A9.86,9.86,0,0,0,406.9,251.9l1.423,3.4a11.1,11.1,0,0,1-3.5,1.837,13.193,13.193,0,0,1-4.208.692,10.5,10.5,0,0,1-7.707-2.766,10.166,10.166,0,0,1-2.805-7.587,11.625,11.625,0,0,1,1.225-5.415,9.056,9.056,0,0,1,3.438-3.695,9.589,9.589,0,0,1,5.018-1.324,8.3,8.3,0,0,1,6.5,2.668,10.594,10.594,0,0,1,2.391,7.331Zm-12-6.025a5.7,5.7,0,0,0-1.6,3.377h9.285a5.52,5.52,0,0,0-1.362-3.4,4.153,4.153,0,0,0-3.1-1.146A4.527,4.527,0,0,0,396.685,241.762Z" transform="translate(-184.858 -198.278)"/><path class="cls-1" d="M436.024,245.259v12.25h-4.94V245.5a5.361,5.361,0,0,0-.909-3.458,3.456,3.456,0,0,0-2.806-1.086,4.807,4.807,0,0,0-3.636,1.442,5.287,5.287,0,0,0-1.383,3.814v11.3h-4.9V243.2a45.186,45.186,0,0,0-.317-5.651h4.624l.356,3.28a7.214,7.214,0,0,1,2.785-2.805,7.968,7.968,0,0,1,3.972-.989Q436.023,237.038,436.024,245.259Z" transform="translate(-184.858 -198.278)"/><path class="cls-1" d="M452.145,241.267V250.2q0,3.519,3.281,3.517a7.016,7.016,0,0,0,1.976-.315v3.911a9.27,9.27,0,0,1-3.161.475,6.886,6.886,0,0,1-5.217-1.9,7.567,7.567,0,0,1-1.819-5.453v-9.168h-3.832v-3.715h3.832v-4.86l4.94-1.66v6.52h5.3v3.715Z" transform="translate(-184.858 -198.278)"/><path class="cls-1" d="M482.89,247.787H469.136a7.215,7.215,0,0,0,1.6,4.724,5.641,5.641,0,0,0,4.288,1.52,9.858,9.858,0,0,0,6.086-2.133l1.423,3.4a11.094,11.094,0,0,1-3.5,1.837,13.2,13.2,0,0,1-4.209.692,10.5,10.5,0,0,1-7.706-2.766,10.166,10.166,0,0,1-2.806-7.587,11.625,11.625,0,0,1,1.225-5.415,9.056,9.056,0,0,1,3.438-3.695A9.59,9.59,0,0,1,474,237.038a8.3,8.3,0,0,1,6.5,2.668,10.6,10.6,0,0,1,2.391,7.331Zm-12-6.025a5.71,5.71,0,0,0-1.6,3.377h9.286a5.526,5.526,0,0,0-1.363-3.4,4.151,4.151,0,0,0-3.1-1.146A4.529,4.529,0,0,0,470.894,241.762Z" transform="translate(-184.858 -198.278)"/><path class="cls-1" d="M506.1,237.394l-.039,4.5a6.884,6.884,0,0,0-2.609-.513,4.935,4.935,0,0,0-3.852,1.461,5.55,5.55,0,0,0-1.324,3.873v10.789h-4.9V243.2a45,45,0,0,0-.317-5.651h4.625l.394,3.517a5.917,5.917,0,0,1,2.371-2.963,6.716,6.716,0,0,1,3.676-1.028A5.558,5.558,0,0,1,506.1,237.394Z" transform="translate(-184.858 -198.278)"/><path class="cls-1" d="M554.632,235.853v1.7H559.1v3.715h-4.465v16.242h-4.939V241.267H545.9v-3.715h3.794v-1.936a7.707,7.707,0,0,1,1.8-5.474,6.732,6.732,0,0,1,5.158-1.916,8.957,8.957,0,0,1,3.122.474v3.912a8.154,8.154,0,0,0-1.938-.276Q554.634,232.336,554.632,235.853Z" transform="translate(-184.858 -198.278)"/><path class="cls-1" d="M570.97,256.561a8.648,8.648,0,0,1-3.557-3.616,12.826,12.826,0,0,1,0-11.025,8.631,8.631,0,0,1,3.557-3.616,10.97,10.97,0,0,1,5.355-1.266,10.775,10.775,0,0,1,5.295,1.266,8.667,8.667,0,0,1,3.537,3.616,12.826,12.826,0,0,1,0,11.025,8.684,8.684,0,0,1-3.537,3.616,10.8,10.8,0,0,1-5.295,1.264A10.992,10.992,0,0,1,570.97,256.561Zm9.168-4.248a9.595,9.595,0,0,0-.02-9.761,5.168,5.168,0,0,0-7.627,0,9.6,9.6,0,0,0-.019,9.761,4.609,4.609,0,0,0,3.812,1.639A4.661,4.661,0,0,0,580.138,252.313Z" transform="translate(-184.858 -198.278)"/><path class="cls-1" d="M607.977,237.394l-.039,4.5a6.884,6.884,0,0,0-2.609-.513,4.935,4.935,0,0,0-3.852,1.461,5.55,5.55,0,0,0-1.324,3.873v10.789h-4.9V243.2a45.186,45.186,0,0,0-.317-5.651h4.624l.4,3.517a5.917,5.917,0,0,1,2.371-2.963A6.716,6.716,0,0,1,606,237.078,5.562,5.562,0,0,1,607.977,237.394Z" transform="translate(-184.858 -198.278)"/><path class="cls-1" d="M360.311,303.9V275.763H379.12v4.03H365.289v7.786h13v4.03h-13v8.261H379.12v4.03Z" transform="translate(-184.858 -198.278)"/><path class="cls-1" d="M404.752,291.65V303.9h-4.939V291.886a5.354,5.354,0,0,0-.91-3.458,3.454,3.454,0,0,0-2.805-1.086,4.805,4.805,0,0,0-3.636,1.442,5.283,5.283,0,0,0-1.383,3.814v11.3h-4.9V289.594a45,45,0,0,0-.317-5.651h4.625l.355,3.28a7.223,7.223,0,0,1,2.786-2.805,7.977,7.977,0,0,1,3.971-.988Q404.753,283.43,404.752,291.65Z" transform="translate(-184.858 -198.278)"/><path class="cls-1" d="M432.007,283.943v19.325q0,4.664-2.569,7.074t-7.547,2.411a16.617,16.617,0,0,1-8.142-1.936l.791-3.756a15.508,15.508,0,0,0,7.232,1.9q5.336,0,5.334-5.3V299.71a6.961,6.961,0,0,1-2.648,2.63,7.666,7.666,0,0,1-3.911,1.006A8.717,8.717,0,0,1,415.9,302.1a8.37,8.37,0,0,1-3.161-3.516,12.556,12.556,0,0,1,0-10.394,8.382,8.382,0,0,1,3.161-3.516,8.717,8.717,0,0,1,4.645-1.245,8.139,8.139,0,0,1,3.931.929,6.386,6.386,0,0,1,2.628,2.587v-3Zm-6.3,13.912a7.856,7.856,0,0,0,.02-8.932,5.412,5.412,0,0,0-7.725,0,7.81,7.81,0,0,0,0,8.932,5.393,5.393,0,0,0,7.7,0Z" transform="translate(-184.858 -198.278)"/><path class="cls-1" d="M439.737,274.894h5.493v4.861h-5.493Zm.317,29.006V283.943h4.9V303.9Z" transform="translate(-184.858 -198.278)"/><path class="cls-1" d="M471.653,291.65V303.9h-4.94V291.886a5.354,5.354,0,0,0-.91-3.458A3.453,3.453,0,0,0,463,287.342a4.807,4.807,0,0,0-3.636,1.442,5.287,5.287,0,0,0-1.383,3.814v11.3h-4.9V289.594a45.186,45.186,0,0,0-.317-5.651h4.624l.356,3.28a7.214,7.214,0,0,1,2.785-2.805,7.978,7.978,0,0,1,3.972-.988Q471.652,283.43,471.653,291.65Z" transform="translate(-184.858 -198.278)"/><path class="cls-1" d="M497.09,294.178H483.336a7.215,7.215,0,0,0,1.6,4.724,5.642,5.642,0,0,0,4.289,1.52,9.857,9.857,0,0,0,6.085-2.133l1.423,3.4a11.074,11.074,0,0,1-3.5,1.837,13.2,13.2,0,0,1-4.208.692,10.5,10.5,0,0,1-7.707-2.766,10.166,10.166,0,0,1-2.806-7.587,11.625,11.625,0,0,1,1.225-5.415,9.056,9.056,0,0,1,3.438-3.695,9.589,9.589,0,0,1,5.019-1.323,8.3,8.3,0,0,1,6.5,2.667,10.6,10.6,0,0,1,2.391,7.331Zm-12-6.025a5.716,5.716,0,0,0-1.6,3.378h9.286a5.526,5.526,0,0,0-1.362-3.4,4.155,4.155,0,0,0-3.1-1.146A4.529,4.529,0,0,0,485.094,288.153Z" transform="translate(-184.858 -198.278)"/><path class="cls-1" d="M521.457,294.178H507.7a7.215,7.215,0,0,0,1.6,4.724,5.645,5.645,0,0,0,4.289,1.52,9.858,9.858,0,0,0,6.086-2.133l1.423,3.4a11.069,11.069,0,0,1-3.5,1.837,13.193,13.193,0,0,1-4.208.692,10.5,10.5,0,0,1-7.706-2.766,10.166,10.166,0,0,1-2.806-7.587,11.625,11.625,0,0,1,1.225-5.415,9.056,9.056,0,0,1,3.438-3.695,9.589,9.589,0,0,1,5.019-1.323,8.3,8.3,0,0,1,6.5,2.667,10.6,10.6,0,0,1,2.391,7.331Zm-12-6.025a5.711,5.711,0,0,0-1.6,3.378h9.286a5.527,5.527,0,0,0-1.363-3.4,4.151,4.151,0,0,0-3.1-1.146A4.529,4.529,0,0,0,509.461,288.153Z" transform="translate(-184.858 -198.278)"/><path class="cls-1" d="M541.08,283.785l-.039,4.5a6.884,6.884,0,0,0-2.609-.513,4.935,4.935,0,0,0-3.852,1.461,5.55,5.55,0,0,0-1.324,3.873V303.9h-4.9V289.594a45,45,0,0,0-.317-5.651h4.624l.395,3.517a5.921,5.921,0,0,1,2.371-2.963,6.716,6.716,0,0,1,3.676-1.027A5.585,5.585,0,0,1,541.08,283.785Z" transform="translate(-184.858 -198.278)"/><path class="cls-1" d="M546.241,274.894h5.494v4.861h-5.494Zm.317,29.006V283.943h4.9V303.9Z" transform="translate(-184.858 -198.278)"/><path class="cls-1" d="M578.159,291.65V303.9h-4.94V291.886a5.354,5.354,0,0,0-.91-3.458,3.453,3.453,0,0,0-2.8-1.086,4.807,4.807,0,0,0-3.636,1.442,5.287,5.287,0,0,0-1.383,3.814v11.3h-4.9V289.594a45.186,45.186,0,0,0-.317-5.651h4.624l.356,3.28a7.214,7.214,0,0,1,2.785-2.805,7.978,7.978,0,0,1,3.972-.988Q578.158,283.43,578.159,291.65Z" transform="translate(-184.858 -198.278)"/><path class="cls-1" d="M605.411,283.943v19.325q0,4.664-2.569,7.074t-7.547,2.411a16.616,16.616,0,0,1-8.141-1.936l.79-3.756a15.508,15.508,0,0,0,7.232,1.9q5.335,0,5.334-5.3V299.71a6.954,6.954,0,0,1-2.648,2.63,7.663,7.663,0,0,1-3.911,1.006,8.714,8.714,0,0,1-4.644-1.245,8.372,8.372,0,0,1-3.162-3.516,12.566,12.566,0,0,1,0-10.394,8.384,8.384,0,0,1,3.162-3.516,8.714,8.714,0,0,1,4.644-1.245,8.139,8.139,0,0,1,3.931.929,6.381,6.381,0,0,1,2.628,2.587v-3Zm-6.3,13.912a6.592,6.592,0,0,0,1.4-4.467,6.662,6.662,0,0,0-1.382-4.465,5.413,5.413,0,0,0-7.726,0,7.814,7.814,0,0,0,0,8.932,5.393,5.393,0,0,0,7.7,0Z" transform="translate(-184.858 -198.278)"/><path class="cls-1" d="M360.311,350.291V322.154H379.12v4.031H365.289v7.785h13V338h-13v8.261H379.12v4.03Z" transform="translate(-184.858 -198.278)"/><path class="cls-1" d="M410.355,321.206v29.085h-4.861v-3.2a6.411,6.411,0,0,1-2.607,2.589,7.948,7.948,0,0,1-3.873.928,8.25,8.25,0,0,1-4.584-1.3,8.687,8.687,0,0,1-3.143-3.695,12.712,12.712,0,0,1-1.126-5.473,12.468,12.468,0,0,1,1.108-5.413,8.266,8.266,0,0,1,7.745-4.9,8.025,8.025,0,0,1,3.812.889,6.247,6.247,0,0,1,2.589,2.51V321.206Zm-6.223,23.83a9.267,9.267,0,0,0,.018-9.643,4.554,4.554,0,0,0-3.794-1.7,4.682,4.682,0,0,0-3.852,1.68,7.37,7.37,0,0,0-1.363,4.762A7.7,7.7,0,0,0,396.5,345a4.57,4.57,0,0,0,3.814,1.738A4.617,4.617,0,0,0,404.132,345.036Z" transform="translate(-184.858 -198.278)"/><path class="cls-1" d="M441.709,330.334v19.957h-4.821v-3.082a6.485,6.485,0,0,1-2.529,2.529,7.44,7.44,0,0,1-3.636.869q-7.311,0-7.31-8.219V330.334h4.9v12.093a4.814,4.814,0,0,0,.889,3.2,3.443,3.443,0,0,0,2.747,1.027,4.486,4.486,0,0,0,3.478-1.423,5.391,5.391,0,0,0,1.3-3.793V330.334Z" transform="translate(-184.858 -198.278)"/><path class="cls-1" d="M458.52,349.343A8.611,8.611,0,0,1,455,345.766a12.521,12.521,0,0,1,.06-10.927,9.17,9.17,0,0,1,3.634-3.694,10.888,10.888,0,0,1,5.435-1.324,12.884,12.884,0,0,1,4.13.671,8.058,8.058,0,0,1,3.181,1.857l-1.383,3.479a9.625,9.625,0,0,0-2.688-1.561,7.943,7.943,0,0,0-2.805-.533,5.327,5.327,0,0,0-4.19,1.679,8.567,8.567,0,0,0-.02,9.662,5.347,5.347,0,0,0,4.21,1.659,7.7,7.7,0,0,0,2.805-.552,10.029,10.029,0,0,0,2.688-1.581l1.383,3.477a8.785,8.785,0,0,1-3.28,1.858,13.286,13.286,0,0,1-4.229.671A11.035,11.035,0,0,1,458.52,349.343Z" transform="translate(-184.858 -198.278)"/><path class="cls-1" d="M501.649,330.334v19.957h-4.861v-3.2a6.407,6.407,0,0,1-2.608,2.589,7.941,7.941,0,0,1-3.872.928,8.518,8.518,0,0,1-4.625-1.264,8.35,8.35,0,0,1-3.121-3.6,12.493,12.493,0,0,1-1.107-5.414,12.713,12.713,0,0,1,1.126-5.474,8.819,8.819,0,0,1,3.143-3.714,8.153,8.153,0,0,1,4.584-1.324,7.942,7.942,0,0,1,3.872.929,6.411,6.411,0,0,1,2.608,2.588v-3Zm-6.2,14.7a7.54,7.54,0,0,0,1.344-4.782,7.68,7.68,0,0,0-1.344-4.861,5.09,5.09,0,0,0-7.646.059,7.786,7.786,0,0,0-1.363,4.881,7.284,7.284,0,0,0,1.363,4.742,4.7,4.7,0,0,0,3.852,1.659A4.554,4.554,0,0,0,495.444,345.036Z" transform="translate(-184.858 -198.278)"/><path class="cls-1" d="M521.108,334.049v8.932q0,3.518,3.28,3.516a7.022,7.022,0,0,0,1.977-.315v3.911a9.28,9.28,0,0,1-3.162.475,6.878,6.878,0,0,1-5.216-1.9,7.567,7.567,0,0,1-1.819-5.453v-9.168h-3.833v-3.715h3.833v-4.861l4.94-1.659v6.52h5.3v3.715Z" transform="translate(-184.858 -198.278)"/><path class="cls-1" d="M537.286,321.285h5.494v4.861h-5.494Zm.317,29.006V330.334h4.9v19.957Z" transform="translate(-184.858 -198.278)"/><path class="cls-1" d="M559.413,349.343a8.643,8.643,0,0,1-3.557-3.616,12.826,12.826,0,0,1,0-11.025,8.631,8.631,0,0,1,3.557-3.616,10.963,10.963,0,0,1,5.354-1.265,10.778,10.778,0,0,1,5.3,1.265A8.678,8.678,0,0,1,573.6,334.7a12.826,12.826,0,0,1,0,11.025,8.69,8.69,0,0,1-3.537,3.616,10.789,10.789,0,0,1-5.3,1.264A10.974,10.974,0,0,1,559.413,349.343Zm9.168-4.248a9.595,9.595,0,0,0-.02-9.761,5.171,5.171,0,0,0-7.628,0,9.6,9.6,0,0,0-.018,9.761,4.607,4.607,0,0,0,3.812,1.639A4.663,4.663,0,0,0,568.581,345.1Z" transform="translate(-184.858 -198.278)"/><path class="cls-1" d="M605.487,338.041v12.25h-4.94V338.277a5.361,5.361,0,0,0-.909-3.458,3.456,3.456,0,0,0-2.806-1.085,4.806,4.806,0,0,0-3.636,1.441,5.287,5.287,0,0,0-1.383,3.814v11.3h-4.9V335.985a45.2,45.2,0,0,0-.317-5.651h4.624l.356,3.28a7.214,7.214,0,0,1,2.785-2.8,7.978,7.978,0,0,1,3.972-.988Q605.486,329.821,605.487,338.041Z" transform="translate(-184.858 -198.278)"/><path class="cls-1" d="M360.311,396.682V368.545h5.1v28.137Z" transform="translate(-184.858 -198.278)"/><path class="cls-1" d="M395.359,384.432v12.25H390.42V384.668a5.354,5.354,0,0,0-.91-3.458,3.454,3.454,0,0,0-2.805-1.085,4.808,4.808,0,0,0-3.636,1.441,5.283,5.283,0,0,0-1.383,3.814v11.3h-4.9V382.376a44.993,44.993,0,0,0-.318-5.651h4.625l.355,3.281a7.219,7.219,0,0,1,2.786-2.806,7.977,7.977,0,0,1,3.971-.988Q395.36,376.212,395.359,384.432Z" transform="translate(-184.858 -198.278)"/><path class="cls-1" d="M424.837,384.432v12.25H419.9V384.668a5.355,5.355,0,0,0-.909-3.458,3.454,3.454,0,0,0-2.806-1.085,4.811,4.811,0,0,0-3.636,1.441,5.286,5.286,0,0,0-1.382,3.814v11.3h-4.9V382.376a45.2,45.2,0,0,0-.317-5.651h4.624l.356,3.281a7.224,7.224,0,0,1,2.785-2.806,7.978,7.978,0,0,1,3.972-.988Q424.838,376.212,424.837,384.432Z" transform="translate(-184.858 -198.278)"/><path class="cls-1" d="M439.437,395.734a8.645,8.645,0,0,1-3.558-3.616,12.826,12.826,0,0,1,0-11.025,8.639,8.639,0,0,1,3.558-3.616,10.963,10.963,0,0,1,5.354-1.265,10.772,10.772,0,0,1,5.3,1.265,8.673,8.673,0,0,1,3.537,3.616,12.826,12.826,0,0,1,0,11.025,8.678,8.678,0,0,1-3.537,3.616,10.782,10.782,0,0,1-5.3,1.264A10.974,10.974,0,0,1,439.437,395.734Zm9.168-4.248a9.595,9.595,0,0,0-.02-9.761,5.171,5.171,0,0,0-7.628,0,9.6,9.6,0,0,0-.019,9.761,4.61,4.61,0,0,0,3.813,1.639A4.663,4.663,0,0,0,448.605,391.486Z" transform="translate(-184.858 -198.278)"/><path class="cls-1" d="M478.416,376.765h4.9l-8.734,19.917h-4.307l-8.614-19.917h5.176l5.73,14.306Z" transform="translate(-184.858 -198.278)"/><path class="cls-1" d="M510.267,376.725v19.957h-4.861v-3.2a6.407,6.407,0,0,1-2.608,2.589,7.941,7.941,0,0,1-3.872.928,8.518,8.518,0,0,1-4.625-1.264,8.353,8.353,0,0,1-3.121-3.595,12.5,12.5,0,0,1-1.107-5.415,12.709,12.709,0,0,1,1.126-5.473,8.813,8.813,0,0,1,3.142-3.715,8.157,8.157,0,0,1,4.585-1.324,7.942,7.942,0,0,1,3.872.929,6.411,6.411,0,0,1,2.608,2.588v-3Zm-6.2,14.7a7.538,7.538,0,0,0,1.344-4.782,7.682,7.682,0,0,0-1.344-4.861,4.6,4.6,0,0,0-3.833-1.7,4.556,4.556,0,0,0-3.814,1.759,7.792,7.792,0,0,0-1.362,4.881,7.29,7.29,0,0,0,1.362,4.742,4.7,4.7,0,0,0,3.853,1.659A4.556,4.556,0,0,0,504.062,391.427Z" transform="translate(-184.858 -198.278)"/><path class="cls-1" d="M527.571,380.44v8.932q0,3.517,3.28,3.517a7.026,7.026,0,0,0,1.977-.316v3.911a9.274,9.274,0,0,1-3.161.475,6.882,6.882,0,0,1-5.217-1.9,7.567,7.567,0,0,1-1.819-5.453V380.44H518.8v-3.715h3.832v-4.861l4.94-1.659v6.52h5.295v3.715Z" transform="translate(-184.858 -198.278)"/><path class="cls-1" d="M541.6,367.676h5.493v4.861H541.6Zm.317,29.006V376.725h4.9v19.957Z" transform="translate(-184.858 -198.278)"/><path class="cls-1" d="M561.571,395.734a8.645,8.645,0,0,1-3.558-3.616,12.826,12.826,0,0,1,0-11.025,8.639,8.639,0,0,1,3.558-3.616,10.963,10.963,0,0,1,5.354-1.265,10.772,10.772,0,0,1,5.3,1.265,8.673,8.673,0,0,1,3.537,3.616,12.826,12.826,0,0,1,0,11.025,8.678,8.678,0,0,1-3.537,3.616,10.782,10.782,0,0,1-5.3,1.264A10.974,10.974,0,0,1,561.571,395.734Zm9.168-4.248a9.595,9.595,0,0,0-.02-9.761,5.171,5.171,0,0,0-7.628,0,9.6,9.6,0,0,0-.019,9.761,4.61,4.61,0,0,0,3.813,1.639A4.663,4.663,0,0,0,570.739,391.486Z" transform="translate(-184.858 -198.278)"/><path class="cls-1" d="M605.492,384.432v12.25h-4.94V384.668a5.361,5.361,0,0,0-.909-3.458,3.456,3.456,0,0,0-2.806-1.085,4.81,4.81,0,0,0-3.636,1.441,5.287,5.287,0,0,0-1.383,3.814v11.3h-4.9V382.376a45.2,45.2,0,0,0-.317-5.651h4.624l.356,3.281a7.21,7.21,0,0,1,2.785-2.806,7.978,7.978,0,0,1,3.972-.988Q605.492,376.212,605.492,384.432Z" transform="translate(-184.858 -198.278)"/></svg>