<svg id="Layer_1" data-name="Layer 1" xmlns="http://www.w3.org/2000/svg" xmlns:xlink="http://www.w3.org/1999/xlink" viewBox="0 0 648.97 103.58"><defs><style>.cls-1{fill:url(#linear-gradient);}.cls-2{fill:url(#linear-gradient-2);}.cls-3{fill:url(#linear-gradient-3);}.cls-4{fill:url(#linear-gradient-4);}.cls-5{fill:url(#linear-gradient-5);}.cls-6{fill:#919195;}.cls-7{fill:#00467f;}.cls-8{fill:#6d6e71;}.cls-9{fill:#3a3435;}</style><linearGradient id="linear-gradient" x1="186.33" y1="286.35" x2="149.77" y2="265.66" gradientUnits="userSpaceOnUse"><stop offset="0" stop-color="#fff"/><stop offset="0.2" stop-color="#e2e993"/><stop offset="0.76" stop-color="#a6ce39"/><stop offset="1" stop-color="#8dc63f"/></linearGradient><linearGradient id="linear-gradient-2" x1="183.29" y1="272.74" x2="149.19" y2="249.94" gradientUnits="userSpaceOnUse"><stop offset="0" stop-color="#e0e995"/><stop offset="0.07" stop-color="#d0e17e"/><stop offset="0.14" stop-color="#c5dc6e"/><stop offset="0.2" stop-color="#c1da68"/><stop offset="0.4" stop-color="#9fc73b"/><stop offset="0.7" stop-color="#83bd40"/><stop offset="1" stop-color="#6cb545"/></linearGradient><linearGradient id="linear-gradient-3" x1="187.93" y1="265.79" x2="153.84" y2="242.99" xlink:href="#linear-gradient-2"/><linearGradient id="linear-gradient-4" x1="171.1" y1="290.96" x2="137" y2="268.16" xlink:href="#linear-gradient-2"/><linearGradient id="linear-gradient-5" x1="166.9" y1="297.24" x2="132.81" y2="274.44" xlink:href="#linear-gradient-2"/></defs><title>KCIHE_logo</title><path class="cls-1" d="M181,268.89a19.74,19.74,0,0,1,27.21-18.34,44.54,44.54,0,0,0-64.38,61.28,72.44,72.44,0,0,1,15.37-15.19c5-3.5,11.9-7,17.45-7.53,5.26-.49,13.09,0,17.83,2.3A132.85,132.85,0,0,1,185,280.79,19.78,19.78,0,0,1,181,268.89Z" transform="translate(-127.03 -234.34)"/><path class="cls-2" d="M179.59,283.38l-20.88-40.23a44.33,44.33,0,0,0-10.81,7.34l31.55,32.84Z" transform="translate(-127.03 -234.34)"/><path class="cls-3" d="M179.7,283.42,182.46,239a45.29,45.29,0,0,0-10.85.25l8,44.17Z" transform="translate(-127.03 -234.34)"/><path class="cls-4" d="M179.45,283.33l-43-16a44.55,44.55,0,0,0-2.75,11.82l45.88,4.28Z" transform="translate(-127.03 -234.34)"/><path class="cls-5" d="M134,289.7a44.14,44.14,0,0,0,2.34,9.14l43.15-15.29Z" transform="translate(-127.03 -234.34)"/><path class="cls-6" d="M164.17,309.26s1.22-.54,1.57-.73V317h1.53V307l-.25-.17-.07,0c-1.12.55-2.26,1.07-3.24,1.47Z" transform="translate(-127.03 -234.34)"/><path class="cls-6" d="M172.31,312c1.24,0,1.85.64,1.85,2a2,2,0,0,1-2.13,2.22,2.44,2.44,0,0,1-1.8-.9l-.19-.22-.37,1.32.12.05A4.78,4.78,0,0,0,172,317c2.19,0,3.77-1.33,3.77-3.17a2.26,2.26,0,0,0-2.08-2.3,2.53,2.53,0,0,0,1.63-2.34c0-1.4-1.1-2.26-2.86-2.27a2.92,2.92,0,0,0-2.27,1l.66,1.14.1-.33a1.58,1.58,0,0,1,1.45-1,1.4,1.4,0,0,1,1.37,1.6c0,.91-.26,2-1.46,2l-.79-.06v.94A3.27,3.27,0,0,1,172.31,312Z" transform="translate(-127.03 -234.34)"/><path class="cls-6" d="M177.87,315l.4,1.62a3.4,3.4,0,0,0,1.53.36c2.56,0,4.34-2.4,4.34-5.84,0-3.83-2.33-4.24-3.33-4.24a3.11,3.11,0,0,0-3.31,3.19,2.74,2.74,0,0,0,2.92,3,2.64,2.64,0,0,0,2.15-1c-.11,2.14-1,4.1-2.71,4.11A2.3,2.3,0,0,1,177.87,315Zm2.77-2.77c-1.06,0-1.58-.7-1.58-2.14s.7-2.43,1.74-2.43,1.72.83,1.72,2.06S181.88,312.21,180.64,312.21Z" transform="translate(-127.03 -234.34)"/><path class="cls-6" d="M190.23,311.23a2.31,2.31,0,0,0,1.43-2.11c0-1-.75-2.24-2.86-2.24a2.58,2.58,0,0,0-2.82,2.4,2.14,2.14,0,0,0,1.44,2,2.81,2.81,0,0,0-1.94,2.73c0,1.75,1.33,2.93,3.32,2.93a3.18,3.18,0,0,0,3.32-3.25A2.45,2.45,0,0,0,190.23,311.23Zm-2.78-1.93c0-.38.09-1.66,1.36-1.66s1.39,1.17,1.39,1.66-.1,1.67-1.39,1.67S187.45,309.69,187.45,309.3Zm1.35,6.89c-1.06,0-1.77-.9-1.77-2.23s.71-2.23,1.77-2.23,1.76.89,1.76,2.23S189.87,316.19,188.8,316.19Z" transform="translate(-127.03 -234.34)"/><path class="cls-7" d="M144,322.72a43.57,43.57,0,0,1-5.49-5.78c-9.09-10.21-19.48-37-2.2-61.25a50.43,50.43,0,0,1,77.82-5.61,2,2,0,0,1,.09,2.88c-1,.87-2,.42-4.06-.19a21.47,21.47,0,0,0-9.05-.78c-7,.89-13,7.35-12.16,16.37.76,8.24,7.11,14.19,11.58,18.12,15.66,13.8,10.42,28.59,9.15,31.84-4.34,11-15.44,18.81-29.83,18.81a44.14,44.14,0,0,1-23.3-7.06c-.34-.14-.67-.59-.26-1.33a47.2,47.2,0,0,1,4.63-8c4.32,5,11.6,9.68,19.69,10,11.06.4,18.17-5.59,20.8-13.18,2.93-8.54-.19-17.23-8.45-25.08-7.12-6.76-13.49-13-13.86-23.76-.47-13.74,11.5-21.9,22.62-21.36.33,0-15.38-11.31-35.53-4.56a41.78,41.78,0,0,0-18.61,12.44.82.82,0,0,0,0,1.12l7.17,10-12.36-2.85a.74.74,0,0,0-.77.3c-3.93,6.77-9.73,26.37,3.21,44.21,0,0,11-17.45,32.88-18.93,1.45-.1,1.27.42.32.76-19.54,7.19-27.25,21.51-32.23,32.56A1.08,1.08,0,0,1,144,322.72Z" transform="translate(-127.03 -234.34)"/><path class="cls-8" d="M237,331l-1.41,0-3.56-5-1.24,1.39V331h-1.16V320.14h1.16v5.32c.29-.31.61-.67.95-1.08s.71-.85,1.07-1.32.72-.95,1.08-1.45.69-1,1-1.47h1.45c-.59.92-1.19,1.81-1.79,2.64s-1.16,1.57-1.68,2.2Z" transform="translate(-127.03 -234.34)"/><path class="cls-8" d="M242.93,331h-1.18v-4.74a2.49,2.49,0,0,0-.36-1.47,1.26,1.26,0,0,0-1.09-.49,1.41,1.41,0,0,0-.71.18,1.83,1.83,0,0,0-.55.49,2,2,0,0,0-.37.72,2.71,2.71,0,0,0-.13.86V331h-1.16v-7.87h1.16V324a4.23,4.23,0,0,1,1-.87,2.27,2.27,0,0,1,1.49-.27,1.81,1.81,0,0,1,.88.38,2.73,2.73,0,0,1,.58.69,3,3,0,0,1,.34.86,3.33,3.33,0,0,1,.11.86Z" transform="translate(-127.03 -234.34)"/><path class="cls-8" d="M246.9,322.82a2.85,2.85,0,0,1,1.34.32,3.26,3.26,0,0,1,1,.88,4.22,4.22,0,0,1,.64,1.35,6.68,6.68,0,0,1,0,3.4,4,4,0,0,1-.64,1.33,3,3,0,0,1-1,.89,2.88,2.88,0,0,1-3.7-.89,4,4,0,0,1-.64-1.33,7,7,0,0,1,0-3.4,4.22,4.22,0,0,1,.64-1.35,3.15,3.15,0,0,1,1-.88A2.86,2.86,0,0,1,246.9,322.82Zm0,7.19a1.61,1.61,0,0,0,1.41-.83,4.56,4.56,0,0,0,0-4.23,1.63,1.63,0,0,0-2.82,0,4.56,4.56,0,0,0,0,4.23A1.61,1.61,0,0,0,246.9,330Z" transform="translate(-127.03 -234.34)"/><path class="cls-8" d="M259.07,323.11,257.2,331h-1.3l-1.27-5.47L253.35,331h-1.3l-1.87-7.89h1.2L252.7,329l1.28-5.84h1.3l1.27,5.84,1.32-5.84Z" transform="translate(-127.03 -234.34)"/><path class="cls-8" d="M260.89,331h-1.15V320.14h1.15Z" transform="translate(-127.03 -234.34)"/><path class="cls-8" d="M268.1,327.54H263a3,3,0,0,0,.6,1.79,1.68,1.68,0,0,0,1.31.68,1.47,1.47,0,0,0,1.13-.41,1.93,1.93,0,0,0,.49-.84h1.35a4.72,4.72,0,0,1-.34.9,3.11,3.11,0,0,1-.56.83,2.8,2.8,0,0,1-.86.59,2.87,2.87,0,0,1-1.19.22,2.75,2.75,0,0,1-1.31-.31,2.89,2.89,0,0,1-1-.89,4.06,4.06,0,0,1-.67-1.33,5.79,5.79,0,0,1-.24-1.71,6.11,6.11,0,0,1,.23-1.69,4.22,4.22,0,0,1,.64-1.35,3.3,3.3,0,0,1,1-.88,2.81,2.81,0,0,1,1.33-.32,3,3,0,0,1,1.24.28,2.87,2.87,0,0,1,1,.86,4.19,4.19,0,0,1,.7,1.47A7.8,7.8,0,0,1,268.1,327.54Zm-5.08-1.2h3.76a2.74,2.74,0,0,0-.55-1.6,1.64,1.64,0,0,0-1.33-.6,1.67,1.67,0,0,0-1.29.55A2.64,2.64,0,0,0,263,326.34Z" transform="translate(-127.03 -234.34)"/><path class="cls-8" d="M274.79,331h-1.16v-.8a3,3,0,0,1-.94.82,2.45,2.45,0,0,1-1.16.28,2.66,2.66,0,0,1-1.26-.3,2.9,2.9,0,0,1-1-.86,4,4,0,0,1-.62-1.32,6.79,6.79,0,0,1,0-3.43,4,4,0,0,1,.62-1.33,3,3,0,0,1,1-.86,2.56,2.56,0,0,1,1.26-.31,2.35,2.35,0,0,1,1.16.29,2.85,2.85,0,0,1,.94.8v-3.84h1.16Zm-3.08-1a1.62,1.62,0,0,0,1.4-.74,4.58,4.58,0,0,0,0-4.24,1.61,1.61,0,0,0-1.4-.73,1.58,1.58,0,0,0-1.42.78,3.73,3.73,0,0,0-.5,2.07,3.78,3.78,0,0,0,.5,2.07A1.57,1.57,0,0,0,271.71,330Z" transform="translate(-127.03 -234.34)"/><path class="cls-8" d="M282,323.08v7.42a4.29,4.29,0,0,1-.27,1.62,2.89,2.89,0,0,1-.68,1.06,2.49,2.49,0,0,1-1,.56,3.44,3.44,0,0,1-1.09.17,3.23,3.23,0,0,1-1.24-.22,2.84,2.84,0,0,1-.93-.61,3.22,3.22,0,0,1-.6-.87,3,3,0,0,1-.24-1h1.19a1.6,1.6,0,0,0,.47,1,1.79,1.79,0,0,0,1.36.46,1.66,1.66,0,0,0,1.37-.55,2.43,2.43,0,0,0,.45-1.57v-1.08a3.16,3.16,0,0,1-1,.84,2.18,2.18,0,0,1-1.14.32,2.45,2.45,0,0,1-1.19-.3,3.15,3.15,0,0,1-1-.82,4.12,4.12,0,0,1-.65-1.25,5,5,0,0,1-.24-1.59,5.2,5.2,0,0,1,.23-1.56,3.79,3.79,0,0,1,.62-1.22,3,3,0,0,1,1-.82,2.69,2.69,0,0,1,1.24-.28,2.43,2.43,0,0,1,1.16.28,3.29,3.29,0,0,1,.94.82v-.8Zm-3.1,6.18a1.7,1.7,0,0,0,1.39-.68,3,3,0,0,0,.53-1.92,2.89,2.89,0,0,0-.53-1.88,1.84,1.84,0,0,0-2.79,0,2.89,2.89,0,0,0-.52,1.88,3,3,0,0,0,.52,1.92A1.69,1.69,0,0,0,278.94,329.26Z" transform="translate(-127.03 -234.34)"/><path class="cls-8" d="M289.24,327.54h-5.11a2.9,2.9,0,0,0,.61,1.79,1.66,1.66,0,0,0,1.3.68,1.46,1.46,0,0,0,1.13-.41,2,2,0,0,0,.5-.84H289a5.45,5.45,0,0,1-.33.9,3.36,3.36,0,0,1-.56.83,2.71,2.71,0,0,1-2.05.81,2.72,2.72,0,0,1-1.31-.31,2.89,2.89,0,0,1-1-.89,3.87,3.87,0,0,1-.67-1.33,5.79,5.79,0,0,1-.24-1.71,6.11,6.11,0,0,1,.22-1.69,4.24,4.24,0,0,1,.65-1.35,3.19,3.19,0,0,1,1-.88,2.77,2.77,0,0,1,1.32-.32,2.92,2.92,0,0,1,1.24.28,2.81,2.81,0,0,1,1,.86,4,4,0,0,1,.69,1.47A7.43,7.43,0,0,1,289.24,327.54Zm-5.08-1.2h3.76a2.61,2.61,0,0,0-.55-1.6,1.77,1.77,0,0,0-2.61-.05A2.71,2.71,0,0,0,284.16,326.34Z" transform="translate(-127.03 -234.34)"/><path class="cls-8" d="M299.24,327.53h1.29a6.2,6.2,0,0,1-.4,1.34,4.54,4.54,0,0,1-.73,1.22,3.58,3.58,0,0,1-1.11.88,3.29,3.29,0,0,1-1.51.33,3.49,3.49,0,0,1-1.69-.4,3.65,3.65,0,0,1-1.27-1.15,5.66,5.66,0,0,1-.78-1.81,9.25,9.25,0,0,1-.28-2.38,8.78,8.78,0,0,1,.28-2.32,5.74,5.74,0,0,1,.78-1.79,4,4,0,0,1,1.27-1.15,3.49,3.49,0,0,1,1.69-.4,3.08,3.08,0,0,1,1.52.35,4,4,0,0,1,1.12.86,4.23,4.23,0,0,1,.73,1.12,5.61,5.61,0,0,1,.37,1.12h-1.29a6.38,6.38,0,0,0-.3-.74,2.66,2.66,0,0,0-.47-.68,2.18,2.18,0,0,0-1.68-.69,2.25,2.25,0,0,0-2,1.18,5.86,5.86,0,0,0-.73,3.14,6.12,6.12,0,0,0,.73,3.24,2.26,2.26,0,0,0,2,1.19,2.1,2.1,0,0,0,1.68-.77,2.77,2.77,0,0,0,.48-.78A5.1,5.1,0,0,0,299.24,327.53Z" transform="translate(-127.03 -234.34)"/><path class="cls-8" d="M307.44,327.54h-5.1a2.83,2.83,0,0,0,.6,1.79,1.66,1.66,0,0,0,1.3.68,1.5,1.5,0,0,0,1.14-.41,2,2,0,0,0,.49-.84h1.34a4.67,4.67,0,0,1-.33.9,3.36,3.36,0,0,1-.56.83,2.92,2.92,0,0,1-.86.59,2.87,2.87,0,0,1-1.19.22A2.72,2.72,0,0,1,303,331a2.89,2.89,0,0,1-1-.89,4.06,4.06,0,0,1-.67-1.33,5.79,5.79,0,0,1-.24-1.71,6.11,6.11,0,0,1,.22-1.69,4.24,4.24,0,0,1,.65-1.35,3.19,3.19,0,0,1,1-.88,2.77,2.77,0,0,1,1.32-.32,2.92,2.92,0,0,1,1.24.28,2.81,2.81,0,0,1,1,.86,4.19,4.19,0,0,1,.7,1.47A7.83,7.83,0,0,1,307.44,327.54Zm-5.08-1.2h3.77a2.68,2.68,0,0,0-.56-1.6,1.77,1.77,0,0,0-2.61-.05A2.71,2.71,0,0,0,302.36,326.34Z" transform="translate(-127.03 -234.34)"/><path class="cls-8" d="M313.82,331h-1.18v-4.74a2.42,2.42,0,0,0-.37-1.47,1.25,1.25,0,0,0-1.09-.49,1.38,1.38,0,0,0-.7.18,1.72,1.72,0,0,0-.55.49,1.89,1.89,0,0,0-.37.72,2.71,2.71,0,0,0-.13.86V331h-1.17v-7.87h1.17V324a3.86,3.86,0,0,1,1-.87,2.25,2.25,0,0,1,1.49-.27,1.82,1.82,0,0,1,.87.38,2.58,2.58,0,0,1,.59.69,3.35,3.35,0,0,1,.34.86,3.83,3.83,0,0,1,.11.86Z" transform="translate(-127.03 -234.34)"/><path class="cls-8" d="M317.36,331h-.79a1,1,0,0,1-.61-.19,1.44,1.44,0,0,1-.41-.47,1.55,1.55,0,0,1-.24-.58,6.78,6.78,0,0,1-.05-.94v-4.43h-.8v-1.23h.8v-2.45h1.18v2.45h.92v1.23h-.92V329a.92.92,0,0,0,0,.24.65.65,0,0,0,.06.21.77.77,0,0,0,.14.19.24.24,0,0,0,.14.12.76.76,0,0,0,.2.06h.37Z" transform="translate(-127.03 -234.34)"/><path class="cls-8" d="M324.11,327.54H319a3,3,0,0,0,.6,1.79,1.68,1.68,0,0,0,1.31.68,1.47,1.47,0,0,0,1.13-.41,1.93,1.93,0,0,0,.49-.84h1.35a5.45,5.45,0,0,1-.33.9,3.4,3.4,0,0,1-.57.83,2.8,2.8,0,0,1-.86.59,2.84,2.84,0,0,1-1.19.22,2.78,2.78,0,0,1-1.31-.31,3.07,3.07,0,0,1-1-.89,4.06,4.06,0,0,1-.67-1.33,5.8,5.8,0,0,1-.23-1.71,6.11,6.11,0,0,1,.22-1.69,4,4,0,0,1,.65-1.35,3.26,3.26,0,0,1,1-.88,2.81,2.81,0,0,1,1.33-.32,3,3,0,0,1,1.24.28,2.87,2.87,0,0,1,1,.86,4,4,0,0,1,.7,1.47A7.43,7.43,0,0,1,324.11,327.54Zm-5.08-1.2h3.76a2.67,2.67,0,0,0-.55-1.6,1.64,1.64,0,0,0-1.33-.6,1.67,1.67,0,0,0-1.29.55A2.7,2.7,0,0,0,319,326.34Z" transform="translate(-127.03 -234.34)"/><path class="cls-8" d="M328.24,324.33a3,3,0,0,0-.55.05,1.75,1.75,0,0,0-.47.2,2.23,2.23,0,0,0-.84,1,4.21,4.21,0,0,0-.29,1.71V331h-1.16v-7.87h1.16v1.18a3.58,3.58,0,0,1,.51-.76,2.31,2.31,0,0,1,.68-.52,2.84,2.84,0,0,1,1-.19Z" transform="translate(-127.03 -234.34)"/><path class="cls-8" d="M334.28,324.41h-.92V331h-1.18v-6.59h-.8v-1.23h.8v-.87a5.33,5.33,0,0,1,.06-.94,1.54,1.54,0,0,1,.23-.59,2,2,0,0,1,.41-.46,1,1,0,0,1,.61-.2h.79v1.25h-.35a.65.65,0,0,0-.19,0,.48.48,0,0,0-.16.12.73.73,0,0,0-.19.41,4.06,4.06,0,0,0,0,.54v.69h.92Z" transform="translate(-127.03 -234.34)"/><path class="cls-8" d="M337.83,322.82a2.85,2.85,0,0,1,1.34.32,3.26,3.26,0,0,1,1,.88,4.22,4.22,0,0,1,.64,1.35,6.68,6.68,0,0,1,0,3.4,4,4,0,0,1-.64,1.33,3,3,0,0,1-1,.89,2.88,2.88,0,0,1-3.7-.89,4,4,0,0,1-.64-1.33,7,7,0,0,1,0-3.4,4.22,4.22,0,0,1,.64-1.35,3.15,3.15,0,0,1,1-.88A2.86,2.86,0,0,1,337.83,322.82Zm0,7.19a1.61,1.61,0,0,0,1.41-.83,4.56,4.56,0,0,0,0-4.23,1.63,1.63,0,0,0-2.82,0,4.56,4.56,0,0,0,0,4.23A1.61,1.61,0,0,0,337.83,330Z" transform="translate(-127.03 -234.34)"/><path class="cls-8" d="M345.16,324.33a3.12,3.12,0,0,0-.55.05,1.75,1.75,0,0,0-.47.2,2.23,2.23,0,0,0-.84,1,4.21,4.21,0,0,0-.29,1.71V331h-1.16v-7.87H343v1.18a4,4,0,0,1,.51-.76,2.31,2.31,0,0,1,.68-.52,2.84,2.84,0,0,1,1-.19Z" transform="translate(-127.03 -234.34)"/><path class="cls-8" d="M350.16,331H349V320.14h1.16Z" transform="translate(-127.03 -234.34)"/><path class="cls-8" d="M357.09,331h-1.17v-4.74a2.49,2.49,0,0,0-.37-1.47,1.26,1.26,0,0,0-1.09-.49,1.44,1.44,0,0,0-.71.18,1.83,1.83,0,0,0-.55.49,2.23,2.23,0,0,0-.37.72,3,3,0,0,0-.13.86V331h-1.16v-7.87h1.16V324a4.23,4.23,0,0,1,1-.87,2.29,2.29,0,0,1,1.5-.27,1.82,1.82,0,0,1,.87.38,3,3,0,0,1,.59.69,3.75,3.75,0,0,1,.44,1.72Z" transform="translate(-127.03 -234.34)"/><path class="cls-8" d="M364,331h-1.18v-4.74a2.49,2.49,0,0,0-.36-1.47,1.27,1.27,0,0,0-1.1-.49,1.4,1.4,0,0,0-.7.18,1.83,1.83,0,0,0-.55.49,2,2,0,0,0-.37.72,2.71,2.71,0,0,0-.13.86V331h-1.16v-7.87h1.16V324a4.23,4.23,0,0,1,1-.87,2.27,2.27,0,0,1,1.49-.27,1.81,1.81,0,0,1,.88.38,2.73,2.73,0,0,1,.58.69,3,3,0,0,1,.34.86,3.33,3.33,0,0,1,.11.86Z" transform="translate(-127.03 -234.34)"/><path class="cls-8" d="M368,322.82a2.82,2.82,0,0,1,1.34.32,3.41,3.41,0,0,1,1,.88,4.43,4.43,0,0,1,.63,1.35,6.68,6.68,0,0,1,0,3.4,4.21,4.21,0,0,1-.63,1.33,3.07,3.07,0,0,1-1,.89,2.82,2.82,0,0,1-1.34.31,2.78,2.78,0,0,1-2.36-1.2,4,4,0,0,1-.64-1.33,7,7,0,0,1,0-3.4,4.22,4.22,0,0,1,.64-1.35,3.15,3.15,0,0,1,1-.88A2.86,2.86,0,0,1,368,322.82Zm0,7.19a1.61,1.61,0,0,0,1.41-.83,4.56,4.56,0,0,0,0-4.23,1.63,1.63,0,0,0-2.82,0,4.56,4.56,0,0,0,0,4.23A1.61,1.61,0,0,0,368,330Z" transform="translate(-127.03 -234.34)"/><path class="cls-8" d="M377.57,323.11,375.12,331h-1.43l-2.45-7.89h1.25l1.91,6.23,1.92-6.23Z" transform="translate(-127.03 -234.34)"/><path class="cls-8" d="M384.4,331.42h-1.21a2.22,2.22,0,0,1-.18-.59,4.23,4.23,0,0,1-.05-.63,2.6,2.6,0,0,1-3.35.78,2.78,2.78,0,0,1-1-.88,4,4,0,0,1-.63-1.35,6.71,6.71,0,0,1-.22-1.73,6.89,6.89,0,0,1,.22-1.76,4.21,4.21,0,0,1,.63-1.35,2.81,2.81,0,0,1,1-.89,2.6,2.6,0,0,1,1.25-.31A2.47,2.47,0,0,1,382,323a2.68,2.68,0,0,1,.93.82v-1.11h1.17v7.12a5.63,5.63,0,0,0,.07.87A2.55,2.55,0,0,0,384.4,331.42ZM381,329.93a1.62,1.62,0,0,0,1.41-.76,4.81,4.81,0,0,0,0-4.31,1.6,1.6,0,0,0-1.41-.76,1.58,1.58,0,0,0-1.42.81,4.68,4.68,0,0,0,0,4.21A1.58,1.58,0,0,0,381,329.93Z" transform="translate(-127.03 -234.34)"/><path class="cls-8" d="M387.72,331h-.79a1,1,0,0,1-.61-.19,1.44,1.44,0,0,1-.41-.47,1.55,1.55,0,0,1-.24-.58,6.78,6.78,0,0,1-.05-.94v-4.43h-.8v-1.23h.8v-2.45h1.18v2.45h.92v1.23h-.92v4.25a2.53,2.53,0,0,1,0,.29,1.66,1.66,0,0,0,0,.24.65.65,0,0,0,.06.21.77.77,0,0,0,.14.19.24.24,0,0,0,.14.12.76.76,0,0,0,.2.06h.37Z" transform="translate(-127.03 -234.34)"/><path class="cls-8" d="M389.8,321.48h-1.16V320h1.16Zm0,9.52h-1.16v-7.95h1.16Z" transform="translate(-127.03 -234.34)"/><path class="cls-8" d="M396.77,323.11,394.31,331h-1.42l-2.45-7.89h1.25l1.91,6.23,1.92-6.23Z" transform="translate(-127.03 -234.34)"/><path class="cls-8" d="M403.27,327.54h-5.1a2.83,2.83,0,0,0,.6,1.79,1.66,1.66,0,0,0,1.3.68,1.48,1.48,0,0,0,1.14-.41,2,2,0,0,0,.49-.84H403a4.09,4.09,0,0,1-.33.9,3.11,3.11,0,0,1-.56.83,2.92,2.92,0,0,1-.86.59,2.87,2.87,0,0,1-1.19.22,2.72,2.72,0,0,1-1.31-.31,2.89,2.89,0,0,1-1-.89,4.06,4.06,0,0,1-.67-1.33,5.79,5.79,0,0,1-.24-1.71,6.11,6.11,0,0,1,.23-1.69,4,4,0,0,1,.64-1.35,3.19,3.19,0,0,1,1-.88,2.8,2.8,0,0,1,1.32-.32,3,3,0,0,1,1.25.28,2.87,2.87,0,0,1,1,.86,4.19,4.19,0,0,1,.7,1.47A7.83,7.83,0,0,1,403.27,327.54Zm-5.08-1.2H402a2.74,2.74,0,0,0-.55-1.6,1.66,1.66,0,0,0-1.34-.6,1.64,1.64,0,0,0-1.28.55A2.71,2.71,0,0,0,398.19,326.34Z" transform="translate(-127.03 -234.34)"/><path class="cls-8" d="M413.89,331h-1.17v-5h-4.39v5h-1.16V320.14h1.16v4.48h4.39v-4.48h1.17Z" transform="translate(-127.03 -234.34)"/><path class="cls-8" d="M416.42,321.48h-1.15V320h1.15Zm0,9.52h-1.15v-7.95h1.15Z" transform="translate(-127.03 -234.34)"/><path class="cls-8" d="M423.65,323.08v7.42a4.51,4.51,0,0,1-.26,1.62,3,3,0,0,1-.68,1.06,2.57,2.57,0,0,1-1,.56,3.46,3.46,0,0,1-1.1.17,3.17,3.17,0,0,1-1.23-.22,2.84,2.84,0,0,1-.93-.61,3,3,0,0,1-.6-.87,2.62,2.62,0,0,1-.24-1h1.19a1.6,1.6,0,0,0,.47,1,1.78,1.78,0,0,0,1.36.46,1.66,1.66,0,0,0,1.37-.55,2.49,2.49,0,0,0,.44-1.57v-1.08a3.25,3.25,0,0,1-1,.84,2.21,2.21,0,0,1-1.14.32,2.42,2.42,0,0,1-1.19-.3,3.18,3.18,0,0,1-1-.82,4.1,4.1,0,0,1-.64-1.25,5,5,0,0,1-.24-1.59,5.21,5.21,0,0,1,.22-1.56,4,4,0,0,1,.62-1.22,3.15,3.15,0,0,1,1-.82,2.66,2.66,0,0,1,1.24-.28,2.39,2.39,0,0,1,1.15.28,3,3,0,0,1,.94.82v-.8Zm-3.1,6.18a1.67,1.67,0,0,0,1.39-.68,3,3,0,0,0,.53-1.92,2.83,2.83,0,0,0-.53-1.88,1.83,1.83,0,0,0-2.78,0,2.89,2.89,0,0,0-.53,1.88,3,3,0,0,0,.53,1.92A1.67,1.67,0,0,0,420.55,329.26Z" transform="translate(-127.03 -234.34)"/><path class="cls-8" d="M430.59,331h-1.18v-4.74a2.53,2.53,0,0,0-.35-1.49,1.25,1.25,0,0,0-1.08-.47,1.43,1.43,0,0,0-.71.17,2,2,0,0,0-.56.48,2.3,2.3,0,0,0-.38.71,2.76,2.76,0,0,0-.13.86V331H425V320.14h1.16V324a4.23,4.23,0,0,1,1-.87,2.26,2.26,0,0,1,1.49-.27,1.82,1.82,0,0,1,.87.38,2.58,2.58,0,0,1,.59.69,3.35,3.35,0,0,1,.34.86,3.83,3.83,0,0,1,.11.86Z" transform="translate(-127.03 -234.34)"/><path class="cls-8" d="M437.77,327.54h-5.11a3,3,0,0,0,.6,1.79,1.68,1.68,0,0,0,1.31.68,1.47,1.47,0,0,0,1.13-.41,2,2,0,0,0,.5-.84h1.34a5.45,5.45,0,0,1-.33.9,3.4,3.4,0,0,1-.57.83,2.87,2.87,0,0,1-.85.59,2.91,2.91,0,0,1-1.19.22,2.79,2.79,0,0,1-1.32-.31,3,3,0,0,1-1-.89,4.07,4.07,0,0,1-.68-1.33,6.54,6.54,0,0,1,0-3.4,4.24,4.24,0,0,1,.65-1.35,3.19,3.19,0,0,1,1-.88,2.74,2.74,0,0,1,1.32-.32,2.92,2.92,0,0,1,1.24.28,3,3,0,0,1,1,.86,4.18,4.18,0,0,1,.69,1.47A7.43,7.43,0,0,1,437.77,327.54Zm-5.08-1.2h3.76a2.67,2.67,0,0,0-.55-1.6,1.63,1.63,0,0,0-1.33-.6,1.67,1.67,0,0,0-1.29.55A2.77,2.77,0,0,0,432.69,326.34Z" transform="translate(-127.03 -234.34)"/><path class="cls-8" d="M441.9,324.33a3.12,3.12,0,0,0-.55.05,1.75,1.75,0,0,0-.47.2,2.23,2.23,0,0,0-.84,1,4.21,4.21,0,0,0-.29,1.71V331h-1.16v-7.87h1.16v1.18a4,4,0,0,1,.51-.76,2.31,2.31,0,0,1,.68-.52,2.84,2.84,0,0,1,1-.19Z" transform="translate(-127.03 -234.34)"/><path class="cls-8" d="M451.93,331h-6.19V320.14h6.1v1.34h-4.93v3.23h4.71v1.35h-4.71v3.63h5Z" transform="translate(-127.03 -234.34)"/><path class="cls-8" d="M458.71,331h-1.17v-.8a2.9,2.9,0,0,1-.93.82,2.45,2.45,0,0,1-1.16.28,2.63,2.63,0,0,1-1.26-.3,2.9,2.9,0,0,1-1-.86,4,4,0,0,1-.62-1.32,6.79,6.79,0,0,1,0-3.43,4,4,0,0,1,.62-1.33,3,3,0,0,1,1-.86,2.53,2.53,0,0,1,1.26-.31,2.35,2.35,0,0,1,1.16.29,2.72,2.72,0,0,1,.93.8v-3.84h1.17Zm-3.08-1a1.62,1.62,0,0,0,1.4-.74,4.66,4.66,0,0,0,0-4.24,1.61,1.61,0,0,0-1.4-.73,1.58,1.58,0,0,0-1.42.78,3.73,3.73,0,0,0-.5,2.07,3.78,3.78,0,0,0,.5,2.07A1.57,1.57,0,0,0,455.63,330Z" transform="translate(-127.03 -234.34)"/><path class="cls-8" d="M465.53,331h-1.16v-.94a3,3,0,0,1-.85.87,2.21,2.21,0,0,1-1.28.37,2,2,0,0,1-.82-.17,2.31,2.31,0,0,1-.73-.53,2.9,2.9,0,0,1-.51-.92,3.66,3.66,0,0,1-.2-1.3v-5.25h1.17v4.78a2.38,2.38,0,0,0,.41,1.55,1.25,1.25,0,0,0,1.13.42,1.65,1.65,0,0,0,1.2-.62,2.48,2.48,0,0,0,.48-1.65v-4.48h1.16Z" transform="translate(-127.03 -234.34)"/><path class="cls-8" d="M471.24,328.49h1.32a5,5,0,0,1-.36,1.07,3.57,3.57,0,0,1-.61.9,2.75,2.75,0,0,1-.88.62,2.81,2.81,0,0,1-1.15.22,2.86,2.86,0,0,1-1.35-.31,3,3,0,0,1-1-.87,3.88,3.88,0,0,1-.64-1.34,6,6,0,0,1-.22-1.7,6.18,6.18,0,0,1,.22-1.7,3.88,3.88,0,0,1,.64-1.34,3.07,3.07,0,0,1,1-.9,2.86,2.86,0,0,1,1.35-.32,2.66,2.66,0,0,1,1.18.26,3.27,3.27,0,0,1,.9.66,3.59,3.59,0,0,1,.61.92,3.84,3.84,0,0,1,.31,1h-1.31a4.35,4.35,0,0,0-.17-.51,2.17,2.17,0,0,0-.32-.49,1.59,1.59,0,0,0-.5-.37,1.54,1.54,0,0,0-.7-.15,1.59,1.59,0,0,0-1.4.82,4,4,0,0,0-.52,2.12,3.92,3.92,0,0,0,.52,2.11,1.59,1.59,0,0,0,1.4.82,1.49,1.49,0,0,0,1.13-.45A2.16,2.16,0,0,0,471.24,328.49Z" transform="translate(-127.03 -234.34)"/><path class="cls-8" d="M479.51,331.42h-1.2a1.93,1.93,0,0,1-.19-.59,4.26,4.26,0,0,1,0-.63,2.76,2.76,0,0,1-.93.81,2.62,2.62,0,0,1-1.17.28,2.67,2.67,0,0,1-1.26-.31,3,3,0,0,1-1-.88,4,4,0,0,1-.62-1.35,6.3,6.3,0,0,1-.22-1.73,6.48,6.48,0,0,1,.22-1.76,4.19,4.19,0,0,1,.62-1.35,3,3,0,0,1,1-.89,2.67,2.67,0,0,1,1.26-.31,2.46,2.46,0,0,1,1.16.29,2.8,2.8,0,0,1,.94.82v-1.11h1.16v7.12a5.73,5.73,0,0,0,.08.87A2.6,2.6,0,0,0,479.51,331.42Zm-3.35-1.49a1.62,1.62,0,0,0,1.4-.76,4.73,4.73,0,0,0,0-4.31,1.6,1.6,0,0,0-1.4-.76,1.57,1.57,0,0,0-1.42.81,4.68,4.68,0,0,0,0,4.21A1.57,1.57,0,0,0,476.16,329.93Z" transform="translate(-127.03 -234.34)"/><path class="cls-8" d="M482.84,331H482a.94.94,0,0,1-.6-.19,1.47,1.47,0,0,1-.42-.47,1.39,1.39,0,0,1-.23-.58,6.78,6.78,0,0,1-.05-.94v-4.43h-.81v-1.23h.81v-2.45h1.18v2.45h.92v1.23h-.92v4.25c0,.11,0,.21,0,.29a.9.9,0,0,0,0,.24.65.65,0,0,0,.06.21.72.72,0,0,0,.13.19.29.29,0,0,0,.15.12.66.66,0,0,0,.2.06h.37Z" transform="translate(-127.03 -234.34)"/><path class="cls-8" d="M484.91,321.48h-1.15V320h1.15Zm0,9.52h-1.15v-7.95h1.15Z" transform="translate(-127.03 -234.34)"/><path class="cls-8" d="M488.92,322.82a2.85,2.85,0,0,1,1.34.32,3.26,3.26,0,0,1,1,.88,4.22,4.22,0,0,1,.64,1.35,6.68,6.68,0,0,1,0,3.4,4,4,0,0,1-.64,1.33,3,3,0,0,1-1,.89,2.84,2.84,0,0,1-1.34.31,2.8,2.8,0,0,1-1.35-.31,2.86,2.86,0,0,1-1-.89,4,4,0,0,1-.64-1.33,7,7,0,0,1,0-3.4,4.22,4.22,0,0,1,.64-1.35,3.15,3.15,0,0,1,1-.88A2.81,2.81,0,0,1,488.92,322.82Zm0,7.19a1.61,1.61,0,0,0,1.41-.83,4.56,4.56,0,0,0,0-4.23,1.63,1.63,0,0,0-2.82,0,4.49,4.49,0,0,0,0,4.23A1.61,1.61,0,0,0,488.92,330Z" transform="translate(-127.03 -234.34)"/><path class="cls-8" d="M498.49,331h-1.18v-4.74a2.49,2.49,0,0,0-.36-1.47,1.26,1.26,0,0,0-1.09-.49,1.44,1.44,0,0,0-.71.18,1.83,1.83,0,0,0-.55.49,2,2,0,0,0-.37.72,2.71,2.71,0,0,0-.13.86V331h-1.16v-7.87h1.16V324a4.23,4.23,0,0,1,1-.87,2.27,2.27,0,0,1,1.49-.27,1.81,1.81,0,0,1,.88.38,2.73,2.73,0,0,1,.58.69,3,3,0,0,1,.34.86,3.33,3.33,0,0,1,.11.86Z" transform="translate(-127.03 -234.34)"/><text x="-127.03" y="-234.34"/><text x="-127.03" y="-234.34"/><path class="cls-9" d="M272.62,308l-24.57-27.54-2.3,2.12-1.93,1.75-1.62,1.44-1.26,1.08V308H229.78V243.83H241V272q3-2.61,6.3-5.94t6.84-6.93q3.42-3.69,6.84-7.56t6.57-7.74h14.13q-7.38,9.36-13.73,16.52t-11.74,12.37L286.66,308Z" transform="translate(-127.03 -234.34)"/><path class="cls-9" d="M347.68,285.41a43,43,0,0,1-3.2,9,28.48,28.48,0,0,1-5.53,7.78,26.56,26.56,0,0,1-8.33,5.45,28.89,28.89,0,0,1-11.2,2,31.29,31.29,0,0,1-12.51-2.38,26.16,26.16,0,0,1-9.36-6.8,29.89,29.89,0,0,1-5.9-10.66,45.34,45.34,0,0,1-2-14,43.74,43.74,0,0,1,2-13.72,29.12,29.12,0,0,1,5.9-10.49,26.13,26.13,0,0,1,9.36-6.79,31.12,31.12,0,0,1,12.51-2.39A27.69,27.69,0,0,1,339,250a27.87,27.87,0,0,1,5.53,7.25,36.59,36.59,0,0,1,3.11,7.78H335.53a26.68,26.68,0,0,0-2.07-4.41,14.69,14.69,0,0,0-3.15-3.78,13.86,13.86,0,0,0-4.59-2.7,18.27,18.27,0,0,0-6.3-1q-8.46,0-13.14,6.21t-4.68,16.56q0,10.8,4.68,17.1t13.14,6.3q7,0,10.8-4.1a22.9,22.9,0,0,0,5.31-9.76Z" transform="translate(-127.03 -234.34)"/><path class="cls-9" d="M360,308V243.83h11.16V308Z" transform="translate(-127.03 -234.34)"/><path class="cls-9" d="M425,308V279.74H397.18V308H385.93V243.83h11.25V269H425v-25.2h11.25V308Z" transform="translate(-127.03 -234.34)"/><path class="cls-9" d="M451,308V243.83h45.9v10.62H462.25v15.12h33.12v10.62H462.25v17.37h35.28V308Z" transform="translate(-127.03 -234.34)"/></svg>