<svg id="Layer_1" data-name="Layer 1" xmlns="http://www.w3.org/2000/svg" xmlns:xlink="http://www.w3.org/1999/xlink" viewBox="0 0 1878.03 200.99"><defs><style>.cls-1{fill:#fff;}.cls-2{fill:none;}.cls-3{fill:#76777a;}.cls-4{fill:url(#linear-gradient);}.cls-5{fill:url(#linear-gradient-2);}.cls-6{fill:url(#linear-gradient-3);}.cls-7{fill:url(#linear-gradient-4);}.cls-8{fill:url(#linear-gradient-5);}.cls-9{fill:#003b71;}.cls-10{fill:#8c3a2b;}.cls-11{fill:url(#linear-gradient-6);}.cls-12{fill:url(#linear-gradient-7);}.cls-13{fill:url(#linear-gradient-8);}.cls-14{fill:url(#linear-gradient-9);}.cls-15{fill:url(#linear-gradient-10);}.cls-16{fill:#919195;}.cls-17{fill:#00467f;}.cls-18{fill:#6d6e71;}.cls-19{fill:#3a3435;}</style><linearGradient id="linear-gradient" x1="665.67" y1="556.26" x2="628.22" y2="577.45" gradientTransform="matrix(1, 0, 0, -1, 0, 1082)" gradientUnits="userSpaceOnUse"><stop offset="0" stop-color="#fff"/><stop offset="0.2" stop-color="#e8ec8f"/><stop offset="0.76" stop-color="#abcd05"/><stop offset="1" stop-color="#8fc31f"/></linearGradient><linearGradient id="linear-gradient-2" x1="662.56" y1="570.21" x2="627.63" y2="593.57" gradientTransform="matrix(1, 0, 0, -1, 0, 1082)" gradientUnits="userSpaceOnUse"><stop offset="0" stop-color="#e6eb91"/><stop offset="0.02" stop-color="#e2e98a"/><stop offset="0.09" stop-color="#d3e16f"/><stop offset="0.15" stop-color="#cadd5f"/><stop offset="0.2" stop-color="#c7db59"/><stop offset="0.4" stop-color="#a3c911"/><stop offset="0.75" stop-color="#7dbb24"/><stop offset="1" stop-color="#66b230"/></linearGradient><linearGradient id="linear-gradient-3" x1="667.32" y1="577.33" x2="632.39" y2="600.69" xlink:href="#linear-gradient-2"/><linearGradient id="linear-gradient-4" x1="650.08" y1="551.54" x2="615.14" y2="574.9" xlink:href="#linear-gradient-2"/><linearGradient id="linear-gradient-5" x1="645.77" y1="545.11" x2="610.84" y2="568.47" xlink:href="#linear-gradient-2"/><linearGradient id="linear-gradient-6" x1="1519.03" y1="306.63" x2="1459.01" y2="340.6" gradientTransform="matrix(1, 0, 0, -1, -127.03, 847.66)" gradientUnits="userSpaceOnUse"><stop offset="0" stop-color="#fff"/><stop offset="0.2" stop-color="#e2e993"/><stop offset="0.76" stop-color="#a6ce39"/><stop offset="1" stop-color="#8dc63f"/></linearGradient><linearGradient id="linear-gradient-7" x1="1514.04" y1="328.98" x2="1458.06" y2="366.41" gradientTransform="matrix(1, 0, 0, -1, -127.03, 847.66)" gradientUnits="userSpaceOnUse"><stop offset="0" stop-color="#e0e995"/><stop offset="0.07" stop-color="#d0e17e"/><stop offset="0.14" stop-color="#c5dc6e"/><stop offset="0.2" stop-color="#c1da68"/><stop offset="0.4" stop-color="#9fc73b"/><stop offset="0.7" stop-color="#83bd40"/><stop offset="1" stop-color="#6cb545"/></linearGradient><linearGradient id="linear-gradient-8" x1="1521.64" y1="340.36" x2="1465.67" y2="377.79" xlink:href="#linear-gradient-7"/><linearGradient id="linear-gradient-9" x1="1494.04" y1="299.08" x2="1438.05" y2="336.51" xlink:href="#linear-gradient-7"/><linearGradient id="linear-gradient-10" x1="1487.16" y1="288.8" x2="1431.19" y2="326.23" xlink:href="#linear-gradient-7"/></defs><title>organizers</title><g id="레이어_1" data-name="레이어 1"><path class="cls-1" d="M740.74,525a85.48,85.48,0,1,1-85.48-85.48h0A85.47,85.47,0,0,1,740.74,525Z" transform="translate(-26.49 -439.51)"/><path class="cls-2" d="M737.05,525a81.79,81.79,0,1,1-81.79-81.79h0A81.79,81.79,0,0,1,737.05,525Z" transform="translate(-26.49 -439.51)"/><path class="cls-2" d="M718.93,525a63.67,63.67,0,1,1-63.67-63.67h0A63.66,63.66,0,0,1,718.93,525Z" transform="translate(-26.49 -439.51)"/><path class="cls-2" d="M707.26,524.15a51.69,51.69,0,1,1-51.68-51.69,51.67,51.67,0,0,1,51.68,51.69Z" transform="translate(-26.49 -439.51)"/><path class="cls-3" d="M707.49,572.3,706,573.86c.18.16,3.15,3,3.15,3l-1.68,1.77-3.15-3c-.15.17-1.43,1.5-1.58,1.67l3.15,3-2.24,2.36,1.47,1.4,11-11.46-1.47-1.41-3.84,4-3.15-3A.8.8,0,0,0,707.49,572.3Z" transform="translate(-26.49 -439.51)"/><path class="cls-3" d="M712,570.62c-.19-.17-6.32-6-6.51-6.2l-.1.11s-9.21,9.63-9.38,9.83l1.46,1.4c.19-.18,7.91-8.26,7.91-8.26l5,4.81Z" transform="translate(-26.49 -439.51)"/><path class="cls-3" d="M599.45,575.32a4.47,4.47,0,1,0,6.26.88,2.6,2.6,0,0,0-.3-.36A4.25,4.25,0,0,0,599.45,575.32Zm1.47,1.54a2.36,2.36,0,1,1,.21,3.33L601,580A2.27,2.27,0,0,1,600.92,576.86Z" transform="translate(-26.49 -439.51)"/><path class="cls-3" d="M614.18,573.63l-1.42-1.51-1.84,1.72s-1.62-1.74-1.79-1.91l-1.43,1.33c.17.16,1.79,1.91,1.79,1.91l-2.42,2.25c.15.16,1.36,1.47,1.52,1.62l5.68-5.3Z" transform="translate(-26.49 -439.51)"/><path class="cls-3" d="M607.42,566.33l-8.36.34c0,.22.13,2,.14,2.22l6-.33s-.7,5.4-.74,5.64l2.2.3c0-.25.9-7.87.94-8.17Z" transform="translate(-26.49 -439.51)"/><path class="cls-3" d="M673.87,600.7l2.2-.39-2.47-14.44-.15,0-2,.35c0,.25.76,4.45.76,4.45l-1.3.22s-.71-4.2-.76-4.45l-2.21.4,1.58,9.19-7,1.18-1.2-7.09,5.14-.88-.31-1.83h0l-7.29,1.24c.45,2.61,1.82,10.64,1.86,10.85l9.14-1.57.57,3.34,2.21-.38c0-.25-1.37-8.09-1.37-8.09l1.29-.22Z" transform="translate(-26.49 -439.51)"/><path class="cls-3" d="M629.17,589.51l-.69-.37,2.73-5.11-.12-.07s-11.48-6.12-11.69-6.25l-.94,1.76,9.84,5.26-1.8,3.35-10.72-5.72-.93,1.76,4.21,2.24s-1.13,2.1-1.23,2.31l2,1.08,1.24-2.31,1.79.95s-1.12,2.11-1.24,2.31l2,1.08,1.23-2.31,3.49,1.86.93-1.76Zm-12.09-2.66-2-1.05-2.45,4.61,12.06,6.44.94-1.76-10.09-5.38Z" transform="translate(-26.49 -439.51)"/><path class="cls-3" d="M638.68,595.8h-.14l-2.08-.33-.81,5.16,13.61,2.16.3-2L638.17,599S638.63,596,638.68,595.8Zm12.35-5s.36-2.31.39-2.54l-.14,0-2.07-.33-1,6-2.24-.35.9-5.74h-.14l-9.31-1.47-.3,2,7.21,1.13s-.39,2.59-.59,3.76l-2.23-.35s.29-1.87.33-2.1h-.14l-2.11-.33c0,.22-.34,2.09-.34,2.09l-3.41-.54-.32,2,12.38,2-.36,2.3,2.22.35c0-.24.91-5.78.91-5.78l2.27.36.31-2Z" transform="translate(-26.49 -439.51)"/><path class="cls-3" d="M691.2,577.19l-1.81,1c.11.21,4.06,7.34,4.19,7.56l1.93-1.07-2-3.65,2-1.09-1-1.71-2,1.09-1.22-2.21Z" transform="translate(-26.49 -439.51)"/><path class="cls-3" d="M695.85,585.65l-12.1,6.69c.11.19.86,1.55,1,1.73L695,588.38s1.34,2.44,1.46,2.64l1.94-1.08c-.11-.21-2.29-4.15-2.42-4.36Z" transform="translate(-26.49 -439.51)"/><path class="cls-3" d="M687.5,579.53l-3.6,2h0l-.65-1.18-2,1.09.65,1.18-3.66,2,.92,1.64,1.31-.73a4.23,4.23,0,0,0,.5,2.31,4.52,4.52,0,0,0,7.87-4.37,4.11,4.11,0,0,0-1.69-1.64l1.23-.68Zm-1.51,8a2,2,0,1,1,.9-2.84A2.12,2.12,0,0,1,686,587.49Z" transform="translate(-26.49 -439.51)"/><path class="cls-3" d="M731.42,531l-1.69-1.06a3.15,3.15,0,0,0,1.85-2.61,2,2,0,0,0-1.66-2.36l-.28,0c-1.57,0-2.14,1.4-2.81,3s-1.84,3.54-4,3.67c-2.67.16-4.46-2.2-4.33-5.43a6.14,6.14,0,0,1,2.32-4.66l2,.92a4.74,4.74,0,0,0-3,4.33,2.45,2.45,0,0,0,2.23,2.65,1.15,1.15,0,0,0,.26,0c1.58,0,2.14-1.35,2.79-2.92.72-1.75,1.55-3.74,4.06-3.75s3.93,1.93,3.79,5A5.15,5.15,0,0,1,731.42,531Z" transform="translate(-26.49 -439.51)"/><path class="cls-3" d="M584.15,552.89l2,.22a3.15,3.15,0,0,0-.52,3.15,2,2,0,0,0,2.53,1.39,1.06,1.06,0,0,0,.25-.09c1.42-.7,1.33-2.2,1.22-3.93a5,5,0,0,1,2-5.07c2.33-1.31,5,0,6.27,3a6.16,6.16,0,0,1,0,5.19l-2.21,0a4.72,4.72,0,0,0,.81-5.2,2.45,2.45,0,0,0-3.17-1.4l-.23.11c-1.42.7-1.34,2.14-1.23,3.84.11,1.89.24,4-2,5.15s-4.39,0-5.57-2.79A5.13,5.13,0,0,1,584.15,552.89Z" transform="translate(-26.49 -439.51)"/><path class="cls-3" d="M582.06,503.06l-.14.14a9.44,9.44,0,0,0-2.36,4.78,6.89,6.89,0,0,0,4.43,8.69,6.52,6.52,0,0,0,1,.25,6.63,6.63,0,0,0,8.21-4.56,6.06,6.06,0,0,0,.23-1.2,16.39,16.39,0,0,0,.21-5.41l0-.17-5.27-1.1-.45,2.15,4.45.92a6.39,6.39,0,0,1,0,2.82,5.19,5.19,0,0,1-5.81,4.48,5,5,0,0,1-1.14-.28,5.08,5.08,0,0,1-4.77-5.38,5.19,5.19,0,0,1,.13-.88,6.13,6.13,0,0,1,2.72-3.93l.09-.06Z" transform="translate(-26.49 -439.51)"/><path class="cls-3" d="M595.41,475.59l-1.24,1.76,3.12,6.52-7.2-.73-1.58,2.24,9.39.54c.11.09,4.68,3.3,4.68,3.3l1.26-1.79L599,484Z" transform="translate(-26.49 -439.51)"/><path class="cls-3" d="M723.59,561.77l.87-2L720.13,554l7.21-.7,1.1-2.5-9.3,1.29-5.25-2.32-.88,2,5.39,2.38Z" transform="translate(-26.49 -439.51)"/><path class="cls-3" d="M591.07,494.75l-2.91-8.49-1,2,2.75,8-5.37-2.64-1,2,12.3,6.07,1-2-6-2.93,8.43-2.06,1.23-2.5Z" transform="translate(-26.49 -439.51)"/><path class="cls-3" d="M632.2,457.88l4.07-8-2.12.69-3.81,7.52c-.13-.39-1.84-5.7-1.84-5.7l-2.09.69,4.24,13.05,2.08-.66-2.06-6.32,7.35,4.6,2.65-.85Z" transform="translate(-26.49 -439.51)"/><polygon class="cls-3" points="617.16 22.72 618.79 22.56 621.39 11.72 625.81 21.87 627.68 21.69 630.89 7.57 629 7.77 626.4 18.92 621.86 8.47 620.61 8.59 618.04 19.73 613.74 9.27 611.42 9.49 617.16 22.72"/><path class="cls-3" d="M665,448.11l-1-.11-7.53,13.08,1.87.24,2.77-4.9,4.2.52,1.45,5.42,2.57.31Zm-1.09,3c.24.78.94,3.9,1.1,4.45l-3.34-.39Z" transform="translate(-26.49 -439.51)"/><rect class="cls-3" x="706.78" y="484.46" width="13.71" height="2.18" transform="translate(-176 43.13) rotate(-34.04)"/><rect class="cls-3" x="723.63" y="529.34" width="2.18" height="13.71" transform="translate(53.6 726.9) rotate(-80.85)"/><path class="cls-3" d="M698.21,470c-1.91,2.79-3.93,3.24-6.08,1.77-2.43-1.67-2.5-3.34-.47-6.3l4.32-6.29-1.79-1.24-4.43,6.47a6.05,6.05,0,0,0-1.42,4.63,6.38,6.38,0,0,0,2.88,3.75,5.19,5.19,0,0,0,7.33-.52,5.61,5.61,0,0,0,.68-1l4.61-6.74-1.27-.88Z" transform="translate(-26.49 -439.51)"/><path class="cls-3" d="M609.57,472.22c2.36,2.43,2.42,4.49.56,6.3-2.11,2.06-3.76,1.81-6.27-.75l-5.36-5.45L597,473.84l5.51,5.6a6,6,0,0,0,4.27,2.29,6.45,6.45,0,0,0,4.24-2.1,5.19,5.19,0,0,0,.91-7.29,5.44,5.44,0,0,0-.86-.87l-5.71-5.83-1.12,1.1Z" transform="translate(-26.49 -439.51)"/><path class="cls-3" d="M586.52,536.93c3.29-.79,5.09.23,5.69,2.77.68,2.86-.39,4.15-3.87,5l-7.45,1.77.5,2.12,7.64-1.82a6.11,6.11,0,0,0,4.17-2.49,6.49,6.49,0,0,0,.45-4.72,5.25,5.25,0,0,0-5.9-4.52,4.79,4.79,0,0,0-1.13.28l-7.94,1.88.36,1.53Z" transform="translate(-26.49 -439.51)"/><polygon class="cls-3" points="685.17 55.94 685.74 57.04 700.58 55.91 699.67 54.14 687.99 55.27 695.72 46.44 694.6 44.27 685.17 55.94"/><path class="cls-3" d="M716.93,503.85l4.79-1.5,1.44,4.53,1.33-.42-1.44-4.53,4.33-1.37,1.57,4.95,1.13-.36-2.23-7-13.08,4.13L717,509.4l1.53-.48Z" transform="translate(-26.49 -439.51)"/><path class="cls-3" d="M731.13,540.91l-1.1-.32-1.15,4.1-12.11-3.4-.59,2.09,12.1,3.41-1.1,3.93,1.11.31Z" transform="translate(-26.49 -439.51)"/><path class="cls-3" d="M717.62,511.55l.27,2.16,6.62-.87-5.85,6.69.3,2.31,5.84-6.69a4.13,4.13,0,0,0,4.17,3.74c2.25-.29,3.22-1.85,2.81-4.87l-.56-4.29Zm8.17,1.12,4.54-.6.27,2.06a2.1,2.1,0,0,1-1.42,2.6,2,2,0,0,1-.49.09c-1.29.11-2.34-.43-2.65-2.37Z" transform="translate(-26.49 -439.51)"/><path class="cls-3" d="M619.15,456.38l-1.33.83,5.22,8.26c-4.83-1.25-13.22-3.18-13.22-3.18l-.94.6,7.33,11.58,1.32-.84L612,465l13.65,3.51.79-.49Z" transform="translate(-26.49 -439.51)"/><path class="cls-3" d="M577.81,520.25l0,1.58,9.76-.2c-3.57,3.48-9.57,9.66-9.57,9.66v1.12l13.72-.28,0-1.57-10.28.2,10.08-9.83,0-.94Z" transform="translate(-26.49 -439.51)"/><path class="cls-3" d="M685.61,453.63l-1.49-.5L681,462.37c-2.06-4.53-5.85-12.27-5.85-12.27l-1-.37-4.38,13,1.49.51s1.83-5.42,3.28-9.75l5.85,12.85.89.3Z" transform="translate(-26.49 -439.51)"/><path class="cls-3" d="M716,476.79l-1.07-1.15-7.15,6.64c.35-5,.71-13.58.71-13.58l-.76-.82-10.07,9.33,1.08,1.15,7.54-7-1,14.07.63.69Z" transform="translate(-26.49 -439.51)"/><path class="cls-4" d="M660.21,507.84a20.23,20.23,0,0,1,27.88-18.79,45.64,45.64,0,0,0-66,62.79,74,74,0,0,1,15.74-15.56,42.34,42.34,0,0,1,17.87-7.72A39.9,39.9,0,0,1,674,530.92a137.81,137.81,0,0,1-9.76-10.87A20.2,20.2,0,0,1,660.21,507.84Z" transform="translate(-26.49 -439.51)"/><path class="cls-5" d="M658.77,522.68l-21.39-41.2A45.56,45.56,0,0,0,626.31,489l32.32,33.63Z" transform="translate(-26.49 -439.51)"/><path class="cls-6" d="M658.88,522.73l2.83-45.52a45.9,45.9,0,0,0-11.11.25l8.26,45.25Z" transform="translate(-26.49 -439.51)"/><path class="cls-7" d="M658.63,522.63l-44.07-16.37a46.2,46.2,0,0,0-2.82,12.11l47,4.38Z" transform="translate(-26.49 -439.51)"/><path class="cls-8" d="M612,529.16a45.86,45.86,0,0,0,2.39,9.37l44.21-15.66Z" transform="translate(-26.49 -439.51)"/><path class="cls-9" d="M621.29,563a43.86,43.86,0,0,1-5.63-5.93,51.73,51.73,0,0,1,77.46-68.48,2,2,0,0,1,.14,2.89l0,.06c-1.06.89-2,.43-4.15-.2a22.06,22.06,0,0,0-9.28-.78,14.87,14.87,0,0,0-12.45,16.78c.78,8.43,7.28,14.53,11.85,18.56,16.05,14.13,10.68,29.28,9.37,32.6A31.61,31.61,0,0,1,658,577.77a45.26,45.26,0,0,1-23.87-7.24c-.34-.16-.68-.61-.26-1.37a48.35,48.35,0,0,1,4.76-8.18,29.35,29.35,0,0,0,20.17,10.23,20.42,20.42,0,0,0,21.3-13.5c3-8.75-.19-17.65-8.66-25.69-7.3-6.93-13.81-13.34-14.19-24.33a21.53,21.53,0,0,1,21.1-21.95c.69,0,1.37,0,2.06.06a41.8,41.8,0,0,0-36.4-4.68A43.08,43.08,0,0,0,625,493.87a.86.86,0,0,0,0,1.14l7.35,10.26-12.66-2.91a.74.74,0,0,0-.79.3A43.43,43.43,0,0,0,622.13,548a45.84,45.84,0,0,1,33.69-19.4c1.49-.1,1.31.43.33.79-20,7.35-27.92,22-33,33.34a1.09,1.09,0,0,1-1.42.61A1,1,0,0,1,621.29,563Z" transform="translate(-26.49 -439.51)"/><path class="cls-3" d="M641.91,549.2s1.26-.56,1.61-.75v8.67h1.57v-10.2l-.25-.17-.08,0c-1.14.57-2.32,1.1-3.31,1.51Z" transform="translate(-26.49 -439.51)"/><path class="cls-3" d="M650.25,552c1.27,0,1.89.66,1.89,2a2.09,2.09,0,0,1-1.89,2.27H650a2.51,2.51,0,0,1-1.84-.91l-.2-.24-.39,1.36.12.06a4.94,4.94,0,0,0,2.27.52,3.48,3.48,0,0,0,3.85-3.07c0-.06,0-.11,0-.17a2.31,2.31,0,0,0-2.14-2.36,2.6,2.6,0,0,0,1.68-2.4c0-1.44-1.13-2.32-2.94-2.32a3,3,0,0,0-2.32,1l.67,1.18.11-.32a1.62,1.62,0,0,1,1.49-1.06,1.43,1.43,0,0,1,1.41,1.45,1.37,1.37,0,0,1,0,.19c0,.93-.26,2-1.49,2l-.82-.06v1A4.05,4.05,0,0,1,650.25,552Z" transform="translate(-26.49 -439.51)"/><path class="cls-3" d="M656,555.06l.39,1.65a3.41,3.41,0,0,0,1.57.39c2.62,0,4.45-2.46,4.45-6,0-3.93-2.39-4.33-3.42-4.33a3.19,3.19,0,0,0-3.38,3,1.5,1.5,0,0,0,0,.3,2.79,2.79,0,0,0,2.53,3,3.38,3.38,0,0,0,.45,0,2.67,2.67,0,0,0,2.2-1.06c-.11,2.2-1,4.2-2.75,4.21A2.36,2.36,0,0,1,656,555.06Zm2.84-2.84c-1.09,0-1.63-.71-1.63-2.19s.72-2.49,1.78-2.49,1.77.85,1.77,2.12S660.06,552.22,658.79,552.22Z" transform="translate(-26.49 -439.51)"/><path class="cls-3" d="M668.61,551.21a2.34,2.34,0,0,0,1.46-2.16c0-1-.78-2.29-2.93-2.29a2.64,2.64,0,0,0-2.88,2.38v.09a2.18,2.18,0,0,0,1.47,2.06,2.88,2.88,0,0,0-2,2.79,3.06,3.06,0,0,0,3.07,3l.33,0a3.27,3.27,0,0,0,3.4-3.12v-.22A2.51,2.51,0,0,0,668.61,551.21Zm-2.85-2c0-.4.1-1.7,1.39-1.7s1.41,1.18,1.41,1.7-.09,1.7-1.41,1.7-1.39-1.31-1.39-1.71Zm1.38,7c-1.07,0-1.81-.92-1.81-2.28s.74-2.29,1.81-2.29,1.8.92,1.8,2.29-.7,2.27-1.8,2.27Z" transform="translate(-26.49 -439.51)"/><path class="cls-9" d="M865,491a24.74,24.74,0,0,0-9.5-8,31.86,31.86,0,0,0-14-2.8,39.68,39.68,0,0,0-15.65,3.15,43.6,43.6,0,0,0-13.32,8.87,50.89,50.89,0,0,0-9.87,13.51,53.41,53.41,0,0,0-5.31,16.95,46.72,46.72,0,0,0,.47,17,35.51,35.51,0,0,0,6,13.42,28.72,28.72,0,0,0,10.62,8.85,31.79,31.79,0,0,0,14.25,3.15,36.15,36.15,0,0,0,16.4-3.73,38.44,38.44,0,0,0,12.85-10.43L879.52,569a61.83,61.83,0,0,1-23.66,17.31,70.75,70.75,0,0,1-27.19,5.62,75.88,75.88,0,0,1-27.85-4.84,53.62,53.62,0,0,1-20.59-13.88,53,53,0,0,1-11.76-21.89,70.45,70.45,0,0,1-1.3-28.69,81.86,81.86,0,0,1,9.41-28.69A76.56,76.56,0,0,1,819,458.17a87.4,87.4,0,0,1,29.25-4.84,66.59,66.59,0,0,1,11.45,1,57.48,57.48,0,0,1,11.46,3.26,45.79,45.79,0,0,1,10.53,6A33.75,33.75,0,0,1,890,472.7Z" transform="translate(-26.49 -439.51)"/><path class="cls-9" d="M910.81,456.68h29.06l-18.44,131.9H892.37Z" transform="translate(-26.49 -439.51)"/><path class="cls-9" d="M967.44,456.68h89.61l-3.72,26.83H992.78l-3.54,24.59h57.19l-3.73,26.83H985.52l-3.73,26.82h63.9L1042,588.58H949Z" transform="translate(-26.49 -439.51)"/><path class="cls-9" d="M1084.81,456.68h89.61l-3.72,26.83h-60.55l-3.54,24.59h57.19l-3.72,26.83h-57.2l-3.73,26.82h63.9l-3.72,26.83h-93Z" transform="translate(-26.49 -439.51)"/><path class="cls-9" d="M597.51,630a3.43,3.43,0,0,0-1.28-1.05,3.58,3.58,0,0,0-1.33-.26A4.91,4.91,0,0,0,593,629a5.21,5.21,0,0,0-1.57,1,5.5,5.5,0,0,0-1.15,1.51,6,6,0,0,0-.53,3.83,3.78,3.78,0,0,0,.7,1.57,3.52,3.52,0,0,0,1.3,1,4.22,4.22,0,0,0,1.82.38,3.75,3.75,0,0,0,1.61-.4,5.61,5.61,0,0,0,1.6-1.23l1.76,1.39a6.65,6.65,0,0,1-2.46,1.8,7.44,7.44,0,0,1-2.83.56,7.25,7.25,0,0,1-2.76-.49,5.17,5.17,0,0,1-3.16-3.6,6.92,6.92,0,0,1-.12-2.83,8.43,8.43,0,0,1,.93-2.9,7.38,7.38,0,0,1,4.15-3.64,8.23,8.23,0,0,1,2.9-.5,6,6,0,0,1,2.44.48,4.86,4.86,0,0,1,1.92,1.62Z" transform="translate(-26.49 -439.51)"/><path class="cls-9" d="M603.55,626.86h8.8l-.3,2.15h-6.44l-.44,3.26h6.09l-.3,2.14h-6.1l-.5,3.6h6.77l-.3,2.16h-9.14Z" transform="translate(-26.49 -439.51)"/><path class="cls-9" d="M616.89,626.86H620l5.05,9.88h0l1.38-9.88h2.37L627,640.17h-3L618.86,630h0l-1.43,10.19H615Z" transform="translate(-26.49 -439.51)"/><path class="cls-9" d="M636.13,629h-4.08l.3-2.15h10.51l-.3,2.15h-4.07l-1.56,11.16h-2.36Z" transform="translate(-26.49 -439.51)"/><path class="cls-9" d="M646.35,626.86h8.81l-.3,2.15h-6.45l-.44,3.26h6.09l-.29,2.14h-6.09l-.5,3.6H654l-.32,2.16H644.5Z" transform="translate(-26.49 -439.51)"/><path class="cls-9" d="M659.71,626.86h4.61a8.61,8.61,0,0,1,1.83.19,3.87,3.87,0,0,1,1.5.61,2.56,2.56,0,0,1,1,1.18,3.53,3.53,0,0,1,.14,1.85,4.4,4.4,0,0,1-.39,1.34,4.32,4.32,0,0,1-.75,1.09,3.82,3.82,0,0,1-1.09.78,4.92,4.92,0,0,1-1.37.4l2.73,5.87H665l-2.29-5.63H661l-.79,5.63h-2.36Zm3.4,5.64a7,7,0,0,0,1,0,3.54,3.54,0,0,0,1-.23,1.81,1.81,0,0,0,1.18-1.57,1.52,1.52,0,0,0-.12-.94,1.39,1.39,0,0,0-.56-.54,2.76,2.76,0,0,0-.84-.23,7,7,0,0,0-.92-.06h-2.05l-.5,3.61Z" transform="translate(-26.49 -439.51)"/><path class="cls-9" d="M680.82,626.86h8.57l-.3,2.15h-6.2l-.49,3.49h5.86l-.31,2.14H682.1l-.79,5.5H679Z" transform="translate(-26.49 -439.51)"/><path class="cls-9" d="M691.82,633.57a8.65,8.65,0,0,1,.93-2.9,7.82,7.82,0,0,1,1.77-2.23,7.36,7.36,0,0,1,2.42-1.41,8.2,8.2,0,0,1,2.9-.5,7.35,7.35,0,0,1,2.78.46,5.12,5.12,0,0,1,2,1.4,5.25,5.25,0,0,1,1.14,2.21,7.22,7.22,0,0,1,.11,2.89,8.11,8.11,0,0,1-.92,2.83,7.5,7.5,0,0,1-1.76,2.2,8.23,8.23,0,0,1-2.44,1.44,8.87,8.87,0,0,1-2.93.53,7.2,7.2,0,0,1-2.75-.5,5.26,5.26,0,0,1-2-1.4A5.54,5.54,0,0,1,692,636.4,6.93,6.93,0,0,1,691.82,633.57Zm2.5-.15a5.17,5.17,0,0,0,0,2,3.88,3.88,0,0,0,.7,1.58,3.51,3.51,0,0,0,1.29,1,4.24,4.24,0,0,0,1.82.37,4.88,4.88,0,0,0,1.93-.37,5.36,5.36,0,0,0,1.6-1,5.77,5.77,0,0,0,1.15-1.58,6.75,6.75,0,0,0,.6-2,5.29,5.29,0,0,0-.07-1.86,3.8,3.8,0,0,0-.7-1.51,3.41,3.41,0,0,0-1.31-1,4.11,4.11,0,0,0-1.83-.37,4.86,4.86,0,0,0-1.92.37,5.26,5.26,0,0,0-1.58,1,5.61,5.61,0,0,0-1.72,3.37Z" transform="translate(-26.49 -439.51)"/><path class="cls-9" d="M711,626.86h4.62a8.68,8.68,0,0,1,1.83.19,3.87,3.87,0,0,1,1.5.61,2.6,2.6,0,0,1,.94,1.18,3.33,3.33,0,0,1,.14,1.85,4.4,4.4,0,0,1-.39,1.34,3.89,3.89,0,0,1-.76,1.09,3.73,3.73,0,0,1-1.07.78,5.12,5.12,0,0,1-1.37.4l2.72,5.87H716.3L714,634.54h-1.73l-.79,5.63h-2.36Zm3.4,5.64c.34,0,.68,0,1,0a3.54,3.54,0,0,0,1-.23,1.93,1.93,0,0,0,.76-.54,2,2,0,0,0,.41-1,1.59,1.59,0,0,0-.12-.94,1.35,1.35,0,0,0-.57-.54A2.63,2.63,0,0,0,716,629a7.11,7.11,0,0,0-.92-.06h-2.05l-.5,3.61Z" transform="translate(-26.49 -439.51)"/><path class="cls-9" d="M732.05,626.86h2.36l-1.85,13.31H730.2Z" transform="translate(-26.49 -439.51)"/><path class="cls-9" d="M739.2,626.86h3.15l5,9.88h0l1.38-9.88h2.37l-1.87,13.31h-3L741.17,630h0l-1.43,10.19h-2.36Z" transform="translate(-26.49 -439.51)"/><path class="cls-9" d="M756,626.86h3.14l5.05,9.88h0l1.39-9.88H768l-1.89,13.31h-3L758,630h0l-1.41,10.19h-2.36Z" transform="translate(-26.49 -439.51)"/><path class="cls-9" d="M771.18,633.57a8.43,8.43,0,0,1,.93-2.9,7.56,7.56,0,0,1,4.18-3.64,8.2,8.2,0,0,1,2.9-.5A7.37,7.37,0,0,1,782,627a5.12,5.12,0,0,1,2,1.4,5.37,5.37,0,0,1,1.14,2.21,7.22,7.22,0,0,1,.11,2.89,8.33,8.33,0,0,1-.92,2.83,7.84,7.84,0,0,1-1.76,2.2,8.36,8.36,0,0,1-2.44,1.44,8.87,8.87,0,0,1-2.93.53,7.17,7.17,0,0,1-2.75-.5,5.18,5.18,0,0,1-2-1.4,5.3,5.3,0,0,1-1.14-2.19A6.76,6.76,0,0,1,771.18,633.57Zm2.5-.15a5.38,5.38,0,0,0,0,2,3.9,3.9,0,0,0,.71,1.58,3.51,3.51,0,0,0,1.29,1,4.21,4.21,0,0,0,1.82.37,4.91,4.91,0,0,0,1.93-.37,5.62,5.62,0,0,0,1.6-1,5.54,5.54,0,0,0,1.14-1.58,6.47,6.47,0,0,0,.61-2,5.53,5.53,0,0,0-.07-1.86,3.69,3.69,0,0,0-.71-1.51,3.3,3.3,0,0,0-1.3-1,4.14,4.14,0,0,0-1.83-.37A4.86,4.86,0,0,0,777,629a5.07,5.07,0,0,0-1.58,1,5.61,5.61,0,0,0-1.72,3.37Z" transform="translate(-26.49 -439.51)"/><path class="cls-9" d="M788.8,626.86h2.72l2.21,10,5.15-10h2.55l-7.22,13.31h-2.05Z" transform="translate(-26.49 -439.51)"/><path class="cls-9" d="M808,626.86h2l3.87,13.31h-2.7l-.83-3h-5.76l-1.62,3h-2.66Zm1.84,8.22-1.28-5.4-2.85,5.4Z" transform="translate(-26.49 -439.51)"/><path class="cls-9" d="M819.82,629h-4.07l.3-2.15h10.51l-.3,2.15h-4.08l-1.55,11.16h-2.36Z" transform="translate(-26.49 -439.51)"/><path class="cls-9" d="M830,626.86h2.36l-1.86,13.31h-2.36Z" transform="translate(-26.49 -439.51)"/><path class="cls-9" d="M835.6,626.86h2.72l2.22,10,5.14-10h2.55L841,640.17h-2Z" transform="translate(-26.49 -439.51)"/><path class="cls-9" d="M851.53,626.86h8.8L860,629h-6.44l-.44,3.26h6.09l-.3,2.14h-6.1l-.5,3.6h6.77l-.3,2.16h-9.13Z" transform="translate(-26.49 -439.51)"/><path class="cls-9" d="M872.31,626.86h8.79l-.29,2.15h-6.44l-.45,3.26H880l-.3,2.14h-6.1l-.51,3.6h6.77l-.29,2.16h-9.14Z" transform="translate(-26.49 -439.51)"/><path class="cls-9" d="M885.65,626.86h3.15l5,9.88h0l1.39-9.88h2.36l-1.87,13.31h-3L887.62,630h0l-1.43,10.19h-2.36Z" transform="translate(-26.49 -439.51)"/><path class="cls-9" d="M912.54,639.18a12.76,12.76,0,0,1-5.69,1.31,7.25,7.25,0,0,1-2.76-.5,5.22,5.22,0,0,1-2-1.4,5.56,5.56,0,0,1-1.15-2.19,7.11,7.11,0,0,1-.12-2.83,8.65,8.65,0,0,1,.93-2.9,8,8,0,0,1,1.76-2.23,7.7,7.7,0,0,1,2.43-1.41,8.18,8.18,0,0,1,2.89-.5,9.79,9.79,0,0,1,2.8.37,5,5,0,0,1,2.2,1.3l-2,1.76a3.56,3.56,0,0,0-1.41-1,5,5,0,0,0-1.88-.34,4.86,4.86,0,0,0-1.92.37,5.09,5.09,0,0,0-1.57,1,5.31,5.31,0,0,0-1.15,1.51,6,6,0,0,0-.53,3.83,3.78,3.78,0,0,0,.7,1.57,3.49,3.49,0,0,0,1.29,1,4.28,4.28,0,0,0,1.82.38,9.14,9.14,0,0,0,1.73-.17,5.13,5.13,0,0,0,1.48-.53l.46-3.14h-2.73l.3-2.15h5.09Z" transform="translate(-26.49 -439.51)"/><path class="cls-9" d="M918.88,626.86h2.36l-1.86,13.31H917Z" transform="translate(-26.49 -439.51)"/><path class="cls-9" d="M926,626.86h3.15l5,9.88h0l1.39-9.88H938l-1.87,13.31h-3L928,630h0l-1.42,10.19h-2.36Z" transform="translate(-26.49 -439.51)"/><path class="cls-9" d="M942.84,626.86h8.8l-.3,2.15h-6.43l-.45,3.26h6.09l-.3,2.14h-6.09l-.51,3.6h6.77l-.3,2.16H941Z" transform="translate(-26.49 -439.51)"/><path class="cls-9" d="M956.18,626.86H965l-.3,2.15h-6.44l-.45,3.26h6.1l-.3,2.14h-6.1L957,638h6.78l-.3,2.14h-9.14Z" transform="translate(-26.49 -439.51)"/><path class="cls-9" d="M969.53,626.86h4.61a8.61,8.61,0,0,1,1.83.19,4,4,0,0,1,1.51.61,2.6,2.6,0,0,1,.94,1.18,3.43,3.43,0,0,1,.14,1.85,4.4,4.4,0,0,1-.39,1.34,4.11,4.11,0,0,1-.76,1.09,3.77,3.77,0,0,1-1.08.78,4.92,4.92,0,0,1-1.37.4l2.74,5.87h-2.85l-2.29-5.63h-1.72l-.79,5.63h-2.36Zm3.4,5.64c.34,0,.68,0,1,0a3.47,3.47,0,0,0,.95-.23,1.93,1.93,0,0,0,.76-.54,1.91,1.91,0,0,0,.41-1,1.52,1.52,0,0,0-.12-.94,1.33,1.33,0,0,0-.56-.54,2.69,2.69,0,0,0-.84-.23,7,7,0,0,0-.91-.06h-2l-.5,3.61Z" transform="translate(-26.49 -439.51)"/><path class="cls-9" d="M983.17,626.86h2.36l-1.84,13.31h-2.36Z" transform="translate(-26.49 -439.51)"/><path class="cls-9" d="M990.32,626.86h3.15l5,9.88h0l1.39-9.88h2.36l-1.87,13.31h-3L992.29,630h0l-1.43,10.19h-2.36Z" transform="translate(-26.49 -439.51)"/><path class="cls-9" d="M1017.21,639.18a12.76,12.76,0,0,1-5.69,1.31,7.2,7.2,0,0,1-2.75-.5,5.18,5.18,0,0,1-2-1.4,5.54,5.54,0,0,1-1.14-2.19,6.93,6.93,0,0,1-.13-2.83,8.44,8.44,0,0,1,.94-2.9,7.62,7.62,0,0,1,1.76-2.23,7.73,7.73,0,0,1,2.42-1.41,8.2,8.2,0,0,1,2.9-.5,9.77,9.77,0,0,1,2.79.37,4.89,4.89,0,0,1,2.2,1.3l-2,1.76a3.39,3.39,0,0,0-1.41-1,5,5,0,0,0-1.88-.34,4.86,4.86,0,0,0-1.92.37,4.91,4.91,0,0,0-1.57,1,5.31,5.31,0,0,0-1.15,1.51,6,6,0,0,0-.53,3.83,3.78,3.78,0,0,0,.7,1.57,3.44,3.44,0,0,0,1.3,1,4.2,4.2,0,0,0,1.81.38,9.14,9.14,0,0,0,1.73-.17,5.13,5.13,0,0,0,1.48-.53l.45-3.14h-2.72l.3-2.15h5.09Z" transform="translate(-26.49 -439.51)"/><path class="cls-9" d="M1031,626.86h8.8l-.3,2.15h-6.44l-.44,3.26h6.09l-.3,2.14h-6.1l-.5,3.6h6.77l-.3,2.14h-9.14Z" transform="translate(-26.49 -439.51)"/><path class="cls-9" d="M1044.38,626.86h5.24a7.65,7.65,0,0,1,2.47.4,4.93,4.93,0,0,1,3.18,3.3,6.64,6.64,0,0,1,.15,2.94,7.1,7.1,0,0,1-1.07,3,7.88,7.88,0,0,1-2,2.06,8.19,8.19,0,0,1-2.43,1.23,8.48,8.48,0,0,1-2.5.39h-5ZM1047,638a8.85,8.85,0,0,0,2.12-.25,5.69,5.69,0,0,0,1.82-.79,4.62,4.62,0,0,0,1.36-1.39,5.26,5.26,0,0,0,.71-2.07,5.16,5.16,0,0,0-.08-2.07,3,3,0,0,0-.85-1.39,3.71,3.71,0,0,0-1.46-.79,6.92,6.92,0,0,0-2-.25h-2.16l-1.25,9Z" transform="translate(-26.49 -439.51)"/><path class="cls-9" d="M1070,635.27a6,6,0,0,1-.72,2.17,5.62,5.62,0,0,1-1.35,1.64,6,6,0,0,1-1.85,1,6.33,6.33,0,0,1-2.16.37,5.42,5.42,0,0,1-2.07-.37,4.08,4.08,0,0,1-1.55-1,3.87,3.87,0,0,1-.89-1.64,5.13,5.13,0,0,1-.11-2.17l1.18-8.41h2.36l-1.18,8.34a3.49,3.49,0,0,0,0,1,2.42,2.42,0,0,0,.36,1,2.08,2.08,0,0,0,.81.75,2.9,2.9,0,0,0,1.39.29,3.5,3.5,0,0,0,1.46-.29,3.14,3.14,0,0,0,1-.75,3.73,3.73,0,0,0,.63-1,4.59,4.59,0,0,0,.3-1l1.18-8.34h2.36Z" transform="translate(-26.49 -439.51)"/><path class="cls-9" d="M1084.62,630a3.51,3.51,0,0,0-1.28-1.05,3.63,3.63,0,0,0-1.34-.26,4.86,4.86,0,0,0-1.92.37,5.21,5.21,0,0,0-1.57,1,5.86,5.86,0,0,0-1.68,5.34,3.78,3.78,0,0,0,.7,1.57,3.52,3.52,0,0,0,1.3,1,4.22,4.22,0,0,0,1.82.38,3.75,3.75,0,0,0,1.61-.4,5.35,5.35,0,0,0,1.6-1.23l1.76,1.39a6.65,6.65,0,0,1-2.46,1.8,7.44,7.44,0,0,1-2.83.56,7.25,7.25,0,0,1-2.76-.49,5.17,5.17,0,0,1-3.16-3.6,7.1,7.1,0,0,1-.12-2.83,8.43,8.43,0,0,1,.93-2.9,7.67,7.67,0,0,1,4.18-3.64,8.67,8.67,0,0,1,2.9-.5,5.92,5.92,0,0,1,2.43.48,4.77,4.77,0,0,1,1.93,1.63Z" transform="translate(-26.49 -439.51)"/><path class="cls-9" d="M1095,626.86h2l3.86,13.31h-2.71l-.82-3h-5.76l-1.62,3h-2.64Zm1.83,8.22-1.27-5.4-2.85,5.4Z" transform="translate(-26.49 -439.51)"/><path class="cls-9" d="M1106.77,629h-4.07l.3-2.15h10.51l-.3,2.15h-4.07l-1.57,11.14h-2.37Z" transform="translate(-26.49 -439.51)"/><path class="cls-9" d="M1117,626.86h2.36l-1.84,13.31h-2.36Z" transform="translate(-26.49 -439.51)"/><path class="cls-9" d="M1122.45,633.57a8.41,8.41,0,0,1,.92-2.9,7.82,7.82,0,0,1,1.77-2.23,7.54,7.54,0,0,1,2.42-1.41,8.2,8.2,0,0,1,2.9-.5,7.32,7.32,0,0,1,2.78.46,5,5,0,0,1,2,1.4,5.39,5.39,0,0,1,1.15,2.21,7.6,7.6,0,0,1,.11,2.89,8.55,8.55,0,0,1-.92,2.83,7.84,7.84,0,0,1-1.76,2.2,8.36,8.36,0,0,1-2.44,1.44,8.87,8.87,0,0,1-2.93.53,7.22,7.22,0,0,1-2.76-.5,5.22,5.22,0,0,1-2-1.4,5.44,5.44,0,0,1-1.15-2.19A6.93,6.93,0,0,1,1122.45,633.57Zm2.49-.15a5.61,5.61,0,0,0,0,2,3.88,3.88,0,0,0,.7,1.58,3.63,3.63,0,0,0,1.3,1,4.21,4.21,0,0,0,1.82.37,4.91,4.91,0,0,0,1.93-.37,5.24,5.24,0,0,0,1.59-1,5.57,5.57,0,0,0,1.15-1.58,6.19,6.19,0,0,0,.6-2,5.06,5.06,0,0,0-.07-1.86,3.67,3.67,0,0,0-.7-1.51,3.3,3.3,0,0,0-1.3-1,4.14,4.14,0,0,0-1.83-.37,4.91,4.91,0,0,0-1.93.37,5.21,5.21,0,0,0-1.57,1,5.5,5.5,0,0,0-1.15,1.51,5.78,5.78,0,0,0-.59,1.86Z" transform="translate(-26.49 -439.51)"/><path class="cls-9" d="M1141.6,626.86h3.15l5,9.88h0l1.39-9.88h2.36l-1.86,13.31h-3L1143.57,630h0l-1.43,10.19h-2.36Z" transform="translate(-26.49 -439.51)"/></g><rect class="cls-10" y="31.08" width="70.06" height="9.88"/><rect class="cls-10" x="120.94" y="31.08" width="27.82" height="9.88"/><rect class="cls-10" x="24.88" y="60.08" width="123.88" height="10.59"/><rect class="cls-10" y="51.2" width="10.41" height="111.18"/><rect class="cls-10" y="168.38" width="98.64" height="9.18"/><rect class="cls-10" x="79.94" y="1.13" width="33.18" height="9.48"/><rect class="cls-10" x="79.94" y="20.49" width="33.18" height="10.59"/><rect class="cls-10" x="79.94" y="40.96" width="33.18" height="10.24"/><rect class="cls-10" x="102.88" y="1.13" width="10.24" height="29.95"/><rect class="cls-10" x="79.94" y="20.49" width="9.53" height="30.71"/><rect class="cls-10" x="24.88" y="61.08" width="55.06" height="26.12"/><rect class="cls-10" x="24.88" y="111.91" width="73.76" height="25.41"/><rect class="cls-10" x="89.47" y="87.2" width="9.18" height="90.35"/><rect class="cls-10" x="79.94" y="87.2" width="18.71" height="10.24"/><rect class="cls-10" x="131.82" y="86.2" width="16.94" height="10.24"/><rect class="cls-10" x="131.82" y="168.38" width="16.94" height="9.18"/><rect class="cls-10" x="131.82" y="87.2" width="8.47" height="90.35"/><rect class="cls-10" y="187.43" width="149.76" height="12.42"/><path class="cls-10" d="M207.45,498.45a11.93,11.93,0,0,1-4.76-5,18.39,18.39,0,0,1,0-15.26,11.74,11.74,0,0,1,4.76-5,14.33,14.33,0,0,1,7.25-1.76,15.79,15.79,0,0,1,5.36.89,11.54,11.54,0,0,1,4.17,2.47l-1.66,3.71a13.36,13.36,0,0,0-3.78-2.23,11.39,11.39,0,0,0-4-.69,7.79,7.79,0,0,0-6.3,2.64q-2.23,2.65-2.23,7.59t2.21,7.65a7.79,7.79,0,0,0,6.33,2.67,11.48,11.48,0,0,0,4-.7,13.31,13.31,0,0,0,3.77-2.23l1.66,3.72a11.54,11.54,0,0,1-4.17,2.47,16,16,0,0,1-5.35.89A14.36,14.36,0,0,1,207.45,498.45Z" transform="translate(-26.49 -439.51)"/><path class="cls-10" d="M250.31,490.15H236.55a7.28,7.28,0,0,0,1.6,4.72,5.63,5.63,0,0,0,4.29,1.52,9.89,9.89,0,0,0,6.09-2.13l1.42,3.4a11.08,11.08,0,0,1-3.5,1.84,13.13,13.13,0,0,1-4.21.69,10.45,10.45,0,0,1-7.7-2.77,10.16,10.16,0,0,1-2.81-7.58,11.7,11.7,0,0,1,1.23-5.42,9,9,0,0,1,3.43-3.69,9.54,9.54,0,0,1,5-1.33,8.3,8.3,0,0,1,6.5,2.67,10.6,10.6,0,0,1,2.39,7.33Zm-12-6a5.73,5.73,0,0,0-1.6,3.38H246a5.48,5.48,0,0,0-1.36-3.4,4.18,4.18,0,0,0-3.1-1.15,4.6,4.6,0,0,0-3.22,1.17Z" transform="translate(-26.49 -439.51)"/><path class="cls-10" d="M277.65,487.62v12.25h-4.94v-12a5.39,5.39,0,0,0-.91-3.46,3.43,3.43,0,0,0-2.8-1.08,4.76,4.76,0,0,0-3.64,1.44,5.26,5.26,0,0,0-1.38,3.81v11.3h-4.9V485.56a46.3,46.3,0,0,0-.32-5.65h4.62l.36,3.28a7.18,7.18,0,0,1,2.79-2.81,7.85,7.85,0,0,1,4-1Q277.65,479.4,277.65,487.62Z" transform="translate(-26.49 -439.51)"/><path class="cls-10" d="M293.77,483.63v8.93c0,2.35,1.1,3.52,3.28,3.52a7,7,0,0,0,2-.32v3.91a9.44,9.44,0,0,1-3.16.48,6.88,6.88,0,0,1-5.22-1.9,7.59,7.59,0,0,1-1.82-5.45v-9.17H285v-3.72h3.83v-4.86l4.94-1.66v6.52h5.3v3.72Z" transform="translate(-26.49 -439.51)"/><path class="cls-10" d="M324.52,490.15H310.76a7.28,7.28,0,0,0,1.6,4.72,5.63,5.63,0,0,0,4.29,1.52,9.89,9.89,0,0,0,6.09-2.13l1.42,3.4a11.08,11.08,0,0,1-3.5,1.84,13.41,13.41,0,0,1-4.21.69,10.45,10.45,0,0,1-7.7-2.77,10.13,10.13,0,0,1-2.81-7.59,11.56,11.56,0,0,1,1.22-5.41,9.22,9.22,0,0,1,3.44-3.7,9.63,9.63,0,0,1,5-1.32,8.3,8.3,0,0,1,6.5,2.67,10.58,10.58,0,0,1,2.39,7.33Zm-12-6a5.73,5.73,0,0,0-1.6,3.38h9.28a5.48,5.48,0,0,0-1.36-3.4,4.18,4.18,0,0,0-3.1-1.15,4.6,4.6,0,0,0-3.22,1.17Z" transform="translate(-26.49 -439.51)"/><path class="cls-10" d="M347.73,479.75l0,4.5a7.09,7.09,0,0,0-2.61-.51,4.94,4.94,0,0,0-3.85,1.46,5.6,5.6,0,0,0-1.33,3.88v10.78H335v-14.3a44.38,44.38,0,0,0-.31-5.65h4.62l.4,3.52a5.89,5.89,0,0,1,2.37-3,6.7,6.7,0,0,1,3.67-1A5.58,5.58,0,0,1,347.73,479.75Z" transform="translate(-26.49 -439.51)"/><path class="cls-10" d="M396.26,478.21v1.7h4.47v3.72h-4.47v16.24h-4.94V483.63h-3.79v-3.72h3.79V478a7.76,7.76,0,0,1,1.8-5.48,6.74,6.74,0,0,1,5.16-1.91,8.92,8.92,0,0,1,3.12.47V475a7.89,7.89,0,0,0-1.94-.27Q396.27,474.7,396.26,478.21Z" transform="translate(-26.49 -439.51)"/><path class="cls-10" d="M412.6,498.92a8.66,8.66,0,0,1-3.56-3.61,12.84,12.84,0,0,1,0-11,8.75,8.75,0,0,1,3.56-3.62,11.88,11.88,0,0,1,10.65,0,8.67,8.67,0,0,1,3.53,3.62,12.84,12.84,0,0,1,0,11,8.65,8.65,0,0,1-3.53,3.61,11.8,11.8,0,0,1-10.65,0Zm9.17-4.25a9.61,9.61,0,0,0,0-9.76,5.18,5.18,0,0,0-7.31-.32l-.32.32a9.59,9.59,0,0,0,0,9.76,4.6,4.6,0,0,0,3.81,1.64A4.65,4.65,0,0,0,421.77,494.67Z" transform="translate(-26.49 -439.51)"/><path class="cls-10" d="M449.6,479.75l0,4.5a7.09,7.09,0,0,0-2.61-.51,5,5,0,0,0-3.86,1.46,5.59,5.59,0,0,0-1.32,3.88v10.78h-4.9v-14.3a44.39,44.39,0,0,0-.32-5.65h4.63l.4,3.52a5.89,5.89,0,0,1,2.37-3,6.78,6.78,0,0,1,3.67-1A5.49,5.49,0,0,1,449.6,479.75Z" transform="translate(-26.49 -439.51)"/><path class="cls-10" d="M201.94,546.26V518.12h18.81v4H206.92v7.79h13v4h-13v8.26h13.83v4Z" transform="translate(-26.49 -439.51)"/><path class="cls-10" d="M246.38,534v12.25h-4.94v-12a5.36,5.36,0,0,0-.91-3.46,3.47,3.47,0,0,0-2.8-1.09,4.84,4.84,0,0,0-3.64,1.44,5.27,5.27,0,0,0-1.38,3.82v11.3h-4.9V532a46.53,46.53,0,0,0-.32-5.65h4.62l.36,3.28a7.22,7.22,0,0,1,2.79-2.8,8,8,0,0,1,4-1Q246.39,525.79,246.38,534Z" transform="translate(-26.49 -439.51)"/><path class="cls-10" d="M273.63,526.3v19.33q0,4.67-2.56,7.07c-1.72,1.61-4.23,2.41-7.55,2.41a16.57,16.57,0,0,1-8.14-1.93l.79-3.76a15.38,15.38,0,0,0,7.23,1.9c3.56,0,5.33-1.76,5.33-5.3v-3.95a7,7,0,0,1-2.64,2.63,7.69,7.69,0,0,1-3.92,1,8.72,8.72,0,0,1-4.64-1.25,8.28,8.28,0,0,1-3.16-3.52,12.48,12.48,0,0,1,0-10.39,8.4,8.4,0,0,1,3.16-3.52,8.71,8.71,0,0,1,4.64-1.24,8,8,0,0,1,3.93.93,6.31,6.31,0,0,1,2.63,2.59v-3Zm-6.3,13.92a7.84,7.84,0,0,0,0-8.94,5.41,5.41,0,0,0-7.65-.07l-.07.07a7.82,7.82,0,0,0,0,8.94,5.41,5.41,0,0,0,7.63.07l.07-.07Z" transform="translate(-26.49 -439.51)"/><path class="cls-10" d="M281.36,517.25h5.5v4.87h-5.5Zm.32,29v-20h4.9v20Z" transform="translate(-26.49 -439.51)"/><path class="cls-10" d="M313.28,534v12.25h-4.94v-12a5.36,5.36,0,0,0-.91-3.46,3.47,3.47,0,0,0-2.8-1.09,4.85,4.85,0,0,0-3.64,1.44,5.27,5.27,0,0,0-1.38,3.82v11.3h-4.9V532a44.6,44.6,0,0,0-.32-5.65H299l.35,3.28a7.29,7.29,0,0,1,2.79-2.8,8,8,0,0,1,4-1Q313.28,525.79,313.28,534Z" transform="translate(-26.49 -439.51)"/><path class="cls-10" d="M338.72,536.54H325a7.28,7.28,0,0,0,1.6,4.72,5.63,5.63,0,0,0,4.29,1.52,9.89,9.89,0,0,0,6.09-2.13l1.42,3.4a11.08,11.08,0,0,1-3.5,1.84,13.41,13.41,0,0,1-4.21.69,10.45,10.45,0,0,1-7.7-2.77,10.12,10.12,0,0,1-2.81-7.58,11.57,11.57,0,0,1,1.22-5.42,9.13,9.13,0,0,1,3.44-3.69,9.54,9.54,0,0,1,5-1.33,8.3,8.3,0,0,1,6.5,2.67,10.6,10.6,0,0,1,2.39,7.33Zm-12-6a5.73,5.73,0,0,0-1.6,3.38h9.28a5.51,5.51,0,0,0-1.36-3.4,4.14,4.14,0,0,0-3.1-1.14,4.54,4.54,0,0,0-3.22,1.16Z" transform="translate(-26.49 -439.51)"/><path class="cls-10" d="M363.08,536.54H349.33a7.17,7.17,0,0,0,1.6,4.72,5.62,5.62,0,0,0,4.29,1.52,9.86,9.86,0,0,0,6.08-2.13l1.43,3.4a11.19,11.19,0,0,1-3.5,1.84,13.41,13.41,0,0,1-4.21.69,10.49,10.49,0,0,1-7.71-2.77,10.15,10.15,0,0,1-2.8-7.58,11.57,11.57,0,0,1,1.22-5.42,9.06,9.06,0,0,1,3.44-3.69,9.52,9.52,0,0,1,5-1.33,8.33,8.33,0,0,1,6.5,2.67,10.6,10.6,0,0,1,2.39,7.33Zm-12-6a5.79,5.79,0,0,0-1.6,3.38h9.29a5.56,5.56,0,0,0-1.36-3.4,4.15,4.15,0,0,0-3.1-1.14,4.53,4.53,0,0,0-3.22,1.16Z" transform="translate(-26.49 -439.51)"/><path class="cls-10" d="M382.71,526.15l0,4.5a6.9,6.9,0,0,0-2.61-.52,4.94,4.94,0,0,0-3.85,1.46,5.6,5.6,0,0,0-1.33,3.88v10.79H370V532a44.58,44.58,0,0,0-.31-5.65h4.62l.4,3.52a5.86,5.86,0,0,1,2.37-3,6.7,6.7,0,0,1,3.67-1A5.59,5.59,0,0,1,382.71,526.15Z" transform="translate(-26.49 -439.51)"/><path class="cls-10" d="M387.87,517.25h5.49v4.87h-5.49Zm.32,29v-20h4.9v20Z" transform="translate(-26.49 -439.51)"/><path class="cls-10" d="M419.79,534v12.25h-4.94v-12a5.36,5.36,0,0,0-.91-3.46,3.47,3.47,0,0,0-2.8-1.09,4.84,4.84,0,0,0-3.64,1.44,5.27,5.27,0,0,0-1.38,3.82v11.3h-4.9V532a46.53,46.53,0,0,0-.32-5.65h4.62l.36,3.28a7.22,7.22,0,0,1,2.79-2.8,8,8,0,0,1,4-1Q419.78,525.79,419.79,534Z" transform="translate(-26.49 -439.51)"/><path class="cls-10" d="M447,526.3v19.33q0,4.67-2.57,7.07t-7.55,2.41a16.62,16.62,0,0,1-8.14-1.93l.79-3.76a15.38,15.38,0,0,0,7.23,1.9c3.56,0,5.34-1.76,5.34-5.3v-3.95a7,7,0,0,1-2.65,2.63,7.66,7.66,0,0,1-3.91,1,8.76,8.76,0,0,1-4.65-1.25,8.38,8.38,0,0,1-3.16-3.51,12.58,12.58,0,0,1,0-10.4,8.38,8.38,0,0,1,3.16-3.51,8.67,8.67,0,0,1,4.65-1.25,8.13,8.13,0,0,1,3.93.93,6.31,6.31,0,0,1,2.63,2.59v-3Zm-6.3,13.92a6.62,6.62,0,0,0,1.4-4.47,6.72,6.72,0,0,0-1.38-4.47,5.43,5.43,0,0,0-7.66-.07l-.07.07a7.82,7.82,0,0,0,0,8.94,5.41,5.41,0,0,0,7.63.07l.07-.07Z" transform="translate(-26.49 -439.51)"/><path class="cls-10" d="M201.94,592.65V564.51h18.81v4H206.92v7.78h13v4h-13v8.26h13.83v4Z" transform="translate(-26.49 -439.51)"/><path class="cls-10" d="M252,563.57v29.08h-4.86v-3.2a6.38,6.38,0,0,1-2.61,2.59,8,8,0,0,1-3.87.93,8.24,8.24,0,0,1-4.58-1.3,8.71,8.71,0,0,1-3.15-3.7,12.68,12.68,0,0,1-1.12-5.47,12.47,12.47,0,0,1,1.11-5.41,8.25,8.25,0,0,1,7.74-4.9,7.86,7.86,0,0,1,3.81.89,6.2,6.2,0,0,1,2.59,2.51v-12Zm-6.22,23.83a9.28,9.28,0,0,0,0-9.65,4.6,4.6,0,0,0-3.8-1.7,4.71,4.71,0,0,0-3.85,1.68,7.39,7.39,0,0,0-1.36,4.77,7.66,7.66,0,0,0,1.36,4.86,4.57,4.57,0,0,0,3.81,1.74,4.65,4.65,0,0,0,3.82-1.7Z" transform="translate(-26.49 -439.51)"/><path class="cls-10" d="M283.34,572.69v20h-4.82v-3.08A6.54,6.54,0,0,1,276,592.1a7.55,7.55,0,0,1-3.64.87q-7.31,0-7.31-8.22V572.69h4.9v12.1a4.81,4.81,0,0,0,.89,3.2,3.44,3.44,0,0,0,2.75,1,4.45,4.45,0,0,0,3.47-1.42,5.37,5.37,0,0,0,1.3-3.79V572.69Z" transform="translate(-26.49 -439.51)"/><path class="cls-10" d="M300.15,591.7a8.53,8.53,0,0,1-3.52-3.57,12.52,12.52,0,0,1,.06-10.93,9.08,9.08,0,0,1,3.63-3.69,10.88,10.88,0,0,1,5.44-1.33,13.18,13.18,0,0,1,4.13.67,8.12,8.12,0,0,1,3.18,1.86l-1.39,3.48a9.6,9.6,0,0,0-2.68-1.56,8,8,0,0,0-2.81-.54,5.37,5.37,0,0,0-4.19,1.68,8.6,8.6,0,0,0,0,9.67,5.36,5.36,0,0,0,4.21,1.65,7.56,7.56,0,0,0,2.81-.55,9.66,9.66,0,0,0,2.68-1.58l1.39,3.48a8.92,8.92,0,0,1-3.28,1.86,13.51,13.51,0,0,1-4.23.67A11.06,11.06,0,0,1,300.15,591.7Z" transform="translate(-26.49 -439.51)"/><path class="cls-10" d="M343.28,572.69v20h-4.86v-3.2a6.44,6.44,0,0,1-2.61,2.59,8,8,0,0,1-3.87.93,8.48,8.48,0,0,1-4.63-1.27,8.32,8.32,0,0,1-3.12-3.6,12.41,12.41,0,0,1-1.11-5.41,12.75,12.75,0,0,1,1.13-5.47,8.87,8.87,0,0,1,3.14-3.72,8.11,8.11,0,0,1,4.59-1.32,7.82,7.82,0,0,1,3.87.93,6.44,6.44,0,0,1,2.61,2.59v-3Zm-6.2,14.7a7.52,7.52,0,0,0,1.34-4.78,7.71,7.71,0,0,0-1.34-4.86,5.09,5.09,0,0,0-7.19-.41c-.16.15-.32.31-.46.47a7.72,7.72,0,0,0-1.36,4.88,7.29,7.29,0,0,0,1.36,4.74,4.67,4.67,0,0,0,3.85,1.66,4.55,4.55,0,0,0,3.79-1.69Z" transform="translate(-26.49 -439.51)"/><path class="cls-10" d="M362.74,576.41v8.93q0,3.52,3.28,3.52a6.94,6.94,0,0,0,2-.32v3.91a9.44,9.44,0,0,1-3.16.48,6.88,6.88,0,0,1-5.22-1.9,7.54,7.54,0,0,1-1.81-5.45v-9.17H354v-3.72h3.84v-4.86l4.94-1.66v6.52H368v3.72Z" transform="translate(-26.49 -439.51)"/><path class="cls-10" d="M378.91,563.65h5.5v4.86h-5.5Zm.32,29v-20h4.9v20Z" transform="translate(-26.49 -439.51)"/><path class="cls-10" d="M401,591.7a8.66,8.66,0,0,1-3.56-3.61,12.84,12.84,0,0,1,0-11,8.66,8.66,0,0,1,3.56-3.61,11,11,0,0,1,5.35-1.27,10.73,10.73,0,0,1,5.3,1.27,8.68,8.68,0,0,1,3.54,3.61,12.84,12.84,0,0,1,0,11,8.73,8.73,0,0,1-3.54,3.61,11.8,11.8,0,0,1-10.65,0Zm9.17-4.24a9.63,9.63,0,0,0,0-9.77,5.18,5.18,0,0,0-7.31-.32l-.32.32a9.63,9.63,0,0,0,0,9.77,4.61,4.61,0,0,0,3.81,1.63,4.66,4.66,0,0,0,3.86-1.63Z" transform="translate(-26.49 -439.51)"/><path class="cls-10" d="M447.11,580.4v12.25h-4.94v-12a5.31,5.31,0,0,0-.9-3.46,3.5,3.5,0,0,0-2.81-1.09,4.84,4.84,0,0,0-3.64,1.45,5.29,5.29,0,0,0-1.38,3.81v11.3h-4.9v-14.3a44.65,44.65,0,0,0-.32-5.66h4.63l.35,3.28a7.29,7.29,0,0,1,2.79-2.8,8.06,8.06,0,0,1,4-1Q447.12,572.17,447.11,580.4Z" transform="translate(-26.49 -439.51)"/><path class="cls-10" d="M201.94,639V610.91H207V639Z" transform="translate(-26.49 -439.51)"/><path class="cls-10" d="M237,626.79V639h-4.94V627a5.39,5.39,0,0,0-.91-3.46,3.45,3.45,0,0,0-2.81-1.08,4.76,4.76,0,0,0-3.63,1.44,5.3,5.3,0,0,0-1.39,3.81V639h-4.9v-14.3a44.38,44.38,0,0,0-.31-5.65h4.62l.36,3.28a7.15,7.15,0,0,1,2.78-2.81,8,8,0,0,1,4-1Q237,618.57,237,626.79Z" transform="translate(-26.49 -439.51)"/><path class="cls-10" d="M266.46,626.79V639h-4.93V627a5.39,5.39,0,0,0-.91-3.46,3.45,3.45,0,0,0-2.81-1.08,4.76,4.76,0,0,0-3.63,1.44,5.3,5.3,0,0,0-1.39,3.81V639h-4.9v-14.3a44.38,44.38,0,0,0-.31-5.65h4.62l.36,3.28a7.22,7.22,0,0,1,2.78-2.81,8,8,0,0,1,4-1Q266.46,618.57,266.46,626.79Z" transform="translate(-26.49 -439.51)"/><path class="cls-10" d="M281.06,638.09a8.58,8.58,0,0,1-3.55-3.61,12.84,12.84,0,0,1,0-11,8.58,8.58,0,0,1,3.55-3.61,11,11,0,0,1,5.36-1.27,10.78,10.78,0,0,1,5.3,1.27,8.68,8.68,0,0,1,3.54,3.61,12.84,12.84,0,0,1,0,11,8.68,8.68,0,0,1-3.54,3.61,10.78,10.78,0,0,1-5.3,1.27A11,11,0,0,1,281.06,638.09Zm9.17-4.24a9.59,9.59,0,0,0,0-9.76,5.17,5.17,0,0,0-7.3-.33l-.33.33a9.59,9.59,0,0,0,0,9.76,4.62,4.62,0,0,0,3.81,1.64,4.68,4.68,0,0,0,3.85-1.64Z" transform="translate(-26.49 -439.51)"/><path class="cls-10" d="M320,619.13h4.9L316.21,639H311.9l-8.61-19.91h5.17l5.73,14.3Z" transform="translate(-26.49 -439.51)"/><path class="cls-10" d="M351.89,619.09V639H347v-3.2a6.36,6.36,0,0,1-2.6,2.59,8.08,8.08,0,0,1-3.88.93,8.55,8.55,0,0,1-4.62-1.26,8.32,8.32,0,0,1-3.12-3.6,12.47,12.47,0,0,1-1.11-5.41,12.76,12.76,0,0,1,1.13-5.48A8.7,8.7,0,0,1,336,619.9a8.19,8.19,0,0,1,4.58-1.33,8.08,8.08,0,0,1,3.88.93,6.36,6.36,0,0,1,2.6,2.59v-3Zm-6.2,14.7A7.58,7.58,0,0,0,347,629a7.67,7.67,0,0,0-1.35-4.86,5.08,5.08,0,0,0-7.64.06,7.72,7.72,0,0,0-1.36,4.88,7.23,7.23,0,0,0,1.36,4.74,4.67,4.67,0,0,0,3.85,1.66,4.55,4.55,0,0,0,3.79-1.69Z" transform="translate(-26.49 -439.51)"/><path class="cls-10" d="M369.2,622.8v8.93q0,3.53,3.28,3.52a7.07,7.07,0,0,0,2-.32v3.91a9.21,9.21,0,0,1-3.17.48,6.85,6.85,0,0,1-5.21-1.9,7.55,7.55,0,0,1-1.82-5.45V622.8h-3.83v-3.71h3.83v-4.87l4.94-1.65v6.52h5.29v3.71Z" transform="translate(-26.49 -439.51)"/><path class="cls-10" d="M383.23,610h5.49v4.86h-5.49Zm.31,29V619.09h4.9V639Z" transform="translate(-26.49 -439.51)"/><path class="cls-10" d="M403.2,638.09a8.66,8.66,0,0,1-3.56-3.61,12.84,12.84,0,0,1,0-11,8.66,8.66,0,0,1,3.56-3.61,11,11,0,0,1,5.35-1.27,10.75,10.75,0,0,1,5.3,1.27,8.62,8.62,0,0,1,3.54,3.61,12.84,12.84,0,0,1,0,11,8.62,8.62,0,0,1-3.54,3.61,10.75,10.75,0,0,1-5.3,1.27A11,11,0,0,1,403.2,638.09Zm9.17-4.24a9.61,9.61,0,0,0,0-9.76,5.18,5.18,0,0,0-7.31-.33c-.11.11-.22.21-.32.33a9.59,9.59,0,0,0,0,9.76,4.63,4.63,0,0,0,3.81,1.64,4.71,4.71,0,0,0,3.86-1.64Z" transform="translate(-26.49 -439.51)"/><path class="cls-10" d="M447.12,626.79V639h-4.94V627a5.39,5.39,0,0,0-.91-3.46,3.44,3.44,0,0,0-2.81-1.08,4.76,4.76,0,0,0-3.63,1.44,5.25,5.25,0,0,0-1.38,3.81V639h-4.9v-14.3a46.3,46.3,0,0,0-.32-5.65h4.62l.36,3.28a7.22,7.22,0,0,1,2.78-2.81,8,8,0,0,1,4-1Q447.11,618.57,447.12,626.79Z" transform="translate(-26.49 -439.51)"/><path class="cls-11" d="M1383.25,512.36a32.41,32.41,0,0,1,44.68-30.11,73.12,73.12,0,0,0-105.7,100.6,119.32,119.32,0,0,1,25.23-24.94c8.21-5.74,19.54-11.49,28.65-12.36,8.64-.8,21.49,0,29.27,3.78a218.11,218.11,0,0,1-15.56-17.44A32.47,32.47,0,0,1,1383.25,512.36Z" transform="translate(-26.49 -439.51)"/><path class="cls-12" d="M1380.94,536.14l-34.28-66a72.61,72.61,0,0,0-17.75,12l51.8,53.91Z" transform="translate(-26.49 -439.51)"/><path class="cls-13" d="M1381.12,536.21l4.53-72.93a74.75,74.75,0,0,0-17.81.41L1381,536.21Z" transform="translate(-26.49 -439.51)"/><path class="cls-14" d="M1380.71,536.06l-70.6-26.27a73.28,73.28,0,0,0-4.51,19.41l75.32,7Z" transform="translate(-26.49 -439.51)"/><path class="cls-15" d="M1306.09,546.52a72.55,72.55,0,0,0,3.84,15l70.84-25.11Z" transform="translate(-26.49 -439.51)"/><path class="cls-16" d="M1355.62,578.63s2-.88,2.58-1.19v13.9h2.51V574.92l-.41-.28h-.11c-1.84.91-3.71,1.76-5.32,2.42Z" transform="translate(-26.49 -439.51)"/><path class="cls-16" d="M1369,583.13c2,0,3,1,3,3.29a3.28,3.28,0,0,1-2.89,3.63,4.17,4.17,0,0,1-3.56-1.47l-.31-.36-.61,2.17.2.08a7.74,7.74,0,0,0,3.63.87c3.59,0,6.19-2.18,6.19-5.2a3.72,3.72,0,0,0-3.42-3.78,4.16,4.16,0,0,0,2.68-3.84c0-2.3-1.81-3.71-4.7-3.73a4.8,4.8,0,0,0-3.72,1.64l1.08,1.88.16-.55a2.61,2.61,0,0,1,2.38-1.64,2.32,2.32,0,0,1,2.28,2.33c0,.1,0,.2,0,.3,0,1.49-.42,3.28-2.39,3.28l-1.3-.1v1.55A5.2,5.2,0,0,1,1369,583.13Z" transform="translate(-26.49 -439.51)"/><path class="cls-16" d="M1378.11,588.06l.66,2.66a5.61,5.61,0,0,0,2.51.59c4.21,0,7.13-3.94,7.13-9.59,0-6.29-3.83-7-5.47-7a5.1,5.1,0,0,0-5.42,4.76,2.57,2.57,0,0,0,0,.48,4.48,4.48,0,0,0,4,4.91,3.76,3.76,0,0,0,.75,0,4.35,4.35,0,0,0,3.53-1.64c-.18,3.51-1.64,6.73-4.45,6.75A3.8,3.8,0,0,1,1378.11,588.06Zm4.55-4.55c-1.74,0-2.59-1.15-2.59-3.51s1.15-4,2.85-4,2.83,1.36,2.83,3.38-1,4.09-3.09,4.09Z" transform="translate(-26.49 -439.51)"/><path class="cls-16" d="M1398.41,581.87a3.78,3.78,0,0,0,2.34-3.47c0-1.64-1.23-3.67-4.69-3.67a4.23,4.23,0,0,0-4.62,3.81.53.53,0,0,0,0,.13,3.51,3.51,0,0,0,2.36,3.28,4.62,4.62,0,0,0-3.18,4.48c0,2.88,2.18,4.81,5.45,4.81a5.22,5.22,0,0,0,5.45-5v-.35A4,4,0,0,0,1398.41,581.87Zm-4.57-3.17c0-.62.15-2.73,2.23-2.73s2.29,1.93,2.29,2.73-.17,2.74-2.29,2.74-2.23-2.1-2.23-2.74Zm2.22,11.31c-1.74,0-2.91-1.48-2.91-3.66s1.17-3.66,2.91-3.66,2.89,1.46,2.89,3.66-1.13,3.66-2.89,3.66Z" transform="translate(-26.49 -439.51)"/><path class="cls-17" d="M1322.51,600.73a71.64,71.64,0,0,1-9-9.49c-14.92-16.76-32-60.74-3.61-100.56a82.81,82.81,0,0,1,127.76-9.21,3.29,3.29,0,0,1,.24,4.64l-.09.09c-1.64,1.43-3.28.69-6.66-.31a35.25,35.25,0,0,0-14.86-1.28c-11.49,1.46-21.34,12.07-20,26.88,1.25,13.52,11.68,23.29,19,29.74,25.71,22.66,17.1,46.94,15,52.28-7.13,18.06-25.35,30.88-49,30.88a72.48,72.48,0,0,1-38.25-11.59c-.56-.23-1.1-1-.43-2.18a77.45,77.45,0,0,1,7.61-13.14c7.09,8.21,19,15.89,32.32,16.42,18.16.66,29.83-9.18,34.15-21.64,4.81-14-.31-28.29-13.87-41.17-11.69-11.1-22.15-21.35-22.76-39-.77-22.56,18.88-36,37.14-35.07.54,0-25.25-18.57-58.33-7.49A68.64,68.64,0,0,0,1328.38,490a1.34,1.34,0,0,0,0,1.83l11.78,16.42-20.3-4.68a1.2,1.2,0,0,0-1.26.5c-6.45,11.11-16,43.29,5.27,72.58,0,0,18.06-28.65,54-31.08,2.38-.16,2.09.69.53,1.25-32.08,11.8-44.74,35.31-52.92,53.45a1.76,1.76,0,0,1-2.31,1A1.62,1.62,0,0,1,1322.51,600.73Z" transform="translate(-26.49 -439.51)"/><path class="cls-18" d="M1475.19,614.33h-2.31l-5.85-8.21-2,2.28v5.93h-1.91V596.5H1465v8.73c.47-.51,1-1.1,1.56-1.77s1.16-1.4,1.75-2.17,1.18-1.56,1.78-2.38,1.13-1.64,1.64-2.41h2.38c-1,1.51-2,3-2.94,4.33s-1.91,2.58-2.76,3.61Z" transform="translate(-26.49 -439.51)"/><path class="cls-18" d="M1484.93,614.33H1483v-7.79a4.09,4.09,0,0,0-.59-2.41,2.07,2.07,0,0,0-1.79-.8,2.28,2.28,0,0,0-1.17.29,3,3,0,0,0-.9.81,3.24,3.24,0,0,0-.61,1.18,4.46,4.46,0,0,0-.21,1.41v7.31h-1.9V601.41h1.9v1.42a6.74,6.74,0,0,1,1.64-1.42,3.74,3.74,0,0,1,2.45-.45,2.93,2.93,0,0,1,1.44.63,4.54,4.54,0,0,1,1,1.13,5,5,0,0,1,.55,1.41,5.2,5.2,0,0,1,.18,1.41Z" transform="translate(-26.49 -439.51)"/><path class="cls-18" d="M1491.45,600.9a4.69,4.69,0,0,1,2.2.52,5.55,5.55,0,0,1,1.64,1.45,7,7,0,0,1,1,2.21,11,11,0,0,1,0,5.58,6.62,6.62,0,0,1-1,2.19,5,5,0,0,1-1.64,1.46,4.74,4.74,0,0,1-6.08-1.46,6.62,6.62,0,0,1-1-2.19,11.45,11.45,0,0,1,0-5.58,7,7,0,0,1,1-2.21,5.17,5.17,0,0,1,1.64-1.45A4.59,4.59,0,0,1,1491.45,600.9Zm0,11.8a2.65,2.65,0,0,0,2.31-1.36,7.49,7.49,0,0,0,0-7,2.68,2.68,0,0,0-4.63,0,7.49,7.49,0,0,0,0,7,2.64,2.64,0,0,0,2.32,1.34Z" transform="translate(-26.49 -439.51)"/><path class="cls-18" d="M1511.43,601.37l-3.07,13h-2.14l-2.08-9-2.11,9h-2.13l-3.07-13h2L1501,611l2.1-9.59h2.13l2.09,9.59,2.17-9.59Z" transform="translate(-26.49 -439.51)"/><path class="cls-18" d="M1514.41,614.33h-1.88V596.5h1.88Z" transform="translate(-26.49 -439.51)"/><path class="cls-18" d="M1526.25,608.65h-8.37a4.89,4.89,0,0,0,1,2.93,2.75,2.75,0,0,0,2.15,1.12,2.42,2.42,0,0,0,1.86-.67,3.16,3.16,0,0,0,.8-1.38h2.22a8,8,0,0,1-.56,1.48,5,5,0,0,1-.92,1.36,4.44,4.44,0,0,1-1.41,1,4.66,4.66,0,0,1-2,.36,4.57,4.57,0,0,1-2.15-.51,4.73,4.73,0,0,1-1.65-1.46,6.94,6.94,0,0,1-1.1-2.19,9.47,9.47,0,0,1-.39-2.8,10.08,10.08,0,0,1,.38-2.78,6.81,6.81,0,0,1,1-2.21,5.43,5.43,0,0,1,1.64-1.45,4.58,4.58,0,0,1,2.18-.52,4.79,4.79,0,0,1,2,.46,4.64,4.64,0,0,1,1.64,1.41,6.79,6.79,0,0,1,1.15,2.41A13.08,13.08,0,0,1,1526.25,608.65Zm-8.34-2h6.17a4.47,4.47,0,0,0-.9-2.63,2.7,2.7,0,0,0-2.18-1,2.75,2.75,0,0,0-2.12.91,4.31,4.31,0,0,0-1,2.71Z" transform="translate(-26.49 -439.51)"/><path class="cls-18" d="M1537.23,614.33h-1.9V613a5,5,0,0,1-1.54,1.35,4.08,4.08,0,0,1-1.91.46,4.38,4.38,0,0,1-2.07-.49,4.77,4.77,0,0,1-1.64-1.42,6.6,6.6,0,0,1-1-2.16,11.19,11.19,0,0,1,0-5.63,6.75,6.75,0,0,1,1-2.19,5.05,5.05,0,0,1,1.64-1.41,4.29,4.29,0,0,1,2.07-.51,3.87,3.87,0,0,1,1.91.48,4.74,4.74,0,0,1,1.54,1.31v-6.3h1.9Zm-5-1.65a2.65,2.65,0,0,0,2.3-1.21,7.57,7.57,0,0,0,0-7,2.64,2.64,0,0,0-2.3-1.2,2.6,2.6,0,0,0-2.33,1.28,6,6,0,0,0-.82,3.4,6.13,6.13,0,0,0,.82,3.4,2.56,2.56,0,0,0,2.33,1.29Z" transform="translate(-26.49 -439.51)"/><path class="cls-18" d="M1549.07,601.32v12.19a6.87,6.87,0,0,1-.44,2.65,4.65,4.65,0,0,1-1.12,1.74,4,4,0,0,1-1.64.92,5.45,5.45,0,0,1-1.79.28,5.08,5.08,0,0,1-2-.36,4.67,4.67,0,0,1-1.52-1,5.23,5.23,0,0,1-1-1.43,4.86,4.86,0,0,1-.39-1.64h1.95a2.68,2.68,0,0,0,.77,1.64,3,3,0,0,0,2.24.76,2.72,2.72,0,0,0,2.25-.91,4,4,0,0,0,.73-2.57v-1.78a5.08,5.08,0,0,1-1.64,1.38,3.53,3.53,0,0,1-1.87.53,4.15,4.15,0,0,1-2-.49,5,5,0,0,1-1.64-1.35,6.69,6.69,0,0,1-1.07-2,8.31,8.31,0,0,1-.4-2.61,8.87,8.87,0,0,1,.38-2.56,6.26,6.26,0,0,1,1-2,4.84,4.84,0,0,1,1.64-1.34,4.36,4.36,0,0,1,2-.46,3.92,3.92,0,0,1,1.9.46,5.38,5.38,0,0,1,1.55,1.34v-1.31ZM1544,611.47a2.78,2.78,0,0,0,2.28-1.12,4.9,4.9,0,0,0,.87-3.15,4.74,4.74,0,0,0-.87-3.09,3,3,0,0,0-4.26-.32c-.11.1-.22.21-.32.32a4.78,4.78,0,0,0-.85,3.09,5,5,0,0,0,.85,3.15,2.76,2.76,0,0,0,2.37,1.12Z" transform="translate(-26.49 -439.51)"/><path class="cls-18" d="M1561,608.65h-8.39a4.72,4.72,0,0,0,1,2.93,2.71,2.71,0,0,0,2.13,1.12,2.41,2.41,0,0,0,1.86-.67,3.41,3.41,0,0,0,.82-1.38h2.18a8,8,0,0,1-.54,1.48,5.35,5.35,0,0,1-.92,1.36,4.86,4.86,0,0,1-5.51.82,4.73,4.73,0,0,1-1.65-1.46,6.55,6.55,0,0,1-1.1-2.19,9.47,9.47,0,0,1-.39-2.8,10.06,10.06,0,0,1,.36-2.78,6.86,6.86,0,0,1,1.07-2.21,5.17,5.17,0,0,1,1.64-1.45,4.54,4.54,0,0,1,2.17-.52,4.75,4.75,0,0,1,2,.46,4.49,4.49,0,0,1,1.65,1.41,6.75,6.75,0,0,1,1.13,2.41A12.3,12.3,0,0,1,1561,608.65Zm-8.34-2h6.17a4.29,4.29,0,0,0-.9-2.63,2.9,2.9,0,0,0-4.1-.26,1.62,1.62,0,0,0-.19.18A4.45,4.45,0,0,0,1552.62,606.68Z" transform="translate(-26.49 -439.51)"/><path class="cls-18" d="M1577.38,608.63h2.11a10.09,10.09,0,0,1-.65,2.2,7.65,7.65,0,0,1-1.2,2,6.08,6.08,0,0,1-1.82,1.45,5.5,5.5,0,0,1-2.48.54,5.73,5.73,0,0,1-2.78-.66,5.89,5.89,0,0,1-2.08-1.89,9.13,9.13,0,0,1-1.28-3,14.68,14.68,0,0,1-.46-3.91,13.93,13.93,0,0,1,.46-3.8,9.29,9.29,0,0,1,1.28-2.94,6.48,6.48,0,0,1,2.08-1.89,5.73,5.73,0,0,1,2.78-.66,5,5,0,0,1,2.49.58,6.32,6.32,0,0,1,1.84,1.41,6.79,6.79,0,0,1,1.2,1.84,9,9,0,0,1,.61,1.84h-2.12a10.71,10.71,0,0,0-.49-1.22,4.12,4.12,0,0,0-.78-1.11,3.54,3.54,0,0,0-2.75-1.14,3.72,3.72,0,0,0-3.29,1.94,9.65,9.65,0,0,0-1.2,5.15,10.13,10.13,0,0,0,1.2,5.32,3.74,3.74,0,0,0,3.29,2,3.42,3.42,0,0,0,2.75-1.27,4.34,4.34,0,0,0,.79-1.28A8.7,8.7,0,0,0,1577.38,608.63Z" transform="translate(-26.49 -439.51)"/><path class="cls-18" d="M1590.84,608.65h-8.38a4.63,4.63,0,0,0,1,2.93,2.71,2.71,0,0,0,2.13,1.12,2.46,2.46,0,0,0,1.88-.67,3.37,3.37,0,0,0,.8-1.38h2.2a8,8,0,0,1-.54,1.48,5.92,5.92,0,0,1-.92,1.36,5.06,5.06,0,0,1-1.41,1,4.71,4.71,0,0,1-2,.36,4.42,4.42,0,0,1-2.08-.49,4.73,4.73,0,0,1-1.64-1.47,6.59,6.59,0,0,1-1.1-2.18,9.55,9.55,0,0,1-.4-2.81,10,10,0,0,1,.36-2.77,7.24,7.24,0,0,1,1.07-2.22,5.27,5.27,0,0,1,1.64-1.44,4.7,4.7,0,0,1,2.17-.53,4.82,4.82,0,0,1,2,.46,4.74,4.74,0,0,1,1.64,1.41,7.1,7.1,0,0,1,1.15,2.42A13.36,13.36,0,0,1,1590.84,608.65Zm-8.34-2h6.19a4.44,4.44,0,0,0-.92-2.63,2.9,2.9,0,0,0-4.1-.26,1.62,1.62,0,0,0-.19.18,4.45,4.45,0,0,0-1,2.71Z" transform="translate(-26.49 -439.51)"/><path class="cls-18" d="M1601.31,614.33h-1.93v-7.79a4,4,0,0,0-.61-2.41,2,2,0,0,0-1.79-.8,2.21,2.21,0,0,0-1.15.29,2.8,2.8,0,0,0-.9.81,2.9,2.9,0,0,0-.61,1.18,4.19,4.19,0,0,0-.21,1.41v7.31h-1.93V601.41h1.93v1.42a6.2,6.2,0,0,1,1.64-1.42,3.65,3.65,0,0,1,2.44-.45,3,3,0,0,1,1.43.63,4,4,0,0,1,1,1.13,5.53,5.53,0,0,1,.56,1.41,6.72,6.72,0,0,1,.18,1.41Z" transform="translate(-26.49 -439.51)"/><path class="cls-18" d="M1607.12,614.33h-1.29a1.7,1.7,0,0,1-1-.32,2.29,2.29,0,0,1-.68-.77,2.48,2.48,0,0,1-.39-1,11.35,11.35,0,0,1-.08-1.54v-7.28h-1.32v-2h1.32v-4h1.93v4h1.51v2h-1.51V611a2.67,2.67,0,0,0,0,.4,1.33,1.33,0,0,0,.1.34,1.19,1.19,0,0,0,.23.31.38.38,0,0,0,.23.2,1.39,1.39,0,0,0,.33.1h.61Z" transform="translate(-26.49 -439.51)"/><path class="cls-18" d="M1618.21,608.65h-8.39a4.89,4.89,0,0,0,1,2.93,2.75,2.75,0,0,0,2.15,1.12,2.42,2.42,0,0,0,1.86-.67,3.16,3.16,0,0,0,.8-1.38h2.22a9.7,9.7,0,0,1-.54,1.48,6,6,0,0,1-.94,1.36,4.44,4.44,0,0,1-1.41,1,5.11,5.11,0,0,1-4.11-.15,5.21,5.21,0,0,1-1.64-1.46,6.74,6.74,0,0,1-1.1-2.19,9.45,9.45,0,0,1-.37-2.8,10.06,10.06,0,0,1,.36-2.78,6.46,6.46,0,0,1,1.06-2.21,5.47,5.47,0,0,1,1.65-1.45,4.58,4.58,0,0,1,2.18-.52,4.75,4.75,0,0,1,2,.46,4.67,4.67,0,0,1,1.65,1.41,6.71,6.71,0,0,1,1.15,2.41A12.31,12.31,0,0,1,1618.21,608.65Zm-8.34-2H1616a4.42,4.42,0,0,0-.9-2.63,2.73,2.73,0,0,0-2.19-1,2.77,2.77,0,0,0-2.12.91,4.38,4.38,0,0,0-1,2.71Z" transform="translate(-26.49 -439.51)"/><path class="cls-18" d="M1625,603.38a4,4,0,0,0-.91.08,2.76,2.76,0,0,0-.77.33,3.63,3.63,0,0,0-1.38,1.64,6.88,6.88,0,0,0-.47,2.8v6.1h-1.91V601.41h1.91v1.93a5.78,5.78,0,0,1,.83-1.25,3.86,3.86,0,0,1,1.12-.85,4.59,4.59,0,0,1,1.64-.31Z" transform="translate(-26.49 -439.51)"/><path class="cls-18" d="M1634.9,603.51h-1.51v10.82h-1.93V603.51h-1.32v-2h1.32v-1.43a8.79,8.79,0,0,1,.09-1.54,2.56,2.56,0,0,1,.38-1,3.48,3.48,0,0,1,.67-.76,1.74,1.74,0,0,1,1-.33h1.29v2.06h-.57a.81.81,0,0,0-.31,0,.83.83,0,0,0-.27.19,1.22,1.22,0,0,0-.31.68,6.46,6.46,0,0,0,0,.88v1.14H1635Z" transform="translate(-26.49 -439.51)"/><path class="cls-18" d="M1640.73,600.9a4.66,4.66,0,0,1,2.2.52,5.43,5.43,0,0,1,1.64,1.45,6.81,6.81,0,0,1,1,2.21,10.77,10.77,0,0,1,0,5.58,6.43,6.43,0,0,1-1,2.19,5,5,0,0,1-1.64,1.46,4.73,4.73,0,0,1-6.07-1.46,6.43,6.43,0,0,1-1-2.19,11.45,11.45,0,0,1,0-5.58,6.81,6.81,0,0,1,1-2.21,5,5,0,0,1,1.64-1.45A4.57,4.57,0,0,1,1640.73,600.9Zm0,11.8a2.66,2.66,0,0,0,2.32-1.36,7.55,7.55,0,0,0,0-7,2.68,2.68,0,0,0-4.63,0,7.49,7.49,0,0,0,0,7,2.63,2.63,0,0,0,2.31,1.34Z" transform="translate(-26.49 -439.51)"/><path class="cls-18" d="M1652.77,603.38a4.6,4.6,0,0,0-.91.08,2.76,2.76,0,0,0-.77.33,3.63,3.63,0,0,0-1.38,1.64,6.88,6.88,0,0,0-.47,2.8v6.1h-1.91V601.41h1.89v1.93a6.84,6.84,0,0,1,.84-1.25,3.69,3.69,0,0,1,1.11-.85,4.63,4.63,0,0,1,1.64-.31Z" transform="translate(-26.49 -439.51)"/><path class="cls-18" d="M1661,614.33h-1.9V596.5h1.9Z" transform="translate(-26.49 -439.51)"/><path class="cls-18" d="M1672.35,614.33h-1.92v-7.79a4.1,4.1,0,0,0-.61-2.41,2.06,2.06,0,0,0-1.79-.8,2.25,2.25,0,0,0-1.16.29,3,3,0,0,0-.9.81,3.49,3.49,0,0,0-.61,1.18,5.19,5.19,0,0,0-.22,1.41v7.31h-1.9V601.41h1.9v1.42a6.79,6.79,0,0,1,1.65-1.42,3.7,3.7,0,0,1,2.46-.45,3.08,3.08,0,0,1,1.43.63,4.79,4.79,0,0,1,1,1.13,6.18,6.18,0,0,1,.72,2.82Z" transform="translate(-26.49 -439.51)"/><path class="cls-18" d="M1683.7,614.33h-1.94v-7.79a4.09,4.09,0,0,0-.59-2.41,2.08,2.08,0,0,0-1.81-.8,2.21,2.21,0,0,0-1.15.29,3,3,0,0,0-.9.81,3.24,3.24,0,0,0-.61,1.18,4.46,4.46,0,0,0-.21,1.41v7.31h-1.91V601.41h1.91v1.42a6.74,6.74,0,0,1,1.64-1.42,3.74,3.74,0,0,1,2.45-.45,2.93,2.93,0,0,1,1.44.63,4.3,4.3,0,0,1,1,1.13,4.78,4.78,0,0,1,.56,1.41,5.62,5.62,0,0,1,.18,1.41Z" transform="translate(-26.49 -439.51)"/><path class="cls-18" d="M1690.26,600.9a4.66,4.66,0,0,1,2.2.52,5.59,5.59,0,0,1,1.65,1.45,7.44,7.44,0,0,1,1,2.21,11,11,0,0,1,0,5.58,6.77,6.77,0,0,1-1,2.19,5.13,5.13,0,0,1-1.65,1.46,4.65,4.65,0,0,1-2.2.51,4.55,4.55,0,0,1-3.87-2,6.62,6.62,0,0,1-1.05-2.19,11.45,11.45,0,0,1,0-5.58,6.81,6.81,0,0,1,1.05-2.21,5.17,5.17,0,0,1,1.64-1.45A4.57,4.57,0,0,1,1690.26,600.9Zm0,11.8a2.65,2.65,0,0,0,2.32-1.36,7.49,7.49,0,0,0,0-7,2.68,2.68,0,0,0-4.63,0,7.49,7.49,0,0,0,0,7,2.63,2.63,0,0,0,2.31,1.34Z" transform="translate(-26.49 -439.51)"/><path class="cls-18" d="M1706,601.37l-4,13h-2.34l-4-13h2.06l3.13,10.23,3.15-10.23Z" transform="translate(-26.49 -439.51)"/><path class="cls-18" d="M1717.19,615h-2a3.73,3.73,0,0,1-.29-1,7.3,7.3,0,0,1-.09-1,4.27,4.27,0,0,1-5.5,1.28,4.54,4.54,0,0,1-1.64-1.44,6.52,6.52,0,0,1-1-2.22,11.58,11.58,0,0,1,0-5.73,7,7,0,0,1,1-2.21,4.63,4.63,0,0,1,1.64-1.47,4.35,4.35,0,0,1,2.06-.5,4,4,0,0,1,1.87.47,4.41,4.41,0,0,1,1.53,1.35v-1.82h1.92v11.69a9.7,9.7,0,0,0,.11,1.42A4.24,4.24,0,0,0,1717.19,615Zm-5.58-2.45a2.66,2.66,0,0,0,2.31-1.25,7.86,7.86,0,0,0,0-7.07,2.61,2.61,0,0,0-2.31-1.25,2.57,2.57,0,0,0-2.33,1.33,7.65,7.65,0,0,0,0,6.91A2.59,2.59,0,0,0,1711.61,612.57Z" transform="translate(-26.49 -439.51)"/><path class="cls-18" d="M1722.64,614.33h-1.3a1.7,1.7,0,0,1-1-.32,2.16,2.16,0,0,1-.67-.77,2.5,2.5,0,0,1-.4-1,11.35,11.35,0,0,1-.08-1.54v-7.28h-1.31v-2h1.31v-4h1.94v4h1.51v2h-1.51v7a3.84,3.84,0,0,1,0,.48,2.54,2.54,0,0,0,0,.39,1.08,1.08,0,0,0,.1.35,1.39,1.39,0,0,0,.23.31.42.42,0,0,0,.23.2,1.15,1.15,0,0,0,.33.09h.6Z" transform="translate(-26.49 -439.51)"/><path class="cls-18" d="M1726.05,598.7h-1.9v-2.43h1.9Zm0,15.63h-1.9V601.27h1.9Z" transform="translate(-26.49 -439.51)"/><path class="cls-18" d="M1737.5,601.37l-4,13h-2.33l-4-13h2.06l3.13,10.23,3.16-10.23Z" transform="translate(-26.49 -439.51)"/><path class="cls-18" d="M1748.17,608.65h-8.37a4.62,4.62,0,0,0,1,2.93,2.71,2.71,0,0,0,2.14,1.12,2.44,2.44,0,0,0,1.87-.67,3.37,3.37,0,0,0,.8-1.38h2.14a7.12,7.12,0,0,1-.55,1.48,5,5,0,0,1-.92,1.36,4.79,4.79,0,0,1-1.41,1,4.66,4.66,0,0,1-1.95.36,4.46,4.46,0,0,1-2.15-.51,4.61,4.61,0,0,1-1.64-1.46,6.74,6.74,0,0,1-1.1-2.19,9.48,9.48,0,0,1-.4-2.8,10.08,10.08,0,0,1,.38-2.78,6.43,6.43,0,0,1,1-2.21,5.17,5.17,0,0,1,1.64-1.45,4.57,4.57,0,0,1,2.17-.52,4.83,4.83,0,0,1,2.05.46,4.64,4.64,0,0,1,1.64,1.41,6.79,6.79,0,0,1,1.15,2.41A12.69,12.69,0,0,1,1748.17,608.65Zm-8.34-2h6.25a4.47,4.47,0,0,0-.9-2.63,2.74,2.74,0,0,0-2.2-1,2.71,2.71,0,0,0-2.1.91A4.48,4.48,0,0,0,1739.83,606.68Z" transform="translate(-26.49 -439.51)"/><path class="cls-18" d="M1765.6,614.33h-1.92v-8.21h-7.2v8.21h-1.91V596.5h1.91v7.35h7.2V596.5h1.92Z" transform="translate(-26.49 -439.51)"/><path class="cls-18" d="M1769.76,598.7h-1.89v-2.43h1.89Zm0,15.63h-1.89V601.27h1.89Z" transform="translate(-26.49 -439.51)"/><path class="cls-18" d="M1781.63,601.32v12.19a7.48,7.48,0,0,1-.43,2.65,4.65,4.65,0,0,1-1.12,1.74,4,4,0,0,1-1.64.92,5.51,5.51,0,0,1-1.8.28,5,5,0,0,1-2-.36,4.71,4.71,0,0,1-1.53-1,4.85,4.85,0,0,1-1-1.43,4.21,4.21,0,0,1-.4-1.64h2a2.58,2.58,0,0,0,.77,1.64,2.9,2.9,0,0,0,2.23.76,2.72,2.72,0,0,0,2.25-.91,4.06,4.06,0,0,0,.72-2.57v-1.78a5.3,5.3,0,0,1-1.64,1.38,3.53,3.53,0,0,1-1.87.53,4.07,4.07,0,0,1-2-.49,5.34,5.34,0,0,1-1.64-1.35,6.87,6.87,0,0,1-1-2,8.3,8.3,0,0,1-.39-2.61,8.52,8.52,0,0,1,.36-2.56,6.58,6.58,0,0,1,1-2,5.2,5.2,0,0,1,1.64-1.34,4.23,4.23,0,0,1,2-.46,3.89,3.89,0,0,1,1.89.46,4.87,4.87,0,0,1,1.55,1.34v-1.31Zm-5.09,10.15a2.73,2.73,0,0,0,2.28-1.12,4.9,4.9,0,0,0,.87-3.15,4.63,4.63,0,0,0-.87-3.09,3,3,0,0,0-4.24-.32c-.11.1-.22.21-.32.32a4.74,4.74,0,0,0-.87,3.09,4.9,4.9,0,0,0,.87,3.15,2.73,2.73,0,0,0,2.28,1.12Z" transform="translate(-26.49 -439.51)"/><path class="cls-18" d="M1793,614.33h-1.94v-7.79a4.09,4.09,0,0,0-.57-2.44,2,2,0,0,0-1.77-.77,2.28,2.28,0,0,0-1.17.28,3.44,3.44,0,0,0-.92.78,4,4,0,0,0-.62,1.17,4.52,4.52,0,0,0-.22,1.41v7.36h-2V596.5h1.91v6.33a6.74,6.74,0,0,1,1.64-1.42,3.67,3.67,0,0,1,2.45-.45,3.08,3.08,0,0,1,1.43.63,4.18,4.18,0,0,1,1,1.13,5.53,5.53,0,0,1,.56,1.41,5.62,5.62,0,0,1,.18,1.41Z" transform="translate(-26.49 -439.51)"/><path class="cls-18" d="M1804.81,608.65h-8.39a4.84,4.84,0,0,0,1,2.93,2.73,2.73,0,0,0,2.15,1.12,2.4,2.4,0,0,0,1.85-.67,3.3,3.3,0,0,0,.82-1.38h2.2a8.74,8.74,0,0,1-.54,1.48,5.7,5.7,0,0,1-.94,1.36,4.34,4.34,0,0,1-3.34,1.33,4.65,4.65,0,0,1-2.17-.51,5,5,0,0,1-1.64-1.46,6.41,6.41,0,0,1-1.12-2.19,10.77,10.77,0,0,1,0-5.58,6.86,6.86,0,0,1,1.07-2.21,5.17,5.17,0,0,1,1.64-1.45,4.54,4.54,0,0,1,2.17-.52,4.4,4.4,0,0,1,3.67,1.87,6.77,6.77,0,0,1,1.14,2.41A12.33,12.33,0,0,1,1804.81,608.65Zm-8.34-2h6.17a4.36,4.36,0,0,0-.9-2.63,2.67,2.67,0,0,0-2.18-1,2.75,2.75,0,0,0-2.12.91A4.5,4.5,0,0,0,1796.47,606.68Z" transform="translate(-26.49 -439.51)"/><path class="cls-18" d="M1811.59,603.38a4.56,4.56,0,0,0-.9.08,2.76,2.76,0,0,0-.77.33,3.51,3.51,0,0,0-1.38,1.64,6.73,6.73,0,0,0-.48,2.8v6.1h-1.9V601.41h1.9v1.93a6.84,6.84,0,0,1,.84-1.25,3.69,3.69,0,0,1,1.11-.85,4.64,4.64,0,0,1,1.65-.31Z" transform="translate(-26.49 -439.51)"/><path class="cls-18" d="M1828.06,614.33h-10.17V596.5h10v2.2h-8.09V604h7.73v2.22h-7.73v6h8.2Z" transform="translate(-26.49 -439.51)"/><path class="cls-18" d="M1839.19,614.33h-1.92V613a4.71,4.71,0,0,1-1.53,1.35,4.07,4.07,0,0,1-1.9.46,4.38,4.38,0,0,1-2.07-.49,4.77,4.77,0,0,1-1.64-1.42,6.4,6.4,0,0,1-1-2.16,11.19,11.19,0,0,1,0-5.63,6.36,6.36,0,0,1,1-2.19,4.85,4.85,0,0,1,1.64-1.41,4.13,4.13,0,0,1,2.07-.51,3.83,3.83,0,0,1,1.9.48,4.39,4.39,0,0,1,1.53,1.31v-6.3h1.92Zm-5.06-1.65a2.63,2.63,0,0,0,2.3-1.21,7.63,7.63,0,0,0,0-7,2.78,2.78,0,0,0-4.63.08,6.13,6.13,0,0,0-.82,3.4,6.22,6.22,0,0,0,.82,3.4A2.57,2.57,0,0,0,1834.13,612.68Z" transform="translate(-26.49 -439.51)"/><path class="cls-18" d="M1850.39,614.33h-1.91v-1.55a4.86,4.86,0,0,1-1.39,1.43,3.69,3.69,0,0,1-2.11.61,3.25,3.25,0,0,1-1.34-.28,3.7,3.7,0,0,1-1.2-.87,4.87,4.87,0,0,1-.84-1.51,6,6,0,0,1-.33-2.14v-8.61h1.92v7.84a4,4,0,0,0,.68,2.55,2.06,2.06,0,0,0,1.85.69,2.75,2.75,0,0,0,2-1,4,4,0,0,0,.79-2.71v-7.35h1.91Z" transform="translate(-26.49 -439.51)"/><path class="cls-18" d="M1859.76,610.21h2.17a8.39,8.39,0,0,1-.59,1.75,6,6,0,0,1-1,1.48,4.55,4.55,0,0,1-1.44,1,5.09,5.09,0,0,1-4.1-.15,5,5,0,0,1-1.65-1.43,6.57,6.57,0,0,1-1.05-2.2,11,11,0,0,1,0-5.58,6.67,6.67,0,0,1,1.05-2.2,5.09,5.09,0,0,1,1.65-1.48,4.7,4.7,0,0,1,2.21-.52,4.35,4.35,0,0,1,1.94.42,5.45,5.45,0,0,1,1.48,1.09,6.1,6.1,0,0,1,1,1.51,6.65,6.65,0,0,1,.51,1.64h-2.15a7.52,7.52,0,0,0-.28-.84,3.59,3.59,0,0,0-.53-.8,2.59,2.59,0,0,0-.82-.61,2.54,2.54,0,0,0-1.15-.25,2.63,2.63,0,0,0-2.3,1.35,6.61,6.61,0,0,0-.85,3.48,6.45,6.45,0,0,0,.85,3.46,2.61,2.61,0,0,0,2.3,1.35,2.45,2.45,0,0,0,1.86-.74A3.59,3.59,0,0,0,1859.76,610.21Z" transform="translate(-26.49 -439.51)"/><path class="cls-18" d="M1873.34,615h-2a3.14,3.14,0,0,1-.31-1,6,6,0,0,1,0-1,4.54,4.54,0,0,1-1.53,1.33,4.35,4.35,0,0,1-4-.05,4.83,4.83,0,0,1-1.64-1.44,6.5,6.5,0,0,1-1-2.22,10.44,10.44,0,0,1-.36-2.84,10.85,10.85,0,0,1,.36-2.89,6.74,6.74,0,0,1,1-2.21,4.92,4.92,0,0,1,1.64-1.47,4.39,4.39,0,0,1,2.07-.5,4,4,0,0,1,1.9.47,4.68,4.68,0,0,1,1.55,1.35v-1.82h1.9v11.69a9.74,9.74,0,0,0,.13,1.42A4.35,4.35,0,0,0,1873.34,615Zm-5.5-2.45a2.69,2.69,0,0,0,2.3-1.25,7.8,7.8,0,0,0,0-7.07,2.63,2.63,0,0,0-2.3-1.25,2.55,2.55,0,0,0-2.33,1.33,7.65,7.65,0,0,0,0,6.91,2.57,2.57,0,0,0,2.33,1.33Z" transform="translate(-26.49 -439.51)"/><path class="cls-18" d="M1878.8,614.33h-1.37a1.53,1.53,0,0,1-1-.32,3,3,0,0,1-1.07-1.72,11.35,11.35,0,0,1-.08-1.54v-7.28H1874v-2h1.33v-4h1.94v4h1.51v2h-1.51v7.46a1.27,1.27,0,0,0,0,.39.88.88,0,0,0,.1.35,1.06,1.06,0,0,0,.21.31.5.5,0,0,0,.25.2.9.9,0,0,0,.32.09h.61Z" transform="translate(-26.49 -439.51)"/><path class="cls-18" d="M1882.2,598.7h-1.89v-2.43h1.89Zm0,15.63h-1.89V601.27h1.89Z" transform="translate(-26.49 -439.51)"/><path class="cls-18" d="M1888.79,600.9a4.69,4.69,0,0,1,2.2.52,5.43,5.43,0,0,1,1.64,1.45,7,7,0,0,1,1,2.21,11,11,0,0,1,0,5.58,6.62,6.62,0,0,1-1,2.19,5,5,0,0,1-1.64,1.46,4.68,4.68,0,0,1-2.2.51,4.51,4.51,0,0,1-3.86-2,6.62,6.62,0,0,1-1-2.19,11.45,11.45,0,0,1,0-5.58,6.81,6.81,0,0,1,1-2.21,5.17,5.17,0,0,1,1.64-1.45A4.51,4.51,0,0,1,1888.79,600.9Zm0,11.8a2.63,2.63,0,0,0,2.31-1.36,7.49,7.49,0,0,0,0-7,2.68,2.68,0,0,0-3.66-1,2.73,2.73,0,0,0-1,1,7.38,7.38,0,0,0,0,7,2.64,2.64,0,0,0,2.32,1.34Z" transform="translate(-26.49 -439.51)"/><path class="cls-18" d="M1904.5,614.33h-1.94v-7.79a4.09,4.09,0,0,0-.59-2.41,2.07,2.07,0,0,0-1.79-.8,2.28,2.28,0,0,0-1.17.29,3.16,3.16,0,0,0-.9.81,3.24,3.24,0,0,0-.61,1.18,4.77,4.77,0,0,0-.21,1.41v7.31h-1.9V601.41h1.9v1.42a6.74,6.74,0,0,1,1.64-1.42,3.74,3.74,0,0,1,2.45-.45,2.93,2.93,0,0,1,1.44.63,4.54,4.54,0,0,1,1,1.13,5,5,0,0,1,.55,1.41,4.83,4.83,0,0,1,.18,1.41Z" transform="translate(-26.49 -439.51)"/><path class="cls-19" d="M1533.67,576.57l-40.34-45.22-3.77,3.48-3.17,2.87-2.66,2.37-2.07,1.77v34.73h-18.32V471.21h18.42v46.25q4.92-4.29,10.34-9.75t11.23-11.38q5.61-6.06,11.23-12.41t10.79-12.71h23.2q-12.12,15.38-22.55,27.12t-19.27,20.31l50,57.93Z" transform="translate(-26.49 -439.51)"/><path class="cls-19" d="M1656.9,539.48a70.4,70.4,0,0,1-5.25,14.77,47,47,0,0,1-9.08,12.78,43.53,43.53,0,0,1-13.68,8.94,47.37,47.37,0,0,1-18.38,3.29,51.26,51.26,0,0,1-20.54-3.91,43,43,0,0,1-15.37-11.16,49.21,49.21,0,0,1-9.69-17.5,74.62,74.62,0,0,1-3.28-23,71.92,71.92,0,0,1,3.28-22.52A48,48,0,0,1,1574.6,484,43,43,0,0,1,1590,472.81a51.11,51.11,0,0,1,20.54-3.93,45.84,45.84,0,0,1,41.22,24.37,59.78,59.78,0,0,1,5.11,12.77H1637a43.83,43.83,0,0,0-3.4-7.24,24.31,24.31,0,0,0-5.17-6.21,23,23,0,0,0-7.54-4.43,29.86,29.86,0,0,0-10.34-1.64q-13.89,0-21.58,10.19t-7.68,27.19q0,17.73,7.68,28.08t21.58,10.34q11.49,0,17.73-6.73a37.75,37.75,0,0,0,8.72-16Z" transform="translate(-26.49 -439.51)"/><path class="cls-19" d="M1677.13,576.57V471.21h18.32V576.57Z" transform="translate(-26.49 -439.51)"/><path class="cls-19" d="M1783.84,576.57v-46.4h-45.67v46.4H1719.7V471.21h18.47v41.33h45.67V471.16h18.47V576.57Z" transform="translate(-26.49 -439.51)"/><path class="cls-19" d="M1826.53,576.57V471.21h75.36v17.44H1845v24.82h54.38v17.44H1845v28.52h57.92v17.14Z" transform="translate(-26.49 -439.51)"/></svg>